<svg width="320" height="57" viewBox="0 0 320 57" fill="none" xmlns="http://www.w3.org/2000/svg">
<path d="M36 18.375C33.9975 18.375 32.0399 18.9688 30.3749 20.0814C28.7098 21.1939 27.4121 22.7752 26.6457 24.6253C25.8794 26.4754 25.6789 28.5112 26.0696 30.4753C26.4602 32.4393 27.4245 34.2435 28.8405 35.6595C30.2566 37.0755 32.0607 38.0398 34.0247 38.4305C35.9888 38.8211 38.0246 38.6206 39.8747 37.8543C41.7248 37.0879 43.3061 35.7902 44.4186 34.1251C45.5312 32.4601 46.125 30.5025 46.125 28.5C46.122 25.8156 45.0543 23.242 43.1562 21.3438C41.258 19.4457 38.6844 18.378 36 18.375ZM36 36.375C34.4425 36.375 32.9199 35.9131 31.6249 35.0478C30.3299 34.1825 29.3205 32.9526 28.7245 31.5136C28.1284 30.0747 27.9725 28.4913 28.2763 26.9637C28.5802 25.4361 29.3302 24.0329 30.4315 22.9315C31.5329 21.8302 32.9361 21.0802 34.4637 20.7763C35.9913 20.4725 37.5747 20.6284 39.0136 21.2244C40.4526 21.8205 41.6825 22.8298 42.5478 24.1249C43.4131 25.4199 43.875 26.9425 43.875 28.5C43.8728 30.5879 43.0424 32.5896 41.566 34.066C40.0896 35.5424 38.0879 36.3728 36 36.375ZM39.3066 23.7188L34.0566 25.9688C33.7912 26.0825 33.5797 26.294 33.4659 26.5594L31.2159 31.8094C31.129 32.0158 31.1056 32.2436 31.1488 32.4634C31.1921 32.6832 31.3 32.8851 31.4587 33.0432C31.6174 33.2013 31.8197 33.3084 32.0397 33.3508C32.2597 33.3933 32.4873 33.369 32.6934 33.2812L37.9434 31.0312C38.2088 30.9175 38.4203 30.706 38.5341 30.4406L40.7841 25.1906C40.8711 24.9842 40.8944 24.7564 40.8512 24.5366C40.8079 24.3168 40.7 24.1149 40.5413 23.9568C40.3826 23.7987 40.1803 23.6916 39.9603 23.6492C39.7403 23.6067 39.5127 23.631 39.3066 23.7188ZM36.6431 29.1459L34.3931 30.1106L35.3578 27.8606L37.6078 26.8959L36.6431 29.1459Z" fill="#475569"/>
<path d="M64.05 28.894H66.444V33.556H64.05V28.894ZM70.098 28.894H72.492V33.556H70.098V28.894ZM60.738 33.214H75.84V35.158H60.738V33.214ZM68.262 21.244C69.462 21.244 70.53 21.43 71.466 21.802C72.414 22.174 73.152 22.696 73.68 23.368C74.22 24.028 74.49 24.814 74.49 25.726C74.49 26.626 74.22 27.412 73.68 28.084C73.152 28.744 72.414 29.26 71.466 29.632C70.53 30.004 69.462 30.19 68.262 30.19C67.074 30.19 66.006 30.004 65.058 29.632C64.122 29.26 63.384 28.744 62.844 28.084C62.304 27.412 62.034 26.626 62.034 25.726C62.034 24.814 62.304 24.028 62.844 23.368C63.384 22.696 64.122 22.174 65.058 21.802C66.006 21.43 67.074 21.244 68.262 21.244ZM68.262 23.098C67.494 23.098 66.816 23.206 66.228 23.422C65.652 23.626 65.202 23.92 64.878 24.304C64.554 24.688 64.392 25.162 64.392 25.726C64.392 26.266 64.554 26.734 64.878 27.13C65.202 27.514 65.652 27.814 66.228 28.03C66.816 28.234 67.494 28.336 68.262 28.336C69.042 28.336 69.72 28.234 70.296 28.03C70.884 27.814 71.334 27.514 71.646 27.13C71.97 26.734 72.132 26.266 72.132 25.726C72.132 25.162 71.97 24.688 71.646 24.304C71.334 23.92 70.884 23.626 70.296 23.422C69.72 23.206 69.042 23.098 68.262 23.098ZM89.5366 22.594H92.3986V24.556H89.5366V22.594ZM89.5366 26.212H92.3986V28.156H89.5366V26.212ZM87.8626 20.434H90.2566V30.262H87.8626V20.434ZM79.1326 30.946H90.2566V37.102H87.8626V32.836H79.1326V30.946ZM81.7786 21.334C82.6426 21.334 83.4166 21.514 84.1006 21.874C84.7846 22.222 85.3246 22.702 85.7206 23.314C86.1166 23.914 86.3146 24.61 86.3146 25.402C86.3146 26.206 86.1166 26.914 85.7206 27.526C85.3246 28.138 84.7846 28.618 84.1006 28.966C83.4166 29.314 82.6426 29.488 81.7786 29.488C80.9266 29.488 80.1586 29.314 79.4746 28.966C78.7906 28.618 78.2506 28.138 77.8546 27.526C77.4586 26.914 77.2606 26.206 77.2606 25.402C77.2606 24.61 77.4586 23.914 77.8546 23.314C78.2506 22.702 78.7906 22.222 79.4746 21.874C80.1586 21.514 80.9266 21.334 81.7786 21.334ZM81.7786 23.35C81.3706 23.35 80.9986 23.434 80.6626 23.602C80.3266 23.758 80.0626 23.992 79.8706 24.304C79.6906 24.604 79.6006 24.97 79.6006 25.402C79.6006 25.846 79.6906 26.224 79.8706 26.536C80.0626 26.836 80.3266 27.07 80.6626 27.238C80.9986 27.394 81.3706 27.472 81.7786 27.472C82.2106 27.472 82.5886 27.394 82.9126 27.238C83.2366 27.07 83.4946 26.836 83.6866 26.536C83.8786 26.224 83.9746 25.846 83.9746 25.402C83.9746 24.97 83.8786 24.604 83.6866 24.304C83.4946 23.992 83.2366 23.758 82.9126 23.602C82.5886 23.434 82.2106 23.35 81.7786 23.35Z" fill="#1E293B"/>
</svg>
