<svg width="320" height="57" viewBox="0 0 320 57" fill="none" xmlns="http://www.w3.org/2000/svg">
<path d="M34 37.5C32.9 37.5 31.9583 37.1083 31.175 36.325C30.3917 35.5417 30 34.6 30 33.5C30 32.4 30.3917 31.4583 31.175 30.675C31.9583 29.8917 32.9 29.5 34 29.5C34.3833 29.5 34.7333 29.55 35.05 29.65C35.3833 29.7333 35.7 29.8667 36 30.05V19.5H42V23.5H38V33.5C38 34.6 37.6083 35.5417 36.825 36.325C36.0417 37.1083 35.1 37.5 34 37.5Z" fill="#1D1B20"/>
<path d="M67.074 29.794H69.45V33.592H67.074V29.794ZM68.262 21.28C69.45 21.28 70.512 21.472 71.448 21.856C72.396 22.228 73.14 22.756 73.68 23.44C74.22 24.124 74.49 24.934 74.49 25.87C74.49 26.794 74.22 27.604 73.68 28.3C73.14 28.996 72.396 29.536 71.448 29.92C70.512 30.292 69.45 30.478 68.262 30.478C67.086 30.478 66.024 30.292 65.076 29.92C64.14 29.536 63.396 28.996 62.844 28.3C62.304 27.604 62.034 26.794 62.034 25.87C62.034 24.934 62.304 24.124 62.844 23.44C63.396 22.756 64.14 22.228 65.076 21.856C66.024 21.472 67.086 21.28 68.262 21.28ZM68.262 23.17C67.506 23.17 66.834 23.278 66.246 23.494C65.67 23.71 65.214 24.016 64.878 24.412C64.554 24.808 64.392 25.294 64.392 25.87C64.392 26.434 64.554 26.92 64.878 27.328C65.214 27.724 65.67 28.03 66.246 28.246C66.834 28.462 67.506 28.57 68.262 28.57C69.03 28.57 69.702 28.462 70.278 28.246C70.866 28.03 71.322 27.724 71.646 27.328C71.97 26.92 72.132 26.434 72.132 25.87C72.132 25.294 71.97 24.808 71.646 24.412C71.322 24.016 70.866 23.71 70.278 23.494C69.702 23.278 69.03 23.17 68.262 23.17ZM60.738 33.214H75.84V35.158H60.738V33.214ZM88.5826 20.416H90.9766V37.138H88.5826V20.416ZM78.1606 31.18H79.6006C80.7646 31.18 81.7846 31.168 82.6606 31.144C83.5486 31.12 84.3586 31.072 85.0906 31C85.8346 30.928 86.5786 30.82 87.3226 30.676L87.5386 32.656C86.7826 32.8 86.0206 32.914 85.2526 32.998C84.4966 33.07 83.6626 33.118 82.7506 33.142C81.8386 33.154 80.7886 33.16 79.6006 33.16H78.1606V31.18ZM78.1606 21.892H86.1886V23.836H80.5366V31.936H78.1606V21.892ZM99.9032 29.794H102.279V33.592H99.9032V29.794ZM101.091 21.28C102.279 21.28 103.341 21.472 104.277 21.856C105.225 22.228 105.969 22.756 106.509 23.44C107.049 24.124 107.319 24.934 107.319 25.87C107.319 26.794 107.049 27.604 106.509 28.3C105.969 28.996 105.225 29.536 104.277 29.92C103.341 30.292 102.279 30.478 101.091 30.478C99.9152 30.478 98.8532 30.292 97.9052 29.92C96.9692 29.536 96.2252 28.996 95.6732 28.3C95.1332 27.604 94.8632 26.794 94.8632 25.87C94.8632 24.934 95.1332 24.124 95.6732 23.44C96.2252 22.756 96.9692 22.228 97.9052 21.856C98.8532 21.472 99.9152 21.28 101.091 21.28ZM101.091 23.17C100.335 23.17 99.6632 23.278 99.0752 23.494C98.4992 23.71 98.0432 24.016 97.7072 24.412C97.3832 24.808 97.2212 25.294 97.2212 25.87C97.2212 26.434 97.3832 26.92 97.7072 27.328C98.0432 27.724 98.4992 28.03 99.0752 28.246C99.6632 28.462 100.335 28.57 101.091 28.57C101.859 28.57 102.531 28.462 103.107 28.246C103.695 28.03 104.151 27.724 104.475 27.328C104.799 26.92 104.961 26.434 104.961 25.87C104.961 25.294 104.799 24.808 104.475 24.412C104.151 24.016 103.695 23.71 103.107 23.494C102.531 23.278 101.859 23.17 101.091 23.17ZM93.5672 33.214H108.669V35.158H93.5672V33.214ZM116.282 29.794H118.676V32.332H116.282V29.794ZM109.964 28.354H125.048V30.262H109.964V28.354ZM111.638 31.666H123.23V37.102H120.836V33.556H111.638V31.666ZM111.89 20.848H114.248V22.306H120.764V20.848H123.14V27.274H111.89V20.848ZM114.248 24.106V25.402H120.764V24.106H114.248Z" fill="#1E293B"/>
</svg>
