<svg width="320" height="57" viewBox="0 0 320 57" fill="none" xmlns="http://www.w3.org/2000/svg">
<path d="M26 38.5V20.5C26 19.95 26.1958 19.4792 26.5875 19.0875C26.9792 18.6958 27.45 18.5 28 18.5H44C44.55 18.5 45.0208 18.6958 45.4125 19.0875C45.8042 19.4792 46 19.95 46 20.5V32.5C46 33.05 45.8042 33.5208 45.4125 33.9125C45.0208 34.3042 44.55 34.5 44 34.5H30L26 38.5ZM29.15 32.5H44V20.5H28V33.625L29.15 32.5Z" fill="#1D1B20"/>
<path d="M61.296 35.5V22.09H63.204L70.584 32.026L69.594 32.224V22.09H72.042V35.5H70.116L62.844 25.492L63.744 25.294V35.5H61.296ZM78.9398 35.716C77.9318 35.716 77.0498 35.488 76.2938 35.032C75.5378 34.576 74.9498 33.958 74.5298 33.178C74.1098 32.398 73.8998 31.534 73.8998 30.586C73.8998 29.602 74.1098 28.732 74.5298 27.976C74.9618 27.208 75.5438 26.602 76.2758 26.158C77.0198 25.714 77.8478 25.492 78.7598 25.492C79.5278 25.492 80.1998 25.618 80.7758 25.87C81.3638 26.122 81.8618 26.47 82.2698 26.914C82.6778 27.358 82.9898 27.868 83.2058 28.444C83.4218 29.008 83.5298 29.62 83.5298 30.28C83.5298 30.448 83.5178 30.622 83.4938 30.802C83.4818 30.982 83.4518 31.138 83.4038 31.27H75.8438V29.47H82.0718L80.9558 30.316C81.0638 29.764 81.0338 29.272 80.8658 28.84C80.7098 28.408 80.4458 28.066 80.0738 27.814C79.7138 27.562 79.2758 27.436 78.7598 27.436C78.2678 27.436 77.8298 27.562 77.4458 27.814C77.0618 28.054 76.7678 28.414 76.5638 28.894C76.3718 29.362 76.2998 29.932 76.3478 30.604C76.2998 31.204 76.3778 31.738 76.5818 32.206C76.7978 32.662 77.1098 33.016 77.5178 33.268C77.9378 33.52 78.4178 33.646 78.9578 33.646C79.4978 33.646 79.9538 33.532 80.3258 33.304C80.7098 33.076 81.0098 32.77 81.2258 32.386L83.1338 33.322C82.9418 33.79 82.6418 34.204 82.2338 34.564C81.8258 34.924 81.3398 35.206 80.7758 35.41C80.2238 35.614 79.6118 35.716 78.9398 35.716ZM87.6393 35.5L84.2733 25.708H86.7573L89.2233 33.142L88.3593 33.124L90.9873 25.708H93.0753L95.6853 33.124L94.8213 33.142L97.2873 25.708H99.7713L96.4053 35.5H94.2993L91.6353 27.742H92.4273L89.7273 35.5H87.6393ZM110.473 35.716C109.513 35.716 108.625 35.542 107.809 35.194C107.005 34.846 106.297 34.36 105.685 33.736C105.085 33.112 104.617 32.38 104.281 31.54C103.945 30.7 103.777 29.782 103.777 28.786C103.777 27.79 103.939 26.872 104.263 26.032C104.599 25.18 105.067 24.448 105.667 23.836C106.279 23.212 106.993 22.732 107.809 22.396C108.625 22.048 109.513 21.874 110.473 21.874C111.433 21.874 112.291 22.036 113.047 22.36C113.815 22.684 114.463 23.116 114.991 23.656C115.519 24.184 115.897 24.766 116.125 25.402L113.929 26.428C113.677 25.756 113.251 25.204 112.651 24.772C112.051 24.328 111.325 24.106 110.473 24.106C109.633 24.106 108.889 24.304 108.241 24.7C107.605 25.096 107.107 25.642 106.747 26.338C106.399 27.034 106.225 27.85 106.225 28.786C106.225 29.722 106.399 30.544 106.747 31.252C107.107 31.948 107.605 32.494 108.241 32.89C108.889 33.286 109.633 33.484 110.473 33.484C111.325 33.484 112.051 33.268 112.651 32.836C113.251 32.392 113.677 31.834 113.929 31.162L116.125 32.188C115.897 32.824 115.519 33.412 114.991 33.952C114.463 34.48 113.815 34.906 113.047 35.23C112.291 35.554 111.433 35.716 110.473 35.716ZM117.771 35.5V21.874H120.129V27.634L119.805 27.292C120.033 26.704 120.405 26.26 120.921 25.96C121.449 25.648 122.061 25.492 122.757 25.492C123.477 25.492 124.113 25.648 124.665 25.96C125.229 26.272 125.667 26.71 125.979 27.274C126.291 27.826 126.447 28.468 126.447 29.2V35.5H124.089V29.758C124.089 29.326 124.005 28.954 123.837 28.642C123.669 28.33 123.435 28.09 123.135 27.922C122.847 27.742 122.505 27.652 122.109 27.652C121.725 27.652 121.383 27.742 121.083 27.922C120.783 28.09 120.549 28.33 120.381 28.642C120.213 28.954 120.129 29.326 120.129 29.758V35.5H117.771ZM131.267 35.716C130.583 35.716 129.989 35.602 129.485 35.374C128.981 35.146 128.591 34.822 128.315 34.402C128.039 33.97 127.901 33.472 127.901 32.908C127.901 32.368 128.021 31.888 128.261 31.468C128.501 31.036 128.873 30.676 129.377 30.388C129.881 30.1 130.517 29.896 131.285 29.776L134.489 29.254V31.054L131.735 31.522C131.267 31.606 130.919 31.756 130.691 31.972C130.463 32.188 130.349 32.47 130.349 32.818C130.349 33.154 130.475 33.424 130.727 33.628C130.991 33.82 131.315 33.916 131.699 33.916C132.191 33.916 132.623 33.814 132.995 33.61C133.379 33.394 133.673 33.1 133.877 32.728C134.093 32.356 134.201 31.948 134.201 31.504V28.984C134.201 28.564 134.033 28.216 133.697 27.94C133.373 27.652 132.941 27.508 132.401 27.508C131.897 27.508 131.447 27.646 131.051 27.922C130.667 28.186 130.385 28.54 130.205 28.984L128.279 28.048C128.471 27.532 128.771 27.088 129.179 26.716C129.599 26.332 130.091 26.032 130.655 25.816C131.219 25.6 131.831 25.492 132.491 25.492C133.295 25.492 134.003 25.642 134.615 25.942C135.227 26.23 135.701 26.638 136.037 27.166C136.385 27.682 136.559 28.288 136.559 28.984V35.5H134.327V33.826L134.831 33.79C134.579 34.21 134.279 34.564 133.931 34.852C133.583 35.128 133.187 35.344 132.743 35.5C132.299 35.644 131.807 35.716 131.267 35.716ZM142.882 35.608C141.778 35.608 140.92 35.308 140.308 34.708C139.708 34.096 139.408 33.238 139.408 32.134V27.814H137.716V25.708H137.896C138.376 25.708 138.748 25.582 139.012 25.33C139.276 25.078 139.408 24.712 139.408 24.232V23.476H141.766V25.708H144.016V27.814H141.766V32.008C141.766 32.332 141.82 32.608 141.928 32.836C142.048 33.064 142.228 33.238 142.468 33.358C142.72 33.478 143.038 33.538 143.422 33.538C143.506 33.538 143.602 33.532 143.71 33.52C143.83 33.508 143.944 33.496 144.052 33.484V35.5C143.884 35.524 143.692 35.548 143.476 35.572C143.26 35.596 143.062 35.608 142.882 35.608Z" fill="#1E293B"/>
</svg>
