<svg width="320" height="56" viewBox="0 0 320 56" fill="none" xmlns="http://www.w3.org/2000/svg">
<path d="M46.0847 34.1621L42.9731 19.3684C42.9227 19.1265 42.8251 18.897 42.6857 18.693C42.5463 18.489 42.368 18.3146 42.161 18.1797C41.9541 18.0449 41.7224 17.9523 41.4795 17.9072C41.2366 17.8621 40.9872 17.8655 40.7456 17.9171L36.3572 18.8603C35.9537 18.9478 35.5909 19.1671 35.3259 19.4837C35.156 19.2202 34.9227 19.0036 34.6474 18.8535C34.3721 18.7035 34.0635 18.6249 33.75 18.625H29.25C28.7527 18.625 28.2758 18.8225 27.9242 19.1741C27.5725 19.5258 27.375 20.0027 27.375 20.5V35.5C27.375 35.9972 27.5725 36.4742 27.9242 36.8258C28.2758 37.1774 28.7527 37.375 29.25 37.375H33.75C34.2473 37.375 34.7242 37.1774 35.0758 36.8258C35.4275 36.4742 35.625 35.9972 35.625 35.5V24.4609L38.0269 35.8815C38.1144 36.3027 38.3441 36.681 38.6775 36.9529C39.0109 37.2248 39.4276 37.3738 39.8578 37.375C39.9911 37.3748 40.124 37.3607 40.2544 37.3328L44.6428 36.3896C45.1283 36.2835 45.5522 35.9899 45.8223 35.5727C46.0923 35.1555 46.1866 34.6485 46.0847 34.1621ZM37.8928 24.3109L41.5491 23.5253L41.7863 24.6503L38.13 25.4359L37.8928 24.3109ZM38.5922 27.639L42.2484 26.8534L43.1072 30.939L39.4509 31.7246L38.5922 27.639ZM40.8478 20.1962L41.085 21.3212L37.4288 22.1068L37.1916 20.9818L40.8478 20.1962ZM29.625 24.25H33.375V31.75H29.625V24.25ZM33.375 20.875V22H29.625V20.875H33.375ZM29.625 35.125V34H33.375V35.125H29.625ZM40.1522 35.0537L39.915 33.9287L43.5712 33.1431L43.8084 34.2681L40.1522 35.0537Z" fill="#475569"/>
<path d="M61.296 35V21.59H63.744V27.44H69.45V21.59H71.916V35H69.45V29.6H63.744V35H61.296ZM74.1552 35V25.208H76.5132V35H74.1552ZM74.1552 24.11V21.59H76.5132V24.11H74.1552ZM82.2723 35.216C81.2283 35.216 80.3163 34.97 79.5363 34.478C78.7683 33.974 78.2403 33.296 77.9523 32.444L79.7163 31.598C79.9683 32.15 80.3163 32.582 80.7603 32.894C81.2163 33.206 81.7203 33.362 82.2723 33.362C82.7043 33.362 83.0463 33.266 83.2983 33.074C83.5503 32.882 83.6763 32.63 83.6763 32.318C83.6763 32.126 83.6223 31.97 83.5143 31.85C83.4183 31.718 83.2803 31.61 83.1003 31.526C82.9323 31.43 82.7463 31.352 82.5423 31.292L80.9403 30.842C80.1123 30.602 79.4823 30.236 79.0503 29.744C78.6303 29.252 78.4203 28.67 78.4203 27.998C78.4203 27.398 78.5703 26.876 78.8703 26.432C79.1823 25.976 79.6083 25.622 80.1483 25.37C80.7003 25.118 81.3303 24.992 82.0383 24.992C82.9623 24.992 83.7783 25.214 84.4863 25.658C85.1943 26.102 85.6983 26.726 85.9983 27.53L84.1983 28.376C84.0303 27.932 83.7483 27.578 83.3523 27.314C82.9563 27.05 82.5123 26.918 82.0203 26.918C81.6243 26.918 81.3123 27.008 81.0843 27.188C80.8563 27.368 80.7423 27.602 80.7423 27.89C80.7423 28.07 80.7903 28.226 80.8863 28.358C80.9823 28.49 81.1143 28.598 81.2823 28.682C81.4623 28.766 81.6663 28.844 81.8943 28.916L83.4603 29.384C84.2643 29.624 84.8823 29.984 85.3143 30.464C85.7583 30.944 85.9803 31.532 85.9803 32.228C85.9803 32.816 85.8243 33.338 85.5123 33.794C85.2003 34.238 84.7683 34.586 84.2163 34.838C83.6643 35.09 83.0163 35.216 82.2723 35.216ZM92.1124 35.108C91.0084 35.108 90.1504 34.808 89.5384 34.208C88.9384 33.596 88.6384 32.738 88.6384 31.634V27.314H86.9464V25.208H87.1264C87.6064 25.208 87.9784 25.082 88.2424 24.83C88.5064 24.578 88.6384 24.212 88.6384 23.732V22.976H90.9964V25.208H93.2464V27.314H90.9964V31.508C90.9964 31.832 91.0504 32.108 91.1584 32.336C91.2784 32.564 91.4584 32.738 91.6984 32.858C91.9504 32.978 92.2684 33.038 92.6524 33.038C92.7364 33.038 92.8324 33.032 92.9404 33.02C93.0604 33.008 93.1744 32.996 93.2824 32.984V35C93.1144 35.024 92.9224 35.048 92.7064 35.072C92.4904 35.096 92.2924 35.108 92.1124 35.108ZM99.6401 35.216C98.6801 35.216 97.8041 34.994 97.0121 34.55C96.2321 34.106 95.6081 33.5 95.1401 32.732C94.6841 31.964 94.4561 31.088 94.4561 30.104C94.4561 29.12 94.6841 28.244 95.1401 27.476C95.6081 26.708 96.2321 26.102 97.0121 25.658C97.7921 25.214 98.6681 24.992 99.6401 24.992C100.6 24.992 101.47 25.214 102.25 25.658C103.03 26.102 103.648 26.708 104.104 27.476C104.572 28.232 104.806 29.108 104.806 30.104C104.806 31.088 104.572 31.964 104.104 32.732C103.636 33.5 103.012 34.106 102.232 34.55C101.452 34.994 100.588 35.216 99.6401 35.216ZM99.6401 33.056C100.168 33.056 100.63 32.93 101.026 32.678C101.434 32.426 101.752 32.078 101.98 31.634C102.22 31.178 102.34 30.668 102.34 30.104C102.34 29.528 102.22 29.024 101.98 28.592C101.752 28.148 101.434 27.8 101.026 27.548C100.63 27.284 100.168 27.152 99.6401 27.152C99.1001 27.152 98.6261 27.284 98.2181 27.548C97.8101 27.8 97.4861 28.148 97.2461 28.592C97.0181 29.024 96.9041 29.528 96.9041 30.104C96.9041 30.668 97.0181 31.178 97.2461 31.634C97.4861 32.078 97.8101 32.426 98.2181 32.678C98.6261 32.93 99.1001 33.056 99.6401 33.056ZM106.45 35V25.208H108.664V27.386L108.484 27.062C108.712 26.33 109.066 25.82 109.546 25.532C110.038 25.244 110.626 25.1 111.31 25.1H111.886V27.188H111.04C110.368 27.188 109.828 27.398 109.42 27.818C109.012 28.226 108.808 28.802 108.808 29.546V35H106.45ZM114.227 38.96C113.963 38.96 113.705 38.936 113.453 38.888C113.201 38.852 112.973 38.78 112.769 38.672V36.71C112.925 36.746 113.111 36.782 113.327 36.818C113.555 36.854 113.765 36.872 113.957 36.872C114.497 36.872 114.887 36.746 115.127 36.494C115.379 36.254 115.601 35.93 115.793 35.522L116.441 34.01L116.405 35.99L112.139 25.208H114.677L117.665 33.164H116.765L119.735 25.208H122.291L118.025 35.99C117.773 36.614 117.467 37.148 117.107 37.592C116.747 38.036 116.327 38.372 115.847 38.6C115.379 38.84 114.839 38.96 114.227 38.96Z" fill="#1E293B"/>
<path d="M292.296 31.796C292.191 31.9009 292.067 31.9841 291.93 32.0409C291.794 32.0976 291.647 32.1269 291.499 32.1269C291.351 32.1269 291.204 32.0976 291.068 32.0409C290.931 31.9841 290.807 31.9009 290.702 31.796L284 25.0938L277.296 31.796C277.085 32.0073 276.798 32.1261 276.499 32.1261C276.2 32.1261 275.913 32.0073 275.702 31.796C275.491 31.5846 275.372 31.298 275.372 30.9991C275.372 30.7002 275.491 30.4136 275.702 30.2022L283.202 22.7022C283.307 22.5973 283.431 22.5141 283.568 22.4573C283.704 22.4006 283.851 22.3713 283.999 22.3713C284.147 22.3713 284.294 22.4006 284.43 22.4573C284.567 22.5141 284.691 22.5973 284.796 22.7022L292.296 30.2022C292.401 30.3067 292.484 30.4309 292.541 30.5677C292.598 30.7044 292.627 30.851 292.627 30.9991C292.627 31.1472 292.598 31.2938 292.541 31.4305C292.484 31.5673 292.401 31.6915 292.296 31.796Z" fill="#94A3B8"/>
</svg>
