<svg width="320" height="57" viewBox="0 0 320 57" fill="none" xmlns="http://www.w3.org/2000/svg">
<path d="M46.0847 34.6622L42.9731 19.8685C42.9227 19.6266 42.8251 19.3971 42.6857 19.1931C42.5463 18.9891 42.368 18.8147 42.161 18.6798C41.9541 18.5449 41.7224 18.4523 41.4795 18.4073C41.2366 18.3622 40.9872 18.3656 40.7456 18.4172L36.3572 19.3603C35.9537 19.4478 35.5909 19.6672 35.3259 19.9838C35.156 19.7203 34.9227 19.5036 34.6474 19.3536C34.3721 19.2036 34.0635 19.125 33.75 19.125H29.25C28.7527 19.125 28.2758 19.3226 27.9242 19.6742C27.5725 20.0258 27.375 20.5027 27.375 21V36C27.375 36.4973 27.5725 36.9742 27.9242 37.3258C28.2758 37.6775 28.7527 37.875 29.25 37.875H33.75C34.2473 37.875 34.7242 37.6775 35.0758 37.3258C35.4275 36.9742 35.625 36.4973 35.625 36V24.961L38.0269 36.3816C38.1144 36.8028 38.3441 37.1811 38.6775 37.453C39.0109 37.7249 39.4276 37.8739 39.8578 37.875C39.9911 37.8749 40.124 37.8608 40.2544 37.8328L44.6428 36.8897C45.1283 36.7836 45.5522 36.49 45.8223 36.0728C46.0923 35.6556 46.1866 35.1486 46.0847 34.6622ZM37.8928 24.811L41.5491 24.0253L41.7863 25.1503L38.13 25.936L37.8928 24.811ZM38.5922 28.1391L42.2484 27.3535L43.1072 31.4391L39.4509 32.2247L38.5922 28.1391ZM40.8478 20.6963L41.085 21.8213L37.4288 22.6069L37.1916 21.4819L40.8478 20.6963ZM29.625 24.75H33.375V32.25H29.625V24.75ZM33.375 21.375V22.5H29.625V21.375H33.375ZM29.625 35.625V34.5H33.375V35.625H29.625ZM40.1522 35.5538L39.915 34.4288L43.5712 33.6431L43.8084 34.7681L40.1522 35.5538Z" fill="#475569"/>
<path d="M61.296 35.5V22.09H63.744V27.94H69.45V22.09H71.916V35.5H69.45V30.1H63.744V35.5H61.296ZM74.1552 35.5V25.708H76.5132V35.5H74.1552ZM74.1552 24.61V22.09H76.5132V24.61H74.1552ZM82.2723 35.716C81.2283 35.716 80.3163 35.47 79.5363 34.978C78.7683 34.474 78.2403 33.796 77.9523 32.944L79.7163 32.098C79.9683 32.65 80.3163 33.082 80.7603 33.394C81.2163 33.706 81.7203 33.862 82.2723 33.862C82.7043 33.862 83.0463 33.766 83.2983 33.574C83.5503 33.382 83.6763 33.13 83.6763 32.818C83.6763 32.626 83.6223 32.47 83.5143 32.35C83.4183 32.218 83.2803 32.11 83.1003 32.026C82.9323 31.93 82.7463 31.852 82.5423 31.792L80.9403 31.342C80.1123 31.102 79.4823 30.736 79.0503 30.244C78.6303 29.752 78.4203 29.17 78.4203 28.498C78.4203 27.898 78.5703 27.376 78.8703 26.932C79.1823 26.476 79.6083 26.122 80.1483 25.87C80.7003 25.618 81.3303 25.492 82.0383 25.492C82.9623 25.492 83.7783 25.714 84.4863 26.158C85.1943 26.602 85.6983 27.226 85.9983 28.03L84.1983 28.876C84.0303 28.432 83.7483 28.078 83.3523 27.814C82.9563 27.55 82.5123 27.418 82.0203 27.418C81.6243 27.418 81.3123 27.508 81.0843 27.688C80.8563 27.868 80.7423 28.102 80.7423 28.39C80.7423 28.57 80.7903 28.726 80.8863 28.858C80.9823 28.99 81.1143 29.098 81.2823 29.182C81.4623 29.266 81.6663 29.344 81.8943 29.416L83.4603 29.884C84.2643 30.124 84.8823 30.484 85.3143 30.964C85.7583 31.444 85.9803 32.032 85.9803 32.728C85.9803 33.316 85.8243 33.838 85.5123 34.294C85.2003 34.738 84.7683 35.086 84.2163 35.338C83.6643 35.59 83.0163 35.716 82.2723 35.716ZM92.1124 35.608C91.0084 35.608 90.1504 35.308 89.5384 34.708C88.9384 34.096 88.6384 33.238 88.6384 32.134V27.814H86.9464V25.708H87.1264C87.6064 25.708 87.9784 25.582 88.2424 25.33C88.5064 25.078 88.6384 24.712 88.6384 24.232V23.476H90.9964V25.708H93.2464V27.814H90.9964V32.008C90.9964 32.332 91.0504 32.608 91.1584 32.836C91.2784 33.064 91.4584 33.238 91.6984 33.358C91.9504 33.478 92.2684 33.538 92.6524 33.538C92.7364 33.538 92.8324 33.532 92.9404 33.52C93.0604 33.508 93.1744 33.496 93.2824 33.484V35.5C93.1144 35.524 92.9224 35.548 92.7064 35.572C92.4904 35.596 92.2924 35.608 92.1124 35.608ZM99.6401 35.716C98.6801 35.716 97.8041 35.494 97.0121 35.05C96.2321 34.606 95.6081 34 95.1401 33.232C94.6841 32.464 94.4561 31.588 94.4561 30.604C94.4561 29.62 94.6841 28.744 95.1401 27.976C95.6081 27.208 96.2321 26.602 97.0121 26.158C97.7921 25.714 98.6681 25.492 99.6401 25.492C100.6 25.492 101.47 25.714 102.25 26.158C103.03 26.602 103.648 27.208 104.104 27.976C104.572 28.732 104.806 29.608 104.806 30.604C104.806 31.588 104.572 32.464 104.104 33.232C103.636 34 103.012 34.606 102.232 35.05C101.452 35.494 100.588 35.716 99.6401 35.716ZM99.6401 33.556C100.168 33.556 100.63 33.43 101.026 33.178C101.434 32.926 101.752 32.578 101.98 32.134C102.22 31.678 102.34 31.168 102.34 30.604C102.34 30.028 102.22 29.524 101.98 29.092C101.752 28.648 101.434 28.3 101.026 28.048C100.63 27.784 100.168 27.652 99.6401 27.652C99.1001 27.652 98.6261 27.784 98.2181 28.048C97.8101 28.3 97.4861 28.648 97.2461 29.092C97.0181 29.524 96.9041 30.028 96.9041 30.604C96.9041 31.168 97.0181 31.678 97.2461 32.134C97.4861 32.578 97.8101 32.926 98.2181 33.178C98.6261 33.43 99.1001 33.556 99.6401 33.556ZM106.45 35.5V25.708H108.664V27.886L108.484 27.562C108.712 26.83 109.066 26.32 109.546 26.032C110.038 25.744 110.626 25.6 111.31 25.6H111.886V27.688H111.04C110.368 27.688 109.828 27.898 109.42 28.318C109.012 28.726 108.808 29.302 108.808 30.046V35.5H106.45ZM114.227 39.46C113.963 39.46 113.705 39.436 113.453 39.388C113.201 39.352 112.973 39.28 112.769 39.172V37.21C112.925 37.246 113.111 37.282 113.327 37.318C113.555 37.354 113.765 37.372 113.957 37.372C114.497 37.372 114.887 37.246 115.127 36.994C115.379 36.754 115.601 36.43 115.793 36.022L116.441 34.51L116.405 36.49L112.139 25.708H114.677L117.665 33.664H116.765L119.735 25.708H122.291L118.025 36.49C117.773 37.114 117.467 37.648 117.107 38.092C116.747 38.536 116.327 38.872 115.847 39.1C115.379 39.34 114.839 39.46 114.227 39.46Z" fill="#1E293B"/>
<path d="M292.296 26.2959L284.796 33.7959C284.691 33.9008 284.567 33.984 284.43 34.0408C284.294 34.0976 284.147 34.1268 283.999 34.1268C283.851 34.1268 283.704 34.0976 283.568 34.0408C283.431 33.984 283.307 33.9008 283.202 33.7959L275.702 26.2959C275.491 26.0846 275.372 25.7979 275.372 25.499C275.372 25.2002 275.491 24.9135 275.702 24.7022C275.913 24.4908 276.2 24.3721 276.499 24.3721C276.798 24.3721 277.085 24.4908 277.296 24.7022L284 31.4062L290.704 24.7012C290.915 24.4899 291.202 24.3712 291.501 24.3712C291.8 24.3712 292.086 24.4899 292.298 24.7012C292.509 24.9126 292.628 25.1992 292.628 25.4981C292.628 25.797 292.509 26.0836 292.298 26.295L292.296 26.2959Z" fill="#94A3B8"/>
</svg>
