<svg width="40" height="40" viewBox="0 0 40 40" fill="none" xmlns="http://www.w3.org/2000/svg">
<rect width="40" height="40" rx="20" fill="#EEF2FF"/>
<path d="M22.625 16.25H17.375C17.0766 16.25 16.7905 16.3685 16.5795 16.5795C16.3685 16.7905 16.25 17.0766 16.25 17.375V22.625C16.25 22.9234 16.3685 23.2095 16.5795 23.4205C16.7905 23.6315 17.0766 23.75 17.375 23.75H22.625C22.9234 23.75 23.2095 23.6315 23.4205 23.4205C23.6315 23.2095 23.75 22.9234 23.75 22.625V17.375C23.75 17.0766 23.6315 16.7905 23.4205 16.5795C23.2095 16.3685 22.9234 16.25 22.625 16.25ZM21.5 21.5H18.5V18.5H21.5V21.5ZM29.75 21.125H28.625V18.875H29.75C30.0484 18.875 30.3345 18.7565 30.5455 18.5455C30.7565 18.3345 30.875 18.0484 30.875 17.75C30.875 17.4516 30.7565 17.1655 30.5455 16.9545C30.3345 16.7435 30.0484 16.625 29.75 16.625H28.625V13.25C28.625 12.7527 28.4275 12.2758 28.0758 11.9242C27.7242 11.5725 27.2473 11.375 26.75 11.375H23.375V10.25C23.375 9.95163 23.2565 9.66548 23.0455 9.4545C22.8345 9.24353 22.5484 9.125 22.25 9.125C21.9516 9.125 21.6655 9.24353 21.4545 9.4545C21.2435 9.66548 21.125 9.95163 21.125 10.25V11.375H18.875V10.25C18.875 9.95163 18.7565 9.66548 18.5455 9.4545C18.3345 9.24353 18.0484 9.125 17.75 9.125C17.4516 9.125 17.1655 9.24353 16.9545 9.4545C16.7435 9.66548 16.625 9.95163 16.625 10.25V11.375H13.25C12.7527 11.375 12.2758 11.5725 11.9242 11.9242C11.5725 12.2758 11.375 12.7527 11.375 13.25V16.625H10.25C9.95163 16.625 9.66548 16.7435 9.4545 16.9545C9.24353 17.1655 9.125 17.4516 9.125 17.75C9.125 18.0484 9.24353 18.3345 9.4545 18.5455C9.66548 18.7565 9.95163 18.875 10.25 18.875H11.375V21.125H10.25C9.95163 21.125 9.66548 21.2435 9.4545 21.4545C9.24353 21.6655 9.125 21.9516 9.125 22.25C9.125 22.5484 9.24353 22.8345 9.4545 23.0455C9.66548 23.2565 9.95163 23.375 10.25 23.375H11.375V26.75C11.375 27.2473 11.5725 27.7242 11.9242 28.0758C12.2758 28.4275 12.7527 28.625 13.25 28.625H16.625V29.75C16.625 30.0484 16.7435 30.3345 16.9545 30.5455C17.1655 30.7565 17.4516 30.875 17.75 30.875C18.0484 30.875 18.3345 30.7565 18.5455 30.5455C18.7565 30.3345 18.875 30.0484 18.875 29.75V28.625H21.125V29.75C21.125 30.0484 21.2435 30.3345 21.4545 30.5455C21.6655 30.7565 21.9516 30.875 22.25 30.875C22.5484 30.875 22.8345 30.7565 23.0455 30.5455C23.2565 30.3345 23.375 30.0484 23.375 29.75V28.625H26.75C27.2473 28.625 27.7242 28.4275 28.0758 28.0758C28.4275 27.7242 28.625 27.2473 28.625 26.75V23.375H29.75C30.0484 23.375 30.3345 23.2565 30.5455 23.0455C30.7565 22.8345 30.875 22.5484 30.875 22.25C30.875 21.9516 30.7565 21.6655 30.5455 21.4545C30.3345 21.2435 30.0484 21.125 29.75 21.125ZM26.375 26.375H13.625V13.625H26.375V26.375Z" fill="#4F46E5"/>
</svg>
