<svg width="50" height="50" viewBox="0 0 50 50" fill="none" xmlns="http://www.w3.org/2000/svg">
<rect width="50" height="50" rx="25" fill="#4F46E5"/>
<path d="M30.9853 24.2629L30.9853 24.2628L26.1581 19.4356L26.0781 19.3556V19.4688V33.25C26.0781 33.536 25.9645 33.8102 25.7623 34.0124C25.5601 34.2146 25.2859 34.3282 25 34.3282C24.714 34.3282 24.4398 34.2146 24.2376 34.0124C24.0354 33.8102 23.9218 33.536 23.9218 33.25V19.4688V19.3557L23.8418 19.4356L19.0128 24.2628L19.0128 24.2628C18.8102 24.4654 18.5355 24.5792 18.249 24.5792C17.9626 24.5792 17.6878 24.4654 17.4853 24.2628C17.2827 24.0603 17.1689 23.7856 17.1689 23.4991C17.1689 23.2126 17.2827 22.9379 17.4853 22.7354L24.2353 15.9854L24.2353 15.9853C24.3355 15.8848 24.4545 15.8051 24.5856 15.7506C24.7166 15.6962 24.8571 15.6682 24.999 15.6682C25.1409 15.6682 25.2814 15.6962 25.4125 15.7506C25.5435 15.8051 25.6625 15.8848 25.7627 15.9853L25.7628 15.9854L32.5128 22.7354L32.5128 22.7354C32.6133 22.8356 32.6931 22.9546 32.7475 23.0857C32.8019 23.2167 32.8299 23.3572 32.8299 23.4991C32.8299 23.641 32.8019 23.7815 32.7475 23.9125C32.6931 24.0436 32.6133 24.1626 32.5128 24.2628L32.5127 24.2629C32.4125 24.3634 32.2935 24.4431 32.1625 24.4976C32.0314 24.552 31.8909 24.58 31.749 24.58C31.6071 24.58 31.4666 24.552 31.3356 24.4976C31.2045 24.4431 31.0855 24.3634 30.9853 24.2629Z" fill="white" stroke="white" stroke-width="0.09375"/>
</svg>
