<svg width="24" height="24" viewBox="0 0 24 24" fill="none" xmlns="http://www.w3.org/2000/svg">
<path d="M15.4941 1.98932C15.3048 1.89682 15.0935 1.85928 14.884 1.88099C14.6745 1.90271 14.4753 1.98279 14.3091 2.11213L7.86375 7.12495H3.75C3.25272 7.12495 2.77581 7.32249 2.42417 7.67412C2.07254 8.02575 1.875 8.50267 1.875 8.99995V14.9999C1.875 15.4972 2.07254 15.9741 2.42417 16.3258C2.77581 16.6774 3.25272 16.8749 3.75 16.8749H7.86375L14.3091 21.8878C14.4753 22.0171 14.6745 22.0972 14.884 22.1189C15.0935 22.1407 15.3049 22.1031 15.4941 22.0106C15.6833 21.9181 15.8428 21.7743 15.9543 21.5956C16.0659 21.417 16.125 21.2106 16.125 20.9999V2.99995C16.125 2.78932 16.0658 2.58292 15.9543 2.40426C15.8428 2.22559 15.6833 2.08182 15.4941 1.98932ZM13.875 18.7003L8.94094 14.8621C8.74342 14.7084 8.50028 14.625 8.25 14.6249H4.125V9.37495H8.25C8.50028 9.37494 8.74342 9.29148 8.94094 9.13776L13.875 5.30057V18.7003ZM19.875 9.74995V14.2499C19.875 14.5483 19.7565 14.8345 19.5455 15.0454C19.3345 15.2564 19.0484 15.3749 18.75 15.3749C18.4516 15.3749 18.1655 15.2564 17.9545 15.0454C17.7435 14.8345 17.625 14.5483 17.625 14.2499V9.74995C17.625 9.45158 17.7435 9.16543 17.9545 8.95445C18.1655 8.74347 18.4516 8.62495 18.75 8.62495C19.0484 8.62495 19.3345 8.74347 19.5455 8.95445C19.7565 9.16543 19.875 9.45158 19.875 9.74995ZM23.25 8.24995V15.7499C23.25 16.0483 23.1315 16.3345 22.9205 16.5454C22.7095 16.7564 22.4234 16.8749 22.125 16.8749C21.8266 16.8749 21.5405 16.7564 21.3295 16.5454C21.1185 16.3345 21 16.0483 21 15.7499V8.24995C21 7.95158 21.1185 7.66543 21.3295 7.45445C21.5405 7.24347 21.8266 7.12495 22.125 7.12495C22.4234 7.12495 22.7095 7.24347 22.9205 7.45445C23.1315 7.66543 23.25 7.95158 23.25 8.24995Z" fill="#475569"/>
</svg>
