<svg width="24" height="24" viewBox="0 0 24 24" fill="none" xmlns="http://www.w3.org/2000/svg">
<path d="M1.87491 12C1.8769 10.1109 2.6282 8.29978 3.96397 6.96402C5.29973 5.62825 7.11085 4.87694 8.99991 4.87496H18.2812L17.9512 4.5459C17.8465 4.44125 17.7635 4.31702 17.7069 4.18029C17.6502 4.04356 17.6211 3.89702 17.6211 3.74902C17.6211 3.60103 17.6502 3.45448 17.7069 3.31776C17.7635 3.18103 17.8465 3.05679 17.9512 2.95215C18.0558 2.8475 18.18 2.76449 18.3168 2.70785C18.4535 2.65122 18.6 2.62207 18.748 2.62207C18.896 2.62207 19.0426 2.65122 19.1793 2.70785C19.316 2.76449 19.4403 2.8475 19.5449 2.95215L21.7949 5.20215C21.8998 5.30666 21.983 5.43086 22.0398 5.5676C22.0966 5.70435 22.1258 5.85096 22.1258 5.99902C22.1258 6.14709 22.0966 6.2937 22.0398 6.43044C21.983 6.56719 21.8998 6.69138 21.7949 6.7959L19.5449 9.0459C19.3336 9.25724 19.0469 9.37597 18.748 9.37597C18.4491 9.37597 18.1625 9.25724 17.9512 9.0459C17.7398 8.83455 17.6211 8.54791 17.6211 8.24902C17.6211 7.95014 17.7398 7.66349 17.9512 7.45215L18.2812 7.12496H8.99991C7.70744 7.12645 6.46833 7.64054 5.55441 8.55446C4.64049 9.46838 4.1264 10.7075 4.12491 12C4.12491 12.2983 4.00638 12.5845 3.79541 12.7955C3.58443 13.0064 3.29828 13.125 2.99991 13.125C2.70154 13.125 2.41539 13.0064 2.20442 12.7955C1.99344 12.5845 1.87491 12.2983 1.87491 12ZM20.9999 10.875C20.7015 10.875 20.4154 10.9935 20.2044 11.2045C19.9934 11.4154 19.8749 11.7016 19.8749 12C19.8734 13.2924 19.3593 14.5315 18.4454 15.4455C17.5315 16.3594 16.2924 16.8735 14.9999 16.875H5.71866L6.04866 16.5459C6.15331 16.4412 6.23632 16.317 6.29295 16.1803C6.34959 16.0436 6.37874 15.897 6.37874 15.749C6.37874 15.601 6.34959 15.4545 6.29295 15.3178C6.23632 15.181 6.15331 15.0568 6.04866 14.9521C5.94401 14.8475 5.81978 14.7645 5.68305 14.7079C5.54632 14.6512 5.39978 14.6221 5.25179 14.6221C5.10379 14.6221 4.95725 14.6512 4.82052 14.7079C4.68379 14.7645 4.55956 14.8475 4.45491 14.9521L2.20491 17.2021C2.10003 17.3067 2.01681 17.4309 1.96003 17.5676C1.90325 17.7043 1.87402 17.851 1.87402 17.999C1.87402 18.1471 1.90325 18.2937 1.96003 18.4304C2.01681 18.5672 2.10003 18.6914 2.20491 18.7959L4.45491 21.0459C4.55956 21.1505 4.68379 21.2336 4.82052 21.2902C4.95725 21.3468 5.10379 21.376 5.25179 21.376C5.39978 21.376 5.54632 21.3468 5.68305 21.2902C5.81978 21.2336 5.94401 21.1505 6.04866 21.0459C6.15331 20.9412 6.23632 20.817 6.29295 20.6803C6.34959 20.5436 6.37874 20.397 6.37874 20.249C6.37874 20.101 6.34959 19.9545 6.29295 19.8178C6.23632 19.681 6.15331 19.5568 6.04866 19.4521L5.71866 19.125H14.9999C16.889 19.123 18.7001 18.3717 20.0359 17.0359C21.3716 15.7001 22.1229 13.889 22.1249 12C22.1249 11.7016 22.0064 11.4154 21.7954 11.2045C21.5844 10.9935 21.2983 10.875 20.9999 10.875Z" fill="#475569"/>
</svg>
