<svg width="80" height="22" viewBox="0 0 80 22" fill="none" xmlns="http://www.w3.org/2000/svg">
<path d="M5.408 18.192C4.65067 18.192 3.94667 18.0533 3.296 17.776C2.656 17.4987 2.10133 17.1147 1.632 16.624C1.17333 16.1227 0.837333 15.5413 0.624 14.88L2.432 14.096C2.72 14.7787 3.136 15.3173 3.68 15.712C4.224 16.096 4.83733 16.288 5.52 16.288C5.904 16.288 6.23467 16.2293 6.512 16.112C6.8 15.984 7.01867 15.8133 7.168 15.6C7.328 15.3867 7.408 15.1307 7.408 14.832C7.408 14.48 7.30133 14.192 7.088 13.968C6.88533 13.7333 6.576 13.552 6.16 13.424L3.872 12.688C2.944 12.4 2.24533 11.968 1.776 11.392C1.30667 10.816 1.072 10.1387 1.072 9.36C1.072 8.67733 1.23733 8.07467 1.568 7.552C1.90933 7.02933 2.37867 6.624 2.976 6.336C3.584 6.03733 4.27733 5.888 5.056 5.888C5.77067 5.888 6.42667 6.016 7.024 6.272C7.62133 6.51733 8.13333 6.864 8.56 7.312C8.99733 7.74933 9.32267 8.26667 9.536 8.864L7.744 9.664C7.50933 9.06667 7.15733 8.608 6.688 8.288C6.21867 7.95733 5.67467 7.792 5.056 7.792C4.69333 7.792 4.37333 7.856 4.096 7.984C3.81867 8.10133 3.6 8.272 3.44 8.496C3.29067 8.70933 3.216 8.96533 3.216 9.264C3.216 9.59467 3.32267 9.888 3.536 10.144C3.74933 10.3893 4.07467 10.5813 4.512 10.72L6.704 11.408C7.65333 11.7173 8.36267 12.144 8.832 12.688C9.312 13.232 9.552 13.904 9.552 14.704C9.552 15.3867 9.376 15.9893 9.024 16.512C8.672 17.0347 8.18667 17.4453 7.568 17.744C6.94933 18.0427 6.22933 18.192 5.408 18.192ZM14.3274 18.192C13.6554 18.192 13.0687 18.0427 12.5674 17.744C12.0767 17.4453 11.698 17.0293 11.4314 16.496C11.1754 15.9627 11.0474 15.3387 11.0474 14.624V9.296H13.1434V14.448C13.1434 14.8107 13.2127 15.1307 13.3514 15.408C13.5007 15.6747 13.7087 15.888 13.9754 16.048C14.2527 16.1973 14.562 16.272 14.9034 16.272C15.2447 16.272 15.5487 16.1973 15.8154 16.048C16.082 15.888 16.29 15.6693 16.4394 15.392C16.5887 15.1147 16.6634 14.784 16.6634 14.4V9.296H18.7594V18H16.7754V16.288L16.9514 16.592C16.7487 17.1253 16.4127 17.5253 15.9434 17.792C15.4847 18.0587 14.946 18.192 14.3274 18.192ZM20.5957 18V9.296H22.5637V11.312L22.3397 10.976C22.4997 10.3467 22.8197 9.87733 23.2997 9.568C23.7797 9.25867 24.3451 9.104 24.9957 9.104C25.7104 9.104 26.3397 9.29067 26.8837 9.664C27.4277 10.0373 27.7797 10.528 27.9397 11.136L27.3477 11.184C27.6144 10.4907 28.0144 9.97333 28.5477 9.632C29.0811 9.28 29.6944 9.104 30.3877 9.104C31.0064 9.104 31.5557 9.24267 32.0357 9.52C32.5264 9.79733 32.9104 10.1867 33.1877 10.688C33.4651 11.1787 33.6037 11.7493 33.6037 12.4V18H31.5077V12.896C31.5077 12.512 31.4384 12.1813 31.2997 11.904C31.1611 11.6267 30.9691 11.4133 30.7237 11.264C30.4784 11.104 30.1797 11.024 29.8277 11.024C29.4971 11.024 29.2037 11.104 28.9477 11.264C28.6917 11.4133 28.4944 11.6267 28.3557 11.904C28.2171 12.1813 28.1477 12.512 28.1477 12.896V18H26.0517V12.896C26.0517 12.512 25.9824 12.1813 25.8437 11.904C25.7051 11.6267 25.5077 11.4133 25.2517 11.264C25.0064 11.104 24.7131 11.024 24.3717 11.024C24.0411 11.024 23.7477 11.104 23.4917 11.264C23.2357 11.4133 23.0384 11.6267 22.8997 11.904C22.7611 12.1813 22.6917 12.512 22.6917 12.896V18H20.5957ZM35.265 18V9.296H37.233V11.312L37.009 10.976C37.169 10.3467 37.489 9.87733 37.969 9.568C38.449 9.25867 39.0143 9.104 39.665 9.104C40.3797 9.104 41.009 9.29067 41.553 9.664C42.097 10.0373 42.449 10.528 42.609 11.136L42.017 11.184C42.2837 10.4907 42.6837 9.97333 43.217 9.632C43.7503 9.28 44.3637 9.104 45.057 9.104C45.6757 9.104 46.225 9.24267 46.705 9.52C47.1957 9.79733 47.5797 10.1867 47.857 10.688C48.1343 11.1787 48.273 11.7493 48.273 12.4V18H46.177V12.896C46.177 12.512 46.1077 12.1813 45.969 11.904C45.8303 11.6267 45.6383 11.4133 45.393 11.264C45.1477 11.104 44.849 11.024 44.497 11.024C44.1663 11.024 43.873 11.104 43.617 11.264C43.361 11.4133 43.1637 11.6267 43.025 11.904C42.8863 12.1813 42.817 12.512 42.817 12.896V18H40.721V12.896C40.721 12.512 40.6517 12.1813 40.513 11.904C40.3743 11.6267 40.177 11.4133 39.921 11.264C39.6757 11.104 39.3823 11.024 39.041 11.024C38.7103 11.024 38.417 11.104 38.161 11.264C37.905 11.4133 37.7077 11.6267 37.569 11.904C37.4303 12.1813 37.361 12.512 37.361 12.896V18H35.265ZM52.5742 18.192C51.9662 18.192 51.4382 18.0907 50.9902 17.888C50.5422 17.6853 50.1956 17.3973 49.9502 17.024C49.7049 16.64 49.5822 16.1973 49.5822 15.696C49.5822 15.216 49.6889 14.7893 49.9022 14.416C50.1156 14.032 50.4462 13.712 50.8942 13.456C51.3422 13.2 51.9076 13.0187 52.5902 12.912L55.4382 12.448V14.048L52.9902 14.464C52.5742 14.5387 52.2649 14.672 52.0622 14.864C51.8596 15.056 51.7582 15.3067 51.7582 15.616C51.7582 15.9147 51.8702 16.1547 52.0942 16.336C52.3289 16.5067 52.6169 16.592 52.9582 16.592C53.3956 16.592 53.7796 16.5013 54.1102 16.32C54.4516 16.128 54.7129 15.8667 54.8942 15.536C55.0862 15.2053 55.1822 14.8427 55.1822 14.448V12.208C55.1822 11.8347 55.0329 11.5253 54.7342 11.28C54.4462 11.024 54.0622 10.896 53.5822 10.896C53.1342 10.896 52.7342 11.0187 52.3822 11.264C52.0409 11.4987 51.7902 11.8133 51.6302 12.208L49.9182 11.376C50.0889 10.9173 50.3556 10.5227 50.7182 10.192C51.0916 9.85067 51.5289 9.584 52.0302 9.392C52.5316 9.2 53.0756 9.104 53.6622 9.104C54.3769 9.104 55.0062 9.23733 55.5502 9.504C56.0942 9.76 56.5156 10.1227 56.8142 10.592C57.1236 11.0507 57.2782 11.5893 57.2782 12.208V18H55.2942V16.512L55.7422 16.48C55.5182 16.8533 55.2516 17.168 54.9422 17.424C54.6329 17.6693 54.2809 17.8613 53.8862 18C53.4916 18.128 53.0542 18.192 52.5742 18.192ZM59.1035 18V9.296H61.0715V11.232L60.9115 10.944C61.1142 10.2933 61.4288 9.84 61.8555 9.584C62.2928 9.328 62.8155 9.2 63.4235 9.2H63.9355V11.056H63.1835C62.5862 11.056 62.1062 11.2427 61.7435 11.616C61.3808 11.9787 61.1995 12.4907 61.1995 13.152V18H59.1035ZM64.1759 18L68.2879 6.08H71.1039L75.2159 18H72.8479L71.9999 15.44H67.3919L66.5279 18H64.1759ZM68.0159 13.52H71.3759L69.3919 7.584H69.9999L68.0159 13.52ZM76.4305 18V6.08H78.6065V18H76.4305Z" fill="#1E293B"/>
</svg>
