<svg width="28" height="13" viewBox="0 0 28 13" fill="none" xmlns="http://www.w3.org/2000/svg">
<path d="M4.192 12V6.72L0.176 0.079999H2.656L5.728 5.264H4.848L7.904 0.079999H10.384L6.384 6.704V12H4.192ZM14.2137 12.192C13.3604 12.192 12.5817 11.9947 11.8777 11.6C11.1844 11.2053 10.6297 10.6667 10.2137 9.984C9.80842 9.30133 9.60575 8.52267 9.60575 7.648C9.60575 6.77333 9.80842 5.99467 10.2137 5.312C10.6297 4.62933 11.1844 4.09067 11.8777 3.696C12.5711 3.30133 13.3497 3.104 14.2137 3.104C15.0671 3.104 15.8404 3.30133 16.5338 3.696C17.2271 4.09067 17.7764 4.62933 18.1818 5.312C18.5978 5.984 18.8057 6.76267 18.8057 7.648C18.8057 8.52267 18.5978 9.30133 18.1818 9.984C17.7657 10.6667 17.2111 11.2053 16.5177 11.6C15.8244 11.9947 15.0564 12.192 14.2137 12.192ZM14.2137 10.272C14.6831 10.272 15.0937 10.16 15.4457 9.936C15.8084 9.712 16.0911 9.40267 16.2937 9.008C16.5071 8.60267 16.6137 8.14933 16.6137 7.648C16.6137 7.136 16.5071 6.688 16.2937 6.304C16.0911 5.90933 15.8084 5.6 15.4457 5.376C15.0937 5.14133 14.6831 5.024 14.2137 5.024C13.7337 5.024 13.3124 5.14133 12.9497 5.376C12.5871 5.6 12.2991 5.90933 12.0857 6.304C11.8831 6.688 11.7817 7.136 11.7817 7.648C11.7817 8.14933 11.8831 8.60267 12.0857 9.008C12.2991 9.40267 12.5871 9.712 12.9497 9.936C13.3124 10.16 13.7337 10.272 14.2137 10.272ZM23.3872 12.192C22.7152 12.192 22.1286 12.0427 21.6272 11.744C21.1366 11.4453 20.7579 11.0293 20.4912 10.496C20.2352 9.96267 20.1072 9.33867 20.1072 8.624V3.296H22.2032V8.448C22.2032 8.81067 22.2726 9.13067 22.4112 9.408C22.5606 9.67467 22.7686 9.888 23.0352 10.048C23.3126 10.1973 23.6219 10.272 23.9632 10.272C24.3046 10.272 24.6086 10.1973 24.8752 10.048C25.1419 9.888 25.3499 9.66933 25.4992 9.392C25.6486 9.11467 25.7232 8.784 25.7232 8.4V3.296H27.8192V12H25.8352V10.288L26.0112 10.592C25.8086 11.1253 25.4726 11.5253 25.0032 11.792C24.5446 12.0587 24.0059 12.192 23.3872 12.192Z" fill="#1E293B"/>
</svg>
