<svg width="520" height="193" viewBox="0 0 520 193" fill="none" xmlns="http://www.w3.org/2000/svg">
<mask id="path-1-inside-1_5160_1574" fill="white">
<path d="M0 0H520V102H0V0Z"/>
</mask>
<path d="M519 0V102H521V0H519ZM1 102V0H-1V102H1Z" fill="#E2E8F0" mask="url(#path-1-inside-1_5160_1574)"/>
<path d="M88.364 63V40.65H96.704C98.224 40.65 99.564 40.93 100.724 41.49C101.904 42.03 102.824 42.83 103.484 43.89C104.144 44.93 104.474 46.2 104.474 47.7C104.474 49.18 104.134 50.45 103.454 51.51C102.794 52.55 101.884 53.35 100.724 53.91C99.564 54.47 98.224 54.75 96.704 54.75H92.444V63H88.364ZM92.444 51.15H96.764C97.504 51.15 98.144 51.01 98.684 50.73C99.224 50.43 99.644 50.02 99.944 49.5C100.244 48.98 100.394 48.38 100.394 47.7C100.394 47 100.244 46.4 99.944 45.9C99.644 45.38 99.224 44.98 98.684 44.7C98.144 44.4 97.504 44.25 96.764 44.25H92.444V51.15ZM107.427 63V40.65H114.717C117.077 40.65 119.127 41.13 120.867 42.09C122.627 43.03 123.987 44.34 124.947 46.02C125.907 47.68 126.387 49.61 126.387 51.81C126.387 53.99 125.907 55.93 124.947 57.63C123.987 59.31 122.627 60.63 120.867 61.59C119.127 62.53 117.077 63 114.717 63H107.427ZM111.507 59.4H114.807C116.327 59.4 117.637 59.09 118.737 58.47C119.857 57.83 120.727 56.95 121.347 55.83C121.967 54.69 122.277 53.35 122.277 51.81C122.277 50.25 121.967 48.91 121.347 47.79C120.727 46.67 119.857 45.8 118.737 45.18C117.637 44.56 116.327 44.25 114.807 44.25H111.507V59.4ZM129.244 63V40.65H144.154V44.25H133.324V50.43H142.804V54.03H133.324V63H129.244ZM163.396 63.36C162.016 63.36 160.806 63.11 159.766 62.61C158.726 62.11 157.906 61.41 157.306 60.51C156.726 59.59 156.436 58.52 156.436 57.3C156.436 56.28 156.616 55.4 156.976 54.66C157.356 53.9 157.816 53.26 158.356 52.74C158.896 52.2 159.426 51.76 159.946 51.42C160.486 51.08 160.936 50.81 161.296 50.61L163.246 49.56C163.886 49.22 164.466 48.88 164.986 48.54C165.526 48.18 165.956 47.79 166.276 47.37C166.596 46.93 166.756 46.42 166.756 45.84C166.756 45.18 166.536 44.63 166.096 44.19C165.676 43.73 165.136 43.5 164.476 43.5C163.836 43.5 163.286 43.73 162.826 44.19C162.386 44.63 162.166 45.19 162.166 45.87C162.166 46.37 162.276 46.86 162.496 47.34C162.736 47.82 163.016 48.27 163.336 48.69C163.656 49.09 163.966 49.45 164.266 49.77L176.116 63H171.406L161.416 52.05C160.956 51.55 160.496 51.01 160.036 50.43C159.576 49.83 159.196 49.17 158.896 48.45C158.596 47.73 158.446 46.93 158.446 46.05C158.446 44.89 158.716 43.88 159.256 43.02C159.816 42.14 160.546 41.47 161.446 41.01C162.366 40.53 163.366 40.29 164.446 40.29C165.546 40.29 166.536 40.53 167.416 41.01C168.316 41.49 169.026 42.15 169.546 42.99C170.086 43.83 170.356 44.79 170.356 45.87C170.356 46.97 170.096 47.91 169.576 48.69C169.076 49.45 168.466 50.1 167.746 50.64C167.046 51.16 166.376 51.6 165.736 51.96L163.726 53.16C163.286 53.4 162.816 53.71 162.316 54.09C161.836 54.45 161.426 54.89 161.086 55.41C160.746 55.91 160.576 56.52 160.576 57.24C160.576 58.1 160.836 58.78 161.356 59.28C161.896 59.76 162.626 60 163.546 60C164.106 60 164.606 59.91 165.046 59.73C165.486 59.53 165.876 59.29 166.216 59.01C166.556 58.71 166.846 58.4 167.086 58.08C167.326 57.74 167.546 57.43 167.746 57.15L171.256 52.05H175.366L171.316 58.35C171.016 58.85 170.646 59.39 170.206 59.97C169.766 60.55 169.236 61.1 168.616 61.62C167.996 62.12 167.256 62.54 166.396 62.88C165.556 63.2 164.556 63.36 163.396 63.36ZM183.697 51.6H208.867V54.75H183.697V51.6ZM194.617 53.58H198.607V59.43H194.617V53.58ZM186.787 39.03H205.657V49.38H186.787V39.03ZM201.727 42.15H190.717V46.23H201.727V42.15ZM186.607 61.98H206.077V65.19H186.607V61.98ZM186.607 57.09H190.597V63.06H186.607V57.09ZM224.945 46.56H232.265V49.77H224.945V46.56ZM217.385 39.99H220.595V44.04C220.595 45.78 220.445 47.47 220.145 49.11C219.845 50.75 219.385 52.28 218.765 53.7C218.145 55.12 217.355 56.37 216.395 57.45C215.455 58.53 214.335 59.4 213.035 60.06L210.545 56.88C211.725 56.32 212.735 55.59 213.575 54.69C214.435 53.79 215.145 52.77 215.705 51.63C216.285 50.47 216.705 49.25 216.965 47.97C217.245 46.67 217.385 45.36 217.385 44.04V39.99ZM218.195 39.99H221.375V44.04C221.375 45.34 221.505 46.63 221.765 47.91C222.025 49.17 222.415 50.35 222.935 51.45C223.475 52.55 224.165 53.53 225.005 54.39C225.845 55.23 226.845 55.91 228.005 56.43L225.605 59.61C224.305 58.97 223.185 58.13 222.245 57.09C221.305 56.03 220.535 54.82 219.935 53.46C219.355 52.1 218.915 50.62 218.615 49.02C218.335 47.42 218.195 45.76 218.195 44.04V39.99ZM230.255 37.83H234.245V65.7H230.255V37.83ZM238.143 50.34H263.283V53.22H238.143V50.34ZM240.963 54.63H260.313V61.23H244.953V63.6H240.993V58.71H256.383V57.33H240.963V54.63ZM240.993 62.73H261.093V65.43H240.993V62.73ZM241.203 38.34H260.223V44.91H245.193V47.16H241.263V42.39H256.293V41.04H241.203V38.34ZM241.263 46.35H260.733V49.05H241.263V46.35ZM284.332 44.01H291.292V47.22H284.332V44.01ZM277.942 39.03C279.342 39.03 280.592 39.32 281.692 39.9C282.812 40.46 283.692 41.24 284.332 42.24C284.972 43.22 285.292 44.36 285.292 45.66C285.292 46.94 284.972 48.08 284.332 49.08C283.692 50.08 282.812 50.87 281.692 51.45C280.592 52.01 279.342 52.29 277.942 52.29C276.562 52.29 275.312 52.01 274.192 51.45C273.092 50.87 272.222 50.08 271.582 49.08C270.942 48.08 270.622 46.94 270.622 45.66C270.622 44.36 270.942 43.22 271.582 42.24C272.222 41.24 273.092 40.46 274.192 39.9C275.312 39.32 276.562 39.03 277.942 39.03ZM277.942 42.33C277.262 42.33 276.652 42.46 276.112 42.72C275.592 42.98 275.182 43.36 274.882 43.86C274.582 44.36 274.432 44.96 274.432 45.66C274.432 46.34 274.582 46.93 274.882 47.43C275.182 47.93 275.592 48.31 276.112 48.57C276.652 48.83 277.262 48.96 277.942 48.96C278.622 48.96 279.222 48.83 279.742 48.57C280.282 48.31 280.702 47.93 281.002 47.43C281.302 46.93 281.452 46.34 281.452 45.66C281.452 44.96 281.302 44.36 281.002 43.86C280.702 43.36 280.282 42.98 279.742 42.72C279.222 42.46 278.622 42.33 277.942 42.33ZM289.522 37.89H293.542V52.8H289.522V37.89ZM275.092 54.03H279.052V56.64H289.582V54.03H293.542V65.37H275.092V54.03ZM279.052 59.7V62.19H289.582V59.7H279.052ZM297.5 59.37H322.67V62.61H297.5V59.37ZM308.06 54.09H312.02V60.66H308.06V54.09ZM300.35 39.66H319.82V48.93H304.34V53.58H300.38V45.81H315.86V42.84H300.35V39.66ZM300.38 52.02H320.45V55.2H300.38V52.02ZM327.648 50.7H347.178V53.85H327.648V50.7ZM324.708 59.07H349.878V62.31H324.708V59.07ZM327.648 40.14H346.968V43.38H331.608V52.02H327.648V40.14ZM351.885 42.06H365.175V45.21H351.885V42.06ZM358.575 46.47C359.755 46.47 360.795 46.75 361.695 47.31C362.615 47.87 363.335 48.65 363.855 49.65C364.395 50.63 364.665 51.77 364.665 53.07C364.665 54.37 364.395 55.52 363.855 56.52C363.335 57.5 362.615 58.27 361.695 58.83C360.795 59.39 359.755 59.67 358.575 59.67C357.395 59.67 356.345 59.39 355.425 58.83C354.505 58.27 353.785 57.5 353.265 56.52C352.745 55.52 352.485 54.37 352.485 53.07C352.485 51.77 352.745 50.63 353.265 49.65C353.785 48.65 354.505 47.87 355.425 47.31C356.365 46.75 357.415 46.47 358.575 46.47ZM358.575 49.77C358.095 49.77 357.655 49.9 357.255 50.16C356.855 50.42 356.545 50.8 356.325 51.3C356.105 51.78 355.995 52.37 355.995 53.07C355.995 53.77 356.105 54.37 356.325 54.87C356.545 55.37 356.855 55.75 357.255 56.01C357.655 56.25 358.095 56.37 358.575 56.37C359.075 56.37 359.515 56.25 359.895 56.01C360.275 55.75 360.575 55.37 360.795 54.87C361.015 54.37 361.125 53.77 361.125 53.07C361.125 52.37 361.015 51.78 360.795 51.3C360.575 50.8 360.275 50.42 359.895 50.16C359.515 49.9 359.075 49.77 358.575 49.77ZM371.985 37.86H375.765V65.64H371.985V37.86ZM368.655 49.17H373.215V52.38H368.655V49.17ZM366.135 38.37H369.855V64.47H366.135V38.37ZM356.625 38.61H360.555V44.04H356.625V38.61ZM394.325 40.95H397.805V41.79C397.805 42.75 397.645 43.68 397.325 44.58C397.025 45.48 396.565 46.32 395.945 47.1C395.325 47.86 394.565 48.55 393.665 49.17C392.785 49.77 391.765 50.28 390.605 50.7C389.445 51.12 388.155 51.42 386.735 51.6L385.265 48.51C386.505 48.35 387.605 48.11 388.565 47.79C389.545 47.45 390.395 47.06 391.115 46.62C391.835 46.16 392.435 45.67 392.915 45.15C393.395 44.63 393.745 44.08 393.965 43.5C394.205 42.92 394.325 42.35 394.325 41.79V40.95ZM395.495 40.95H398.945V41.79C398.945 42.35 399.055 42.92 399.275 43.5C399.515 44.08 399.875 44.63 400.355 45.15C400.835 45.67 401.435 46.16 402.155 46.62C402.895 47.06 403.745 47.45 404.705 47.79C405.665 48.11 406.765 48.35 408.005 48.51L406.535 51.6C405.115 51.42 403.825 51.12 402.665 50.7C401.505 50.28 400.475 49.77 399.575 49.17C398.695 48.55 397.945 47.86 397.325 47.1C396.725 46.32 396.265 45.48 395.945 44.58C395.645 43.68 395.495 42.75 395.495 41.79V40.95ZM394.535 55.5H398.525V65.67H394.535V55.5ZM384.065 53.19H409.205V56.4H384.065V53.19ZM386.285 39.3H406.895V42.45H386.285V39.3ZM422.193 47.22H426.813V50.46H422.193V47.22ZM416.283 40.29H419.313V44.94C419.313 46.52 419.203 48.07 418.983 49.59C418.763 51.11 418.403 52.54 417.903 53.88C417.423 55.22 416.783 56.43 415.983 57.51C415.203 58.57 414.253 59.44 413.133 60.12L410.733 57.12C411.773 56.5 412.643 55.74 413.343 54.84C414.043 53.94 414.613 52.95 415.053 51.87C415.493 50.79 415.803 49.67 415.983 48.51C416.183 47.33 416.283 46.14 416.283 44.94V40.29ZM417.153 40.29H420.123V44.76C420.123 45.9 420.203 47.03 420.363 48.15C420.543 49.27 420.823 50.34 421.203 51.36C421.583 52.38 422.083 53.32 422.703 54.18C423.343 55.04 424.143 55.78 425.103 56.4L422.913 59.52C421.833 58.84 420.913 57.98 420.153 56.94C419.413 55.88 418.823 54.69 418.383 53.37C417.943 52.05 417.623 50.66 417.423 49.2C417.243 47.74 417.153 46.26 417.153 44.76V40.29ZM431.313 37.86H435.123V65.64H431.313V37.86ZM425.673 38.31H429.393V64.41H425.673V38.31ZM444 51.99H447.99V59.76H444V51.99ZM454.08 51.99H458.07V59.76H454.08V51.99ZM438.48 59.19H463.65V62.43H438.48V59.19ZM451.02 39.24C453.02 39.24 454.8 39.55 456.36 40.17C457.94 40.79 459.17 41.66 460.05 42.78C460.95 43.88 461.4 45.19 461.4 46.71C461.4 48.21 460.95 49.52 460.05 50.64C459.17 51.74 457.94 52.6 456.36 53.22C454.8 53.84 453.02 54.15 451.02 54.15C449.04 54.15 447.26 53.84 445.68 53.22C444.12 52.6 442.89 51.74 441.99 50.64C441.09 49.52 440.64 48.21 440.64 46.71C440.64 45.19 441.09 43.88 441.99 42.78C442.89 41.66 444.12 40.79 445.68 40.17C447.26 39.55 449.04 39.24 451.02 39.24ZM451.02 42.33C449.74 42.33 448.61 42.51 447.63 42.87C446.67 43.21 445.92 43.7 445.38 44.34C444.84 44.98 444.57 45.77 444.57 46.71C444.57 47.61 444.84 48.39 445.38 49.05C445.92 49.69 446.67 50.19 447.63 50.55C448.61 50.89 449.74 51.06 451.02 51.06C452.32 51.06 453.45 50.89 454.41 50.55C455.39 50.19 456.14 49.69 456.66 49.05C457.2 48.39 457.47 47.61 457.47 46.71C457.47 45.77 457.2 44.98 456.66 44.34C456.14 43.7 455.39 43.21 454.41 42.87C453.45 42.51 452.32 42.33 451.02 42.33ZM468.148 63V58.8H472.108V63H468.148Z" fill="#1E293B"/>
<path d="M157.836 130.6H183.006V133.75H157.836V130.6ZM168.756 132.58H172.746V138.43H168.756V132.58ZM160.926 118.03H179.796V128.38H160.926V118.03ZM175.866 121.15H164.856V125.23H175.866V121.15ZM160.746 140.98H180.216V144.19H160.746V140.98ZM160.746 136.09H164.736V142.06H160.746V136.09ZM199.084 125.56H206.404V128.77H199.084V125.56ZM191.524 118.99H194.734V123.04C194.734 124.78 194.584 126.47 194.284 128.11C193.984 129.75 193.524 131.28 192.904 132.7C192.284 134.12 191.494 135.37 190.534 136.45C189.594 137.53 188.474 138.4 187.174 139.06L184.684 135.88C185.864 135.32 186.874 134.59 187.714 133.69C188.574 132.79 189.284 131.77 189.844 130.63C190.424 129.47 190.844 128.25 191.104 126.97C191.384 125.67 191.524 124.36 191.524 123.04V118.99ZM192.334 118.99H195.514V123.04C195.514 124.34 195.644 125.63 195.904 126.91C196.164 128.17 196.554 129.35 197.074 130.45C197.614 131.55 198.304 132.53 199.144 133.39C199.984 134.23 200.984 134.91 202.144 135.43L199.744 138.61C198.444 137.97 197.324 137.13 196.384 136.09C195.444 135.03 194.674 133.82 194.074 132.46C193.494 131.1 193.054 129.62 192.754 128.02C192.474 126.42 192.334 124.76 192.334 123.04V118.99ZM204.394 116.83H208.384V144.7H204.394V116.83ZM231.264 123.01H238.224V126.22H231.264V123.01ZM224.874 118.03C226.274 118.03 227.524 118.32 228.624 118.9C229.744 119.46 230.624 120.24 231.264 121.24C231.904 122.22 232.224 123.36 232.224 124.66C232.224 125.94 231.904 127.08 231.264 128.08C230.624 129.08 229.744 129.87 228.624 130.45C227.524 131.01 226.274 131.29 224.874 131.29C223.494 131.29 222.244 131.01 221.124 130.45C220.024 129.87 219.154 129.08 218.514 128.08C217.874 127.08 217.554 125.94 217.554 124.66C217.554 123.36 217.874 122.22 218.514 121.24C219.154 120.24 220.024 119.46 221.124 118.9C222.244 118.32 223.494 118.03 224.874 118.03ZM224.874 121.33C224.194 121.33 223.584 121.46 223.044 121.72C222.524 121.98 222.114 122.36 221.814 122.86C221.514 123.36 221.364 123.96 221.364 124.66C221.364 125.34 221.514 125.93 221.814 126.43C222.114 126.93 222.524 127.31 223.044 127.57C223.584 127.83 224.194 127.96 224.874 127.96C225.554 127.96 226.154 127.83 226.674 127.57C227.214 127.31 227.634 126.93 227.934 126.43C228.234 125.93 228.384 125.34 228.384 124.66C228.384 123.96 228.234 123.36 227.934 122.86C227.634 122.36 227.214 121.98 226.674 121.72C226.154 121.46 225.554 121.33 224.874 121.33ZM236.454 116.89H240.474V131.8H236.454V116.89ZM222.024 133.03H225.984V135.64H236.514V133.03H240.474V144.37H222.024V133.03ZM225.984 138.7V141.19H236.514V138.7H225.984ZM244.431 138.37H269.601V141.61H244.431V138.37ZM254.991 133.09H258.951V139.66H254.991V133.09ZM247.281 118.66H266.751V127.93H251.271V132.58H247.311V124.81H262.791V121.84H247.281V118.66ZM247.311 131.02H267.381V134.2H247.311V131.02ZM274.579 129.7H294.109V132.85H274.579V129.7ZM271.639 138.07H296.809V141.31H271.639V138.07ZM274.579 119.14H293.899V122.38H278.539V131.02H274.579V119.14ZM321.579 116.89H325.569V144.67H321.579V116.89ZM324.669 127.72H329.559V131.02H324.669V127.72ZM303.639 120.97H319.839V124.15H303.639V120.97ZM311.799 125.74C313.139 125.74 314.339 126.03 315.399 126.61C316.459 127.17 317.289 127.94 317.889 128.92C318.509 129.9 318.819 131.04 318.819 132.34C318.819 133.64 318.509 134.79 317.889 135.79C317.289 136.77 316.459 137.55 315.399 138.13C314.359 138.69 313.159 138.97 311.799 138.97C310.459 138.97 309.249 138.69 308.169 138.13C307.109 137.55 306.269 136.77 305.649 135.79C305.049 134.79 304.749 133.64 304.749 132.34C304.749 131.04 305.049 129.9 305.649 128.92C306.269 127.94 307.109 127.17 308.169 126.61C309.249 126.03 310.459 125.74 311.799 125.74ZM311.799 128.98C311.159 128.98 310.599 129.11 310.119 129.37C309.639 129.63 309.259 130.01 308.979 130.51C308.699 131.01 308.559 131.62 308.559 132.34C308.559 133.04 308.699 133.65 308.979 134.17C309.259 134.67 309.639 135.06 310.119 135.34C310.599 135.6 311.159 135.73 311.799 135.73C312.419 135.73 312.969 135.6 313.449 135.34C313.929 135.06 314.309 134.67 314.589 134.17C314.869 133.65 315.009 133.04 315.009 132.34C315.009 131.62 314.869 131.01 314.589 130.51C314.309 130.01 313.929 129.63 313.449 129.37C312.969 129.11 312.419 128.98 311.799 128.98ZM309.759 117.34H313.779V122.2H309.759V117.34ZM350.136 116.86H354.126V144.64H350.136V116.86ZM341.946 119.74H345.876C345.876 121.86 345.666 123.89 345.246 125.83C344.846 127.75 344.166 129.56 343.206 131.26C342.266 132.96 340.966 134.54 339.306 136C337.666 137.44 335.616 138.76 333.156 139.96L331.056 136.81C333.736 135.51 335.866 134.08 337.446 132.52C339.046 130.94 340.196 129.16 340.896 127.18C341.596 125.18 341.946 122.94 341.946 120.46V119.74ZM332.556 119.74H343.806V122.92H332.556V119.74Z" fill="#1E293B"/>
<path d="M178.615 182.72C177.719 181.675 177.042 180.539 176.583 179.312C176.135 178.085 175.911 176.779 175.911 175.392C175.911 174.005 176.135 172.699 176.583 171.472C177.031 170.245 177.708 169.115 178.615 168.08H180.375C179.607 169.221 179.031 170.405 178.647 171.632C178.274 172.848 178.087 174.101 178.087 175.392C178.087 176.683 178.279 177.941 178.663 179.168C179.047 180.395 179.618 181.579 180.375 182.72H178.615ZM181.894 180V168.08H185.782C187.04 168.08 188.134 168.336 189.062 168.848C190 169.349 190.726 170.048 191.238 170.944C191.75 171.829 192.006 172.859 192.006 174.032C192.006 175.195 191.75 176.229 191.238 177.136C190.726 178.032 190 178.736 189.062 179.248C188.134 179.749 187.04 180 185.782 180H181.894ZM184.07 178.08H185.83C186.64 178.08 187.339 177.915 187.926 177.584C188.523 177.243 188.987 176.773 189.318 176.176C189.648 175.568 189.814 174.853 189.814 174.032C189.814 173.2 189.648 172.485 189.318 171.888C188.987 171.291 188.523 170.827 187.926 170.496C187.339 170.165 186.64 170 185.83 170H184.07V178.08ZM193.353 180V171.296H195.321V173.232L195.161 172.944C195.364 172.293 195.679 171.84 196.105 171.584C196.543 171.328 197.065 171.2 197.673 171.2H198.185V173.056H197.433C196.836 173.056 196.356 173.243 195.993 173.616C195.631 173.979 195.449 174.491 195.449 175.152V180H193.353ZM201.77 180.192C201.162 180.192 200.634 180.091 200.186 179.888C199.738 179.685 199.391 179.397 199.146 179.024C198.9 178.64 198.778 178.197 198.778 177.696C198.778 177.216 198.884 176.789 199.098 176.416C199.311 176.032 199.642 175.712 200.09 175.456C200.538 175.2 201.103 175.019 201.786 174.912L204.634 174.448V176.048L202.186 176.464C201.77 176.539 201.46 176.672 201.258 176.864C201.055 177.056 200.954 177.307 200.954 177.616C200.954 177.915 201.066 178.155 201.29 178.336C201.524 178.507 201.812 178.592 202.154 178.592C202.591 178.592 202.975 178.501 203.306 178.32C203.647 178.128 203.908 177.867 204.09 177.536C204.282 177.205 204.378 176.843 204.378 176.448V174.208C204.378 173.835 204.228 173.525 203.93 173.28C203.642 173.024 203.258 172.896 202.778 172.896C202.33 172.896 201.93 173.019 201.578 173.264C201.236 173.499 200.986 173.813 200.826 174.208L199.114 173.376C199.284 172.917 199.551 172.523 199.914 172.192C200.287 171.851 200.724 171.584 201.226 171.392C201.727 171.2 202.271 171.104 202.858 171.104C203.572 171.104 204.202 171.237 204.746 171.504C205.29 171.76 205.711 172.123 206.01 172.592C206.319 173.051 206.474 173.589 206.474 174.208V180H204.49V178.512L204.938 178.48C204.714 178.853 204.447 179.168 204.138 179.424C203.828 179.669 203.476 179.861 203.082 180C202.687 180.128 202.25 180.192 201.77 180.192ZM212.427 183.52C211.776 183.52 211.174 183.413 210.619 183.2C210.064 182.987 209.584 182.688 209.179 182.304C208.784 181.931 208.496 181.488 208.315 180.976L210.267 180.24C210.395 180.645 210.646 180.971 211.019 181.216C211.403 181.472 211.872 181.6 212.427 181.6C212.854 181.6 213.227 181.52 213.547 181.36C213.878 181.2 214.134 180.965 214.315 180.656C214.496 180.357 214.587 179.995 214.587 179.568V177.584L214.987 178.064C214.688 178.587 214.288 178.981 213.787 179.248C213.286 179.515 212.715 179.648 212.075 179.648C211.264 179.648 210.539 179.461 209.899 179.088C209.259 178.715 208.758 178.203 208.395 177.552C208.032 176.901 207.851 176.171 207.851 175.36C207.851 174.539 208.032 173.808 208.395 173.168C208.758 172.528 209.254 172.027 209.883 171.664C210.512 171.291 211.227 171.104 212.027 171.104C212.678 171.104 213.248 171.243 213.739 171.52C214.24 171.787 214.656 172.176 214.987 172.688L214.699 173.216V171.296H216.683V179.568C216.683 180.325 216.496 181.003 216.123 181.6C215.76 182.197 215.259 182.667 214.619 183.008C213.99 183.349 213.259 183.52 212.427 183.52ZM212.331 177.712C212.779 177.712 213.168 177.616 213.499 177.424C213.84 177.221 214.107 176.944 214.299 176.592C214.491 176.24 214.587 175.835 214.587 175.376C214.587 174.928 214.486 174.528 214.283 174.176C214.091 173.813 213.824 173.531 213.483 173.328C213.152 173.125 212.768 173.024 212.331 173.024C211.894 173.024 211.499 173.125 211.147 173.328C210.795 173.531 210.518 173.813 210.315 174.176C210.123 174.528 210.027 174.928 210.027 175.376C210.027 175.824 210.123 176.224 210.315 176.576C210.518 176.928 210.79 177.205 211.131 177.408C211.483 177.611 211.883 177.712 212.331 177.712ZM225.02 180.192C224.284 180.192 223.639 180.059 223.084 179.792C222.53 179.525 222.092 179.152 221.772 178.672C221.463 178.181 221.308 177.611 221.308 176.96C221.308 176.416 221.404 175.947 221.596 175.552C221.799 175.147 222.044 174.805 222.332 174.528C222.62 174.24 222.903 174.005 223.18 173.824C223.468 173.643 223.708 173.499 223.9 173.392L224.94 172.832C225.282 172.651 225.591 172.469 225.868 172.288C226.156 172.096 226.386 171.888 226.556 171.664C226.727 171.429 226.812 171.157 226.812 170.848C226.812 170.496 226.695 170.203 226.46 169.968C226.236 169.723 225.948 169.6 225.596 169.6C225.255 169.6 224.962 169.723 224.716 169.968C224.482 170.203 224.364 170.501 224.364 170.864C224.364 171.131 224.423 171.392 224.54 171.648C224.668 171.904 224.818 172.144 224.988 172.368C225.159 172.581 225.324 172.773 225.484 172.944L231.804 180H229.292L223.964 174.16C223.719 173.893 223.474 173.605 223.228 173.296C222.983 172.976 222.78 172.624 222.62 172.24C222.46 171.856 222.38 171.429 222.38 170.96C222.38 170.341 222.524 169.803 222.812 169.344C223.111 168.875 223.5 168.517 223.98 168.272C224.471 168.016 225.004 167.888 225.58 167.888C226.167 167.888 226.695 168.016 227.164 168.272C227.644 168.528 228.023 168.88 228.3 169.328C228.588 169.776 228.732 170.288 228.732 170.864C228.732 171.451 228.594 171.952 228.316 172.368C228.05 172.773 227.724 173.12 227.34 173.408C226.967 173.685 226.61 173.92 226.268 174.112L225.196 174.752C224.962 174.88 224.711 175.045 224.444 175.248C224.188 175.44 223.97 175.675 223.788 175.952C223.607 176.219 223.516 176.544 223.516 176.928C223.516 177.387 223.655 177.749 223.932 178.016C224.22 178.272 224.61 178.4 225.1 178.4C225.399 178.4 225.666 178.352 225.9 178.256C226.135 178.149 226.343 178.021 226.524 177.872C226.706 177.712 226.86 177.547 226.988 177.376C227.116 177.195 227.234 177.029 227.34 176.88L229.212 174.16H231.404L229.244 177.52C229.084 177.787 228.887 178.075 228.652 178.384C228.418 178.693 228.135 178.987 227.804 179.264C227.474 179.531 227.079 179.755 226.62 179.936C226.172 180.107 225.639 180.192 225.02 180.192ZM236.359 180V168.08H240.247C241.506 168.08 242.599 168.336 243.527 168.848C244.466 169.349 245.191 170.048 245.703 170.944C246.215 171.829 246.471 172.859 246.471 174.032C246.471 175.195 246.215 176.229 245.703 177.136C245.191 178.032 244.466 178.736 243.527 179.248C242.599 179.749 241.506 180 240.247 180H236.359ZM238.535 178.08H240.295C241.106 178.08 241.805 177.915 242.391 177.584C242.989 177.243 243.453 176.773 243.783 176.176C244.114 175.568 244.279 174.853 244.279 174.032C244.279 173.2 244.114 172.485 243.783 171.888C243.453 171.291 242.989 170.827 242.391 170.496C241.805 170.165 241.106 170 240.295 170H238.535V178.08ZM247.819 180V171.296H249.787V173.232L249.627 172.944C249.83 172.293 250.145 171.84 250.571 171.584C251.009 171.328 251.531 171.2 252.139 171.2H252.651V173.056H251.899C251.302 173.056 250.822 173.243 250.459 173.616C250.097 173.979 249.915 174.491 249.915 175.152V180H247.819ZM257.852 180.192C256.998 180.192 256.22 179.995 255.516 179.6C254.822 179.205 254.268 178.667 253.852 177.984C253.446 177.301 253.244 176.523 253.244 175.648C253.244 174.773 253.446 173.995 253.852 173.312C254.268 172.629 254.822 172.091 255.516 171.696C256.209 171.301 256.988 171.104 257.852 171.104C258.705 171.104 259.478 171.301 260.172 171.696C260.865 172.091 261.414 172.629 261.82 173.312C262.236 173.984 262.444 174.763 262.444 175.648C262.444 176.523 262.236 177.301 261.82 177.984C261.404 178.667 260.849 179.205 260.156 179.6C259.462 179.995 258.694 180.192 257.852 180.192ZM257.852 178.272C258.321 178.272 258.732 178.16 259.084 177.936C259.446 177.712 259.729 177.403 259.932 177.008C260.145 176.603 260.252 176.149 260.252 175.648C260.252 175.136 260.145 174.688 259.932 174.304C259.729 173.909 259.446 173.6 259.084 173.376C258.732 173.141 258.321 173.024 257.852 173.024C257.372 173.024 256.95 173.141 256.588 173.376C256.225 173.6 255.937 173.909 255.724 174.304C255.521 174.688 255.42 175.136 255.42 175.648C255.42 176.149 255.521 176.603 255.724 177.008C255.937 177.403 256.225 177.712 256.588 177.936C256.95 178.16 257.372 178.272 257.852 178.272ZM263.825 183.2V171.296H265.793V173.024L265.601 172.592C265.9 172.123 266.305 171.76 266.817 171.504C267.329 171.237 267.921 171.104 268.593 171.104C269.414 171.104 270.156 171.307 270.817 171.712C271.478 172.117 272.001 172.661 272.385 173.344C272.78 174.027 272.977 174.795 272.977 175.648C272.977 176.491 272.785 177.259 272.401 177.952C272.017 178.645 271.494 179.195 270.833 179.6C270.172 179.995 269.42 180.192 268.577 180.192C267.948 180.192 267.366 180.069 266.833 179.824C266.31 179.568 265.894 179.205 265.585 178.736L265.921 178.32V183.2H263.825ZM268.337 178.272C268.817 178.272 269.244 178.16 269.617 177.936C269.99 177.712 270.278 177.403 270.481 177.008C270.694 176.613 270.801 176.16 270.801 175.648C270.801 175.136 270.694 174.688 270.481 174.304C270.278 173.909 269.99 173.6 269.617 173.376C269.244 173.141 268.817 173.024 268.337 173.024C267.878 173.024 267.462 173.136 267.089 173.36C266.726 173.584 266.438 173.899 266.225 174.304C266.022 174.699 265.921 175.147 265.921 175.648C265.921 176.16 266.022 176.613 266.225 177.008C266.438 177.403 266.726 177.712 267.089 177.936C267.462 178.16 267.878 178.272 268.337 178.272ZM281.259 180.192C280.406 180.192 279.627 179.995 278.923 179.6C278.23 179.205 277.675 178.667 277.259 177.984C276.854 177.301 276.651 176.523 276.651 175.648C276.651 174.773 276.854 173.995 277.259 173.312C277.675 172.629 278.23 172.091 278.923 171.696C279.616 171.301 280.395 171.104 281.259 171.104C282.112 171.104 282.886 171.301 283.579 171.696C284.272 172.091 284.822 172.629 285.227 173.312C285.643 173.984 285.851 174.763 285.851 175.648C285.851 176.523 285.643 177.301 285.227 177.984C284.811 178.667 284.256 179.205 283.563 179.6C282.87 179.995 282.102 180.192 281.259 180.192ZM281.259 178.272C281.728 178.272 282.139 178.16 282.491 177.936C282.854 177.712 283.136 177.403 283.339 177.008C283.552 176.603 283.659 176.149 283.659 175.648C283.659 175.136 283.552 174.688 283.339 174.304C283.136 173.909 282.854 173.6 282.491 173.376C282.139 173.141 281.728 173.024 281.259 173.024C280.779 173.024 280.358 173.141 279.995 173.376C279.632 173.6 279.344 173.909 279.131 174.304C278.928 174.688 278.827 175.136 278.827 175.648C278.827 176.149 278.928 176.603 279.131 177.008C279.344 177.403 279.632 177.712 279.995 177.936C280.358 178.16 280.779 178.272 281.259 178.272ZM287.232 180V171.296H289.2V173.232L289.04 172.944C289.243 172.293 289.558 171.84 289.984 171.584C290.422 171.328 290.944 171.2 291.552 171.2H292.064V173.056H291.312C290.715 173.056 290.235 173.243 289.872 173.616C289.51 173.979 289.328 174.491 289.328 175.152V180H287.232ZM301.42 180.192C300.567 180.192 299.778 180.037 299.052 179.728C298.338 179.419 297.708 178.987 297.164 178.432C296.631 177.877 296.215 177.227 295.916 176.48C295.618 175.733 295.468 174.917 295.468 174.032C295.468 173.147 295.612 172.331 295.9 171.584C296.199 170.827 296.615 170.176 297.148 169.632C297.692 169.077 298.327 168.651 299.052 168.352C299.778 168.043 300.567 167.888 301.42 167.888C302.274 167.888 303.036 168.032 303.708 168.32C304.391 168.608 304.967 168.992 305.436 169.472C305.906 169.941 306.242 170.459 306.444 171.024L304.492 171.936C304.268 171.339 303.89 170.848 303.356 170.464C302.823 170.069 302.178 169.872 301.42 169.872C300.674 169.872 300.012 170.048 299.436 170.4C298.871 170.752 298.428 171.237 298.108 171.856C297.799 172.475 297.644 173.2 297.644 174.032C297.644 174.864 297.799 175.595 298.108 176.224C298.428 176.843 298.871 177.328 299.436 177.68C300.012 178.032 300.674 178.208 301.42 178.208C302.178 178.208 302.823 178.016 303.356 177.632C303.89 177.237 304.268 176.741 304.492 176.144L306.444 177.056C306.242 177.621 305.906 178.144 305.436 178.624C304.967 179.093 304.391 179.472 303.708 179.76C303.036 180.048 302.274 180.192 301.42 180.192ZM307.827 180V167.888H309.923V180H307.827ZM311.65 180V171.296H313.746V180H311.65ZM311.65 170.32V168.08H313.746V170.32H311.65ZM319.666 180.192C318.802 180.192 318.023 179.995 317.33 179.6C316.647 179.195 316.108 178.651 315.714 177.968C315.319 177.275 315.122 176.496 315.122 175.632C315.122 174.768 315.319 173.995 315.714 173.312C316.108 172.629 316.647 172.091 317.33 171.696C318.023 171.301 318.802 171.104 319.666 171.104C320.284 171.104 320.86 171.216 321.394 171.44C321.927 171.653 322.386 171.952 322.77 172.336C323.164 172.709 323.447 173.157 323.618 173.68L321.778 174.48C321.618 174.043 321.346 173.691 320.962 173.424C320.588 173.157 320.156 173.024 319.666 173.024C319.207 173.024 318.796 173.136 318.434 173.36C318.082 173.584 317.804 173.893 317.602 174.288C317.399 174.683 317.298 175.136 317.298 175.648C317.298 176.16 317.399 176.613 317.602 177.008C317.804 177.403 318.082 177.712 318.434 177.936C318.796 178.16 319.207 178.272 319.666 178.272C320.167 178.272 320.604 178.139 320.978 177.872C321.351 177.605 321.618 177.248 321.778 176.8L323.618 177.632C323.447 178.123 323.17 178.565 322.786 178.96C322.402 179.344 321.943 179.648 321.41 179.872C320.876 180.085 320.295 180.192 319.666 180.192ZM325 180V167.888H327.096V175.824L326.296 175.584L330.392 171.296H333L329.784 174.8L333.064 180H330.664L327.816 175.488L329.064 175.232L326.44 178.048L327.096 176.768V180H325ZM333.642 182.72C334.4 181.579 334.965 180.395 335.338 179.168C335.722 177.941 335.914 176.683 335.914 175.392C335.914 174.101 335.722 172.848 335.338 171.632C334.965 170.405 334.4 169.221 333.642 168.08H335.402C336.298 169.115 336.97 170.245 337.418 171.472C337.866 172.699 338.09 174.005 338.09 175.392C338.09 176.779 337.866 178.085 337.418 179.312C336.97 180.539 336.298 181.675 335.402 182.72H333.642Z" fill="#9A9A9A"/>
</svg>
