<svg width="18" height="11" viewBox="0 0 18 11" fill="none" xmlns="http://www.w3.org/2000/svg">
<path d="M17.2959 2.29592L9.7959 9.79592C9.69138 9.9008 9.56719 9.98401 9.43044 10.0408C9.2937 10.0976 9.14709 10.1268 8.99902 10.1268C8.85096 10.1268 8.70435 10.0976 8.5676 10.0408C8.43085 9.98401 8.30666 9.9008 8.20215 9.79592L0.702147 2.29592C0.490802 2.08457 0.37207 1.79793 0.37207 1.49904C0.37207 1.20016 0.490802 0.913513 0.702147 0.702169C0.913491 0.490824 1.20014 0.372092 1.49902 0.372092C1.79791 0.372092 2.08455 0.490824 2.2959 0.702169L8.99996 7.40623L15.704 0.701232C15.9154 0.489887 16.202 0.371155 16.5009 0.371155C16.7998 0.371155 17.0864 0.489887 17.2978 0.701232C17.5091 0.912576 17.6278 1.19922 17.6278 1.49811C17.6278 1.79699 17.5091 2.08364 17.2978 2.29498L17.2959 2.29592Z" fill="#94A3B8"/>
</svg>
