<?xml version="1.0" encoding="UTF-8"?>
<svg version="1.1" xmlns="http://www.w3.org/2000/svg" width="152" height="154">
<path d="M0 0 C7.9672734 5.59378926 13.44760134 12.56179695 16 22 C16.13474123 24.66787642 16.19197861 27.21646441 16.125 29.875 C16.11597656 30.56335937 16.10695313 31.25171875 16.09765625 31.9609375 C16.07432513 33.64077838 16.03846326 35.32043746 16 37 C16.928125 37.268125 17.85625 37.53625 18.8125 37.8125 C23.27063996 39.47337567 23.27063996 39.47337567 25 42 C25.8334284 46.49751003 25.84752404 50.66351978 23.375 54.5625 C20.56538113 56.26305879 18.25162799 56.70439746 15 57 C15.33 57.33 15.66 57.66 16 58 C17.86235996 57.74075949 19.71573735 57.4161354 21.5625 57.0625 C26.49709031 56.19099718 30.99912532 55.71693162 36 56 C37.81191882 57.81191882 37.4723513 60.72351299 37.71875 63.1875 C37.81998043 65.0167533 37.81998043 65.0167533 39 66 C39.08713831 67.70772358 39.10700007 69.41898649 39.09765625 71.12890625 C39.09282227 72.68061523 39.09282227 72.68061523 39.08789062 74.26367188 C39.07532227 75.8965918 39.07532227 75.8965918 39.0625 77.5625 C39.05798828 78.65498047 39.05347656 79.74746094 39.04882812 80.87304688 C39.03699826 83.58208495 39.02051543 86.29101599 39 89 C38.07767578 89.16435547 38.07767578 89.16435547 37.13671875 89.33203125 C36.32847656 89.49058594 35.52023438 89.64914063 34.6875 89.8125 C33.88699219 89.96332031 33.08648437 90.11414063 32.26171875 90.26953125 C29.70960726 91.09378833 28.64683212 91.90725641 27 94 C25.98194396 97.05416813 25.86624485 99.17936961 25.875 102.375 C25.87242188 103.31085938 25.86984375 104.24671875 25.8671875 105.2109375 C25.94915594 108.39254138 25.94915594 108.39254138 27 113 C30.96 113.99 34.92 114.98 39 116 C39 118.64 39 121.28 39 124 C28.3864472 126.01908417 17.76104124 127.95512154 7.11401367 129.78979492 C5.55964584 130.05839206 4.00561555 130.32894887 2.4519043 130.60131836 C0.16263481 131.00262362 -2.12752393 131.398434 -4.41796875 131.79296875 C-5.45234322 131.97571602 -5.45234322 131.97571602 -6.50761414 132.16215515 C-10.11617557 132.77650889 -13.30298798 133 -17 133 C-17 112.21 -17 91.42 -17 70 C-18.32 70 -19.64 70 -21 70 C-21 90.79 -21 111.58 -21 133 C-22.65 133 -24.3 133 -26 133 C-27 132 -27 132 -27.12025452 129.52598572 C-27.11803391 128.42678299 -27.11581329 127.32758026 -27.11352539 126.19506836 C-27.11344986 124.95385727 -27.11337433 123.71264618 -27.11329651 122.43382263 C-27.10818911 121.0691626 -27.1029731 119.70450298 -27.09765625 118.33984375 C-27.095792 116.95121817 -27.09436813 115.56259193 -27.09336853 114.17396545 C-27.08954387 110.51278885 -27.07971403 106.8516517 -27.06866455 103.19049072 C-27.05844932 99.45707737 -27.05387067 95.72365766 -27.04882812 91.99023438 C-27.03809171 84.66013823 -27.02101591 77.33007464 -27 70 C-27.99 70 -28.98 70 -30 70 C-30 90.79 -30 111.58 -30 133 C-41.25231982 131.87476802 -41.25231982 131.87476802 -45.03491211 131.25976562 C-46.31059303 131.05450256 -46.31059303 131.05450256 -47.61204529 130.84509277 C-48.49159378 130.70027466 -49.37114227 130.55545654 -50.27734375 130.40625 C-51.6770919 130.17887146 -51.6770919 130.17887146 -53.1051178 129.94689941 C-55.05738141 129.62900747 -57.00940118 129.30961459 -58.96118164 128.98876953 C-61.95326713 128.49741073 -64.94628536 128.01206133 -67.93945312 127.52734375 C-69.84380793 127.21650053 -71.74810689 126.90531495 -73.65234375 126.59375 C-74.54606186 126.44893188 -75.43977997 126.30411377 -76.36058044 126.15490723 C-77.18896927 126.01806519 -78.01735809 125.88122314 -78.87084961 125.74023438 C-79.96144936 125.56155823 -79.96144936 125.56155823 -81.07408142 125.37927246 C-83 125 -83 125 -86 124 C-86 121.36 -86 118.72 -86 116 C-85.38511719 115.90203125 -84.77023438 115.8040625 -84.13671875 115.703125 C-83.32847656 115.55359375 -82.52023438 115.4040625 -81.6875 115.25 C-80.48673828 115.04117188 -80.48673828 115.04117188 -79.26171875 114.828125 C-76.26514398 113.73093355 -75.45602135 112.84773892 -74 110 C-73.6537217 107.22977359 -73.48998174 104.76504035 -73.5 102 C-73.47164062 101.2884375 -73.44328125 100.576875 -73.4140625 99.84375 C-73.40044573 96.19445653 -73.69190651 94.35867601 -76.09375 91.5625 C-79.49358872 89.51970721 -79.49358872 89.51970721 -86 89 C-86 81.08 -86 73.16 -86 65 C-85.34 65 -84.68 65 -84 65 C-84 62.03 -84 59.06 -84 56 C-77.56245757 55.78541525 -71.73170836 56.4381927 -65.40625 57.66015625 C-64.6121875 57.77230469 -63.818125 57.88445312 -63 58 C-62.67 57.67 -62.34 57.34 -62 57 C-62.886875 56.95875 -63.77375 56.9175 -64.6875 56.875 C-69.16431376 55.69244542 -70.52899286 53.85186407 -73 50 C-73.65779752 46.84257189 -73.67580788 45.10236343 -71.97265625 42.32421875 C-69.81955357 39.58212142 -68.33704194 38.11234731 -65 37 C-64.90203125 36.03320312 -64.8040625 35.06640625 -64.703125 34.0703125 C-63.19197385 20.91287576 -60.49590444 11.00756349 -50 2 C-35.35856654 -7.05674617 -15.23844336 -8.99068158 0 0 Z M-33 24 C-33.9590625 25.3303125 -33.9590625 25.3303125 -34.9375 26.6875 C-39.67688442 32.43468455 -46.3438524 35.06889344 -53.625 35.8125 C-55.08231289 35.89545473 -56.54072761 35.96584682 -58 36 C-58.33 37.98 -58.66 39.96 -59 42 C-61.31 42.66 -63.62 43.32 -66 44 C-66.67958603 46.39719432 -66.67958603 46.39719432 -67 49 C-64.23776722 51.76223278 -61.79293383 51.57856291 -58 52 C-57.7525 52.928125 -57.505 53.85625 -57.25 54.8125 C-55.86935189 58.33315267 -55.15796385 59.09399397 -52 61 C-47.861474 62.11656573 -43.61362284 62.62902529 -39.375 63.25 C-37.66763672 63.5284375 -37.66763672 63.5284375 -35.92578125 63.8125 C-28.99706489 64.86254657 -22.9130448 65.02323046 -16 64 C-14.20217291 63.80405334 -12.4039811 63.61142882 -10.60546875 63.421875 C-8.79920152 63.20016711 -6.99321003 62.97620126 -5.1875 62.75 C-3.81561523 62.60498047 -3.81561523 62.60498047 -2.41601562 62.45703125 C2.01443271 61.88348957 4.46271532 61.41235063 8.07421875 58.640625 C10.27280288 55.9732291 10.27280288 55.9732291 11 52 C13.64 51.34 16.28 50.68 19 50 C19.33 48.68 19.66 47.36 20 46 C18.29107501 42.68539295 18.29107501 42.68539295 14.875 42.3125 C13.92625 42.209375 12.9775 42.10625 12 42 C11.505 39.03 11.505 39.03 11 36 C10.19892822 35.9906543 9.39785645 35.98130859 8.57250977 35.97167969 C4.90190881 35.91761061 1.23253238 35.8340326 -2.4375 35.75 C-3.69755859 35.73582031 -4.95761719 35.72164062 -6.25585938 35.70703125 C-14.6311754 35.48835459 -21.71492807 34.81930324 -28.15625 29.078125 C-28.5996875 28.47484375 -29.043125 27.8715625 -29.5 27.25 C-30.32445142 26.15989202 -31.15504811 25.07429598 -32 24 C-32.33 24 -32.66 24 -33 24 Z M-79 62 C-79 62.99 -79 63.98 -79 65 C-75.99892884 66.50053558 -72.80769864 66.49792455 -69.5078125 66.7890625 C-68.76546356 66.85660736 -68.02311462 66.92415222 -67.25827026 66.9937439 C-65.68652894 67.13530894 -64.11459109 67.2747062 -62.54248047 67.41210938 C-60.14081456 67.62360732 -57.74039594 67.8465698 -55.33984375 68.0703125 C-53.81256247 68.20643186 -52.28522036 68.34187085 -50.7578125 68.4765625 C-50.04102325 68.54420807 -49.32423401 68.61185364 -48.58572388 68.68154907 C-45.18496085 68.9687192 -42.25143309 69.14318837 -39 68 C-46.75396579 66.36190032 -54.54205288 65.0725627 -62.375 63.875 C-64.11716797 63.60236328 -64.11716797 63.60236328 -65.89453125 63.32421875 C-67.00957031 63.15277344 -68.12460938 62.98132813 -69.2734375 62.8046875 C-70.27810059 62.64983887 -71.28276367 62.49499023 -72.31787109 62.33544922 C-75.21100894 61.91726571 -75.21100894 61.91726571 -79 62 Z M23.96582031 62.55078125 C23.18531311 62.67090576 22.40480591 62.79103027 21.60064697 62.91479492 C20.76821472 63.0460376 19.93578247 63.17728027 19.078125 63.3125 C18.21813904 63.44567627 17.35815308 63.57885254 16.47210693 63.71606445 C13.73095694 64.14121885 10.99048058 64.57055396 8.25 65 C6.38936581 65.28933849 4.52868919 65.57840421 2.66796875 65.8671875 C-1.88851895 66.57496324 -6.44440708 67.28648864 -11 68 C-11 68.33 -11 68.66 -11 69 C-0.81715166 68.51691856 9.34165559 67.86083604 19.5 67 C20.50877197 66.9170166 21.51754395 66.8340332 22.55688477 66.74853516 C23.49717529 66.66651855 24.43746582 66.58450195 25.40625 66.5 C26.24478516 66.4278125 27.08332031 66.355625 27.94726562 66.28125 C30.06036603 66.10384235 30.06036603 66.10384235 32 65 C32 64.01 32 63.02 32 62 C29.12727002 62 26.75538637 62.11604368 23.96582031 62.55078125 Z M13 89 C14 93 14 93 14 93 Z M-3 91 C-2.34 92.32 -1.68 93.64 -1 95 C-1 93.68 -1 92.36 -1 91 C-1.66 91 -2.32 91 -3 91 Z M18 98 C17.34 99.98 16.68 101.96 16 104 C3.75645756 106.67896679 3.75645756 106.67896679 -2 105 C-3.9375 102.9375 -3.9375 102.9375 -5 101 C-6.32 101.33 -7.64 101.66 -9 102 C-6.1204024 106.57748509 -6.1204024 106.57748509 -2 110 C5.50304166 110.81243126 12.85479647 110.47601129 18.9375 105.6875 C21.22478841 103.18701241 21.22478841 103.18701241 21.3125 100.1875 C21.209375 99.465625 21.10625 98.74375 21 98 C20.01 98 19.02 98 18 98 Z " fill="#0B046B" transform="translate(101,13)"/>
<path d="M0 0 C0.33 0 0.66 0 1 0 C1 5.61 1 11.22 1 17 C2.546875 16.67 4.09375 16.34 5.6875 16 C9.20210768 15.25021703 12.40480708 14.8963548 16 15 C14 17 14 17 11.6171875 17.1953125 C10.71226563 17.17210938 9.80734375 17.14890625 8.875 17.125 C7.96492188 17.10695313 7.05484375 17.08890625 6.1171875 17.0703125 C5.41851562 17.04710938 4.71984375 17.02390625 4 17 C4 18.98 4 20.96 4 23 C1.36 23.99 -1.28 24.98 -4 26 C-3.67 27.65 -3.34 29.3 -3 31 C-1.9275 31.185625 -0.855 31.37125 0.25 31.5625 C2.21484375 32.09765625 2.21484375 32.09765625 4 33 C4.92842901 34.79282844 5.85582963 36.58630264 6.76171875 38.390625 C8.87536001 41.13769187 11.45286508 41.16124628 14.7578125 41.59765625 C15.82773437 41.73042969 16.89765625 41.86320312 18 42 C19.43647911 42.26096151 20.87128856 42.53121202 22.3046875 42.80859375 C23.86972178 43.1019356 25.43482652 43.39490177 27 43.6875 C27.73492676 43.83155273 28.46985352 43.97560547 29.22705078 44.12402344 C35.02587232 45.14109088 40.18952252 44.78293722 46 44 C47.80988691 43.79549393 49.61978288 43.59106803 51.4296875 43.38671875 C53.24507747 43.15588252 55.06018347 42.92280214 56.875 42.6875 C57.79796875 42.58244141 58.7209375 42.47738281 59.671875 42.36914062 C65.00511066 41.68202033 65.00511066 41.68202033 69.5859375 39.02734375 C71.07775215 37.08042965 71.07775215 37.08042965 71.75 34.875 C73.34815875 32.47776187 74.37854577 32.43420439 77.125 31.75 C78.40375 31.5025 79.6825 31.255 81 31 C80.505 28.03 80.505 28.03 80 25 C77.69 24.34 75.38 23.68 73 23 C73 21.02 73 19.04 73 17 C72.16227051 17.01047363 71.32454102 17.02094727 70.46142578 17.03173828 C67.35661836 17.06580019 64.25190608 17.09088911 61.14697266 17.10986328 C59.1408864 17.12488107 57.13488676 17.15028981 55.12890625 17.17578125 C53.87207031 17.18222656 52.61523438 17.18867187 51.3203125 17.1953125 C50.15773926 17.20578613 48.99516602 17.21625977 47.79736328 17.22705078 C45 17 45 17 43 15 C53.23 15.33 63.46 15.66 74 16 C74.495 18.97 74.495 18.97 75 22 C76.134375 22.309375 77.26875 22.61875 78.4375 22.9375 C82 24 82 24 83 25 C83.04080783 26.99958364 83.04254356 29.00045254 83 31 C83.99 31 84.98 31 86 31 C84.65226477 24.10740765 84.65226477 24.10740765 80 19 C83.28488934 19.56636023 84.92816323 20.36946567 87 23 C87.8334284 27.49751003 87.84752404 31.66351978 85.375 35.5625 C82.56538113 37.26305879 80.25162799 37.70439746 77 38 C77.33 38.33 77.66 38.66 78 39 C79.86235996 38.74075949 81.71573735 38.4161354 83.5625 38.0625 C88.49345333 37.18470783 93.00422175 36.80785468 98 37 C96.515 37.495 96.515 37.495 95 38 C95.185625 38.556875 95.37125 39.11375 95.5625 39.6875 C96.07551165 42.399133 95.6640724 44.34371039 95 47 C94.34 47 93.68 47 93 47 C93 47.66 93 48.32 93 49 C86.73 49 80.46 49 74 49 C74 48.67 74 48.34 74 48 C80.6 47.34 87.2 46.68 94 46 C94 45.01 94 44.02 94 43 C93.12263184 43.14622803 92.24526367 43.29245605 91.34130859 43.44311523 C85.3581543 44.44030762 85.3581543 44.44030762 79.375 45.4375 C78.68035645 45.55327393 77.98571289 45.66904785 77.27001953 45.78833008 C74.20922852 46.29846191 74.20922852 46.29846191 71.1484375 46.80859375 C69.92302246 47.01282959 68.69760742 47.21706543 67.43505859 47.42749023 C64.29003906 47.95166016 61.14501953 48.47583008 58 49 C62.62 48.67 67.24 48.34 72 48 C72 48.66 72 49.32 72 50 C64.31516461 50.67453101 56.71589817 51.1567564 49 51 C49 51.99 49 52.98 49 54 C48.01 54.495 48.01 54.495 47 55 C46.67 73.81 46.34 92.62 46 112 C48.31 112 50.62 112 53 112 C50 114 50 114 45 114 C45 93.21 45 72.42 45 51 C43.68 51 42.36 51 41 51 C41 71.79 41 92.58 41 114 C39.35 114 37.7 114 36 114 C35 113 35 113 34.87974548 110.52598572 C34.88196609 109.42678299 34.88418671 108.32758026 34.88647461 107.19506836 C34.88655014 105.95385727 34.88662567 104.71264618 34.88670349 103.43382263 C34.89181089 102.0691626 34.8970269 100.70450298 34.90234375 99.33984375 C34.904208 97.95121817 34.90563187 96.56259193 34.90663147 95.17396545 C34.91045613 91.51278885 34.92028597 87.8516517 34.93133545 84.19049072 C34.94155068 80.45707737 34.94612933 76.72365766 34.95117188 72.99023438 C34.96190829 65.66013823 34.97898409 58.33007464 35 51 C34.01 51 33.02 51 32 51 C32 71.79 32 92.58 32 114 C20.75 112.875 20.75 112.875 17 112 C17 111.67 17 111.34 17 111 C18.58294782 110.94562393 20.16644256 110.90703729 21.75 110.875 C22.63171875 110.85179687 23.5134375 110.82859375 24.421875 110.8046875 C27.1401489 111.01061734 28.63096259 111.72741299 31 113 C30.88230879 105.11618358 30.75747902 97.23250336 30.62768555 89.34887695 C30.58385906 86.66693958 30.54230372 83.98498128 30.50268555 81.30297852 C30.44489293 77.44799693 30.38122393 73.59315033 30.31640625 69.73828125 C30.29969376 68.53915604 30.28298126 67.34003082 30.26576233 66.10456848 C30.2358445 64.4233918 30.2358445 64.4233918 30.20532227 62.70825195 C30.18977798 61.72452103 30.1742337 60.7407901 30.15821838 59.72724915 C30.06688522 56.9810308 30.06688522 56.9810308 29.42466736 54.26823425 C29 52 29 52 30 50 C29.34 50 28.68 50 28 50 C27.505 50.99 27.505 50.99 27 52 C27 51.34 27 50.68 27 50 C26.2575 50.309375 25.515 50.61875 24.75 50.9375 C22.49307824 51.8094925 20.3549847 52.47667007 18 53 C18 52.34 18 51.68 18 51 C15.03 50.67 12.06 50.34 9 50 C9 49.67 9 49.34 9 49 C12.96 49 16.92 49 21 49 C19.99098633 48.85377197 18.98197266 48.70754395 17.94238281 48.55688477 C14.19240727 48.012881 10.44282709 47.46619317 6.69335938 46.91870117 C5.07172096 46.68229325 3.44997679 46.44660954 1.828125 46.21166992 C-0.50549164 45.8734957 -2.83871331 45.53270338 -5.171875 45.19140625 C-5.89493835 45.08719864 -6.61800171 44.98299103 -7.36297607 44.87562561 C-10.62208979 44.39649315 -13.82619306 43.89397956 -17 43 C-17 43.99 -17 44.98 -17 46 C-10.07 46.66 -3.14 47.32 4 48 C4 48.99 4 49.98 4 51 C3.67 50.34 3.34 49.68 3 49 C2.2265625 49.01160156 1.453125 49.02320313 0.65625 49.03515625 C-15.24068418 49.17287721 -15.24068418 49.17287721 -20 46 C-20.66 46 -21.32 46 -22 46 C-22 43.03 -22 40.06 -22 37 C-15.56245757 36.78541525 -9.73170836 37.4381927 -3.40625 38.66015625 C-2.6121875 38.77230469 -1.818125 38.88445312 -1 39 C-0.67 38.67 -0.34 38.34 0 38 C-0.886875 37.95875 -1.77375 37.9175 -2.6875 37.875 C-7.16431376 36.69244542 -8.52899286 34.85186407 -11 31 C-11.65779752 27.84257189 -11.67580788 26.10236343 -9.97265625 23.32421875 C-7.81955357 20.58212142 -6.33704194 19.11234731 -3 18 C-2.86722656 16.95199219 -2.73445313 15.90398438 -2.59765625 14.82421875 C-2.41942765 13.44529222 -2.24103359 12.06638707 -2.0625 10.6875 C-1.97548828 9.99720703 -1.88847656 9.30691406 -1.79882812 8.59570312 C-1.40789865 5.59857712 -0.9584996 2.87549881 0 0 Z " fill="#100C5F" transform="translate(39,32)"/>
<path d="M0 0 C0.86625 0.00644531 1.7325 0.01289062 2.625 0.01953125 C5 0.1875 5 0.1875 8 1.1875 C10.10522469 4.28548951 10.29729867 6.99864398 10.3125 10.6875 C10.32925781 11.6259375 10.34601562 12.564375 10.36328125 13.53125 C9.92405679 16.74278369 9.45594161 18.05038245 7 20.1875 C3.6796875 20.61328125 3.6796875 20.61328125 -0.125 20.5 C-1.38570312 20.47550781 -2.64640625 20.45101562 -3.9453125 20.42578125 C-7 20.1875 -7 20.1875 -8 19.1875 C-8.15322744 16.36163249 -8.23162755 13.57706118 -8.25 10.75 C-8.270625 9.96044922 -8.29125 9.17089844 -8.3125 8.35742188 C-8.328125 6.06640625 -8.328125 6.06640625 -8 2.1875 C-4.74004414 0.01419609 -3.77020034 -0.06171459 0 0 Z " fill="#0B0567" transform="translate(15,104.8125)"/>
<path d="M0 0 C0 6.27 0 12.54 0 19 C-13.35822327 19.36765752 -13.35822327 19.36765752 -15.9296875 17.89453125 C-17.52361243 15.07316779 -17.3595588 12.7144778 -17.3125 9.5 C-17.30863281 8.3553125 -17.30476562 7.210625 -17.30078125 6.03125 C-17 3 -17 3 -15 0 C-12.28515625 -0.546875 -12.28515625 -0.546875 -9.0625 -0.75 C-8.00160156 -0.82734375 -6.94070312 -0.9046875 -5.84765625 -0.984375 C-3 -1 -3 -1 0 0 Z " fill="#0B0469" transform="translate(147,106)"/>
<path d="M0 0 C1.67542976 0.28604898 3.34385343 0.61781233 5 1 C4.01 1.495 4.01 1.495 3 2 C3 2.66 3 3.32 3 4 C1.02 4 -0.96 4 -3 4 C-3 24.79 -3 45.58 -3 67 C-3.99 67 -4.98 67 -6 67 C-6 46.21 -6 25.42 -6 4 C-6.66 4 -7.32 4 -8 4 C-8 3.01 -8 2.02 -8 1 C-6.865625 1.020625 -5.73125 1.04125 -4.5625 1.0625 C-1.18424326 1.41577477 -1.18424326 1.41577477 0 0 Z " fill="#09046C" transform="translate(82,78)"/>
<path d="M0 0 C0 6.27 0 12.54 0 19 C-13.75 19.125 -13.75 19.125 -16 18 C-16 17.34 -16 16.68 -16 16 C-15.01 16.33 -14.02 16.66 -13 17 C-10.94106379 17.22325814 -8.87766347 17.40705759 -6.8125 17.5625 C-5.72582031 17.64628906 -4.63914063 17.73007813 -3.51953125 17.81640625 C-2.27236328 17.90728516 -2.27236328 17.90728516 -1 18 C-1.66 15.36 -2.32 12.72 -3 10 C-4.98 10 -6.96 10 -9 10 C-9 7.03 -9 4.06 -9 1 C-10.98 1 -12.96 1 -15 1 C-15 0.67 -15 0.34 -15 0 C-13.06325815 -0.19517554 -11.12555991 -0.38087873 -9.1875 -0.5625 C-8.10855469 -0.66691406 -7.02960938 -0.77132812 -5.91796875 -0.87890625 C-3 -1 -3 -1 0 0 Z " fill="#110B60" transform="translate(147,106)"/>
<path d="M0 0 C0.90814453 -0.020625 1.81628906 -0.04125 2.75195312 -0.0625 C8.97760919 -0.09815157 14.04702806 0.90021798 19.8125 3.25 C19.8125 3.58 19.8125 3.91 19.8125 4.25 C18.92304687 4.09144531 18.03359375 3.93289062 17.1171875 3.76953125 C11.41599394 2.96265041 5.68555148 2.9862123 -0.0625 2.9375 C-1.19558594 2.90849609 -2.32867187 2.87949219 -3.49609375 2.84960938 C-10.39501104 2.79764766 -16.34432491 3.27942261 -22.1875 7.25 C-23.1775 8.735 -23.1775 8.735 -24.1875 10.25 C-24.8475 10.25 -25.5075 10.25 -26.1875 10.25 C-26.1875 11.24 -26.1875 12.23 -26.1875 13.25 C-27.61328125 14.42578125 -27.61328125 14.42578125 -29.5 15.5625 C-33.06313348 17.92830523 -34.59437046 20.2203194 -36.1875 24.25 C-37.1875 21.25 -37.1875 21.25 -36.25390625 19.234375 C-27.03572908 5.5387975 -16.23731384 0.09026999 0 0 Z " fill="#15105F" transform="translate(77.1875,7.75)"/>
<path d="M0 0 C9.57142857 -0.14285714 9.57142857 -0.14285714 14 1 C14 1.33 14 1.66 14 2 C12.35 2 10.7 2 9 2 C9 3.32 9 4.64 9 6 C7.68 6 6.36 6 5 6 C5 6.99 5 7.98 5 9 C15.395 9.99 15.395 9.99 26 11 C26 11.99 26 12.98 26 14 C25.67 13.34 25.34 12.68 25 12 C24.2265625 12.01160156 23.453125 12.02320312 22.65625 12.03515625 C6.75931582 12.17287721 6.75931582 12.17287721 2 9 C1.34 9 0.68 9 0 9 C0 6.03 0 3.06 0 0 Z " fill="#0F0A5B" transform="translate(17,69)"/>
<path d="M0 0 C0.33 0 0.66 0 1 0 C1.22786458 2.05078125 1.45572917 4.1015625 1.68359375 6.15234375 C1.81886614 8.01140229 1.81886614 8.01140229 3 9 C3.08713831 10.70772358 3.10700007 12.41898649 3.09765625 14.12890625 C3.09443359 15.16337891 3.09121094 16.19785156 3.08789062 17.26367188 C3.07951172 18.35228516 3.07113281 19.44089844 3.0625 20.5625 C3.05798828 21.65498047 3.05347656 22.74746094 3.04882812 23.87304688 C3.03699826 26.58208495 3.02051543 29.29101599 3 32 C2.3800415 32.12552246 1.76008301 32.25104492 1.12133789 32.38037109 C0.30914795 32.55133301 -0.50304199 32.72229492 -1.33984375 32.8984375 C-2.14542725 33.06520996 -2.95101074 33.23198242 -3.78100586 33.40380859 C-6.3658039 34.09828288 -8.06844598 35.15242659 -10 37 C-9.71202981 35.65613912 -9.36784131 34.3242287 -9 33 C-8.814375 32.319375 -8.62875 31.63875 -8.4375 30.9375 C-6.11692124 27.80976341 -2.62831799 27.11380924 1 26 C1.02684679 23.35409986 1.04676357 20.70846904 1.0625 18.0625 C1.07087891 17.30775391 1.07925781 16.55300781 1.08789062 15.77539062 C1.09652441 13.85005687 1.05224333 11.92464419 1 10 C0.67 9.67 0.34 9.34 0 9 C-0.07179964 7.48071962 -0.08392007 5.95832518 -0.0625 4.4375 C-0.05347656 3.61121094 -0.04445312 2.78492187 -0.03515625 1.93359375 C-0.02355469 1.29550781 -0.01195312 0.65742187 0 0 Z " fill="#10095F" transform="translate(137,70)"/>
<path d="M0 0 C-0.99 0.33 -1.98 0.66 -3 1 C-2.814375 1.556875 -2.62875 2.11375 -2.4375 2.6875 C-1.92448835 5.399133 -2.3359276 7.34371039 -3 10 C-3.66 10 -4.32 10 -5 10 C-5 10.66 -5 11.32 -5 12 C-11.27 12 -17.54 12 -24 12 C-24 11.67 -24 11.34 -24 11 C-17.4 10.34 -10.8 9.68 -4 9 C-4 8.01 -4 7.02 -4 6 C-6.97 5.505 -6.97 5.505 -10 5 C-9.01 4.34 -8.02 3.68 -7 3 C-9.97 2.505 -9.97 2.505 -13 2 C-13 1.67 -13 1.34 -13 1 C-8.59085217 -0.10228696 -4.51617599 -0.07654536 0 0 Z " fill="#0F0A58" transform="translate(137,69)"/>
<path d="M0 0 C1.125 3.75 1.125 3.75 0 6 C-0.66 6 -1.32 6 -2 6 C-2 5.01 -2 4.02 -2 3 C-2.66 3 -3.32 3 -4 3 C-3.67 3.99 -3.34 4.98 -3 6 C-5.05078125 6.22786458 -7.1015625 6.45572917 -9.15234375 6.68359375 C-11.01140229 6.81886614 -11.01140229 6.81886614 -12 8 C-14.01594582 8.23427778 -16.038474 8.41336124 -18.0625 8.5625 C-19.71958984 8.68818359 -19.71958984 8.68818359 -21.41015625 8.81640625 C-22.26480469 8.87699219 -23.11945313 8.93757813 -24 9 C-20.93882432 6.37613513 -20.26826873 6 -16 6 C-16 5.34 -16 4.68 -16 4 C-14.95199219 3.92652344 -14.95199219 3.92652344 -13.8828125 3.8515625 C-12.97273438 3.77679688 -12.06265625 3.70203125 -11.125 3.625 C-10.22007813 3.55539063 -9.31515625 3.48578125 -8.3828125 3.4140625 C-5.82058097 3.20431868 -5.82058097 3.20431868 -4 1 C-1.875 0.375 -1.875 0.375 0 0 Z " fill="#0C046E" transform="translate(114,71)"/>
<path d="M0 0 C1.65 0.33 3.3 0.66 5 1 C5.6875 3.25 5.6875 3.25 6 6 C4.5625 8.3125 4.5625 8.3125 3 10 C1.68 9.67 0.36 9.34 -1 9 C-1.625 6.1875 -1.625 6.1875 -2 3 C-1.34 2.01 -0.68 1.02 0 0 Z " fill="#0F0B5B" transform="translate(60,62)"/>
<path d="M0 0 C0.75 1.75 0.75 1.75 1 4 C-1.16719383 7.34929955 -3.58279738 8.36254156 -7.3125 9.3125 C-11.52584738 10.09945579 -14.84325707 10.03918573 -19 9 C-19.33 8.34 -19.66 7.68 -20 7 C-16.37 7 -12.74 7 -9 7 C-9 6.34 -9 5.68 -9 5 C-6.50935112 4.31292445 -4.62113708 4 -2 4 C-1.34 2.68 -0.68 1.36 0 0 Z " fill="#120B5D" transform="translate(118,110)"/>
<path d="M0 0 C1.65 0.33 3.3 0.66 5 1 C5 3.64 5 6.28 5 9 C1.25 10.125 1.25 10.125 -1 9 C-1.75 6.125 -1.75 6.125 -2 3 C-1.34 2.01 -0.68 1.02 0 0 Z " fill="#110E53" transform="translate(91,62)"/>
<path d="M0 0 C0.99 0 1.98 0 3 0 C1.95868218 2.97791498 1.19709531 3.89053539 -1.609375 5.44921875 C-2.64578125 5.85785156 -3.6821875 6.26648438 -4.75 6.6875 C-5.77609375 7.10386719 -6.8021875 7.52023438 -7.859375 7.94921875 C-12.86892067 9.62529809 -16.85347196 10.36231625 -22 9 C-22 8.34 -22 7.68 -22 7 C-20.90300781 6.87882812 -19.80601563 6.75765625 -18.67578125 6.6328125 C-17.22131177 6.46390637 -15.76688696 6.29461519 -14.3125 6.125 C-13.59126953 6.04636719 -12.87003906 5.96773438 -12.12695312 5.88671875 C-8.16870446 5.41678968 -4.55040395 4.94152109 -1 3 C-0.67 2.01 -0.34 1.02 0 0 Z " fill="#100C59" transform="translate(121,116)"/>
<path d="M0 0 C0.66 0.33 1.32 0.66 2 1 C1.83628906 1.70511719 1.67257812 2.41023438 1.50390625 3.13671875 C0.98300176 6.09658688 0.90133268 8.81061273 0.9375 11.8125 C0.958125 13.524375 0.97875 15.23625 1 17 C5.29 17.33 9.58 17.66 14 18 C14 18.33 14 18.66 14 19 C11.68756208 19.02685412 9.3750373 19.04632841 7.0625 19.0625 C5.77472656 19.07410156 4.48695312 19.08570312 3.16015625 19.09765625 C-0 19 -0 19 -1 18 C-1.09986975 15.15664952 -1.13877881 12.34302837 -1.125 9.5 C-1.12886719 8.70207031 -1.13273438 7.90414062 -1.13671875 7.08203125 C-1.12660767 1.12660767 -1.12660767 1.12660767 0 0 Z " fill="#150F57" transform="translate(8,106)"/>
<path d="M0 0 C2.96528179 -0.0562279 5.68850026 0.04316196 8.625 0.3125 C9.42679688 0.37373047 10.22859375 0.43496094 11.0546875 0.49804688 C13.03758124 0.65148508 15.01898519 0.82395693 17 1 C17 1.33 17 1.66 17 2 C14.29273634 2.5064814 11.58442876 3.005351 8.875 3.5 C7.73417969 3.71462891 7.73417969 3.71462891 6.5703125 3.93359375 C2.31957086 4.70312456 -1.65859197 5.16644376 -6 5 C-5.38125 4.731875 -4.7625 4.46375 -4.125 4.1875 C-1.7004767 3.04443152 -1.7004767 3.04443152 0 0 Z " fill="#13105E" transform="translate(107,138)"/>
<path d="M0 0 C0.556875 0.309375 1.11375 0.61875 1.6875 0.9375 C4.15364096 2.07059179 6.33008521 2.54416089 9 3 C10.66666667 3.33333333 12.33333333 3.66666667 14 4 C14 4.99 14 5.98 14 7 C11.09292744 8.22991531 10.01818572 8.00681965 7 6.875 C3.86786356 4.91741473 2.10989484 3.00254266 0 0 Z " fill="#0F095E" transform="translate(71,40)"/>
<path d="M0 0 C1.27881787 3.83645362 1.02593245 7.19831524 0.9375 11.2109375 C0.99847425 13.93191355 1.38435687 16.35465842 2 19 C-0.475 18.01 -0.475 18.01 -3 17 C-2.34 13.04 -1.68 9.08 -1 5 C-1.66 4.67 -2.32 4.34 -3 4 C-2.67 3.34 -2.34 2.68 -2 2 C-1.34 2 -0.68 2 0 2 C0 1.34 0 0.68 0 0 Z " fill="#0E085F" transform="translate(126,107)"/>
<path d="M0 0 C3.28488934 0.56636023 4.92816323 1.36946567 7 4 C7.62511676 7.37337782 7.5155113 10.6131462 7 14 C5.125 16.625 5.125 16.625 3 18 C2.34 18 1.68 18 1 18 C1 17.34 1 16.68 1 16 C1.66 16 2.32 16 3 16 C3 15.01 3 14.02 3 13 C3.99 13 4.98 13 6 13 C4.85619499 5.54937679 4.85619499 5.54937679 0 0 Z " fill="#161259" transform="translate(119,51)"/>
<path d="M0 0 C3.3 0 6.6 0 10 0 C9.67 1.32 9.34 2.64 9 4 C6.03 4 3.06 4 0 4 C0 2.68 0 1.36 0 0 Z " fill="#0D0769" transform="translate(121,71)"/>
<path d="M0 0 C5.44693314 -0.09688221 10.63904667 -0.12862175 16 1 C14.75 2.5 14.75 2.5 13 4 C11.68 4 10.36 4 9 4 C9 3.34 9 2.68 9 2 C6.03 1.67 3.06 1.34 0 1 C0 0.67 0 0.34 0 0 Z " fill="#15105F" transform="translate(48,81)"/>
<path d="M0 0 C0.99 0 1.98 0 3 0 C3 2.31 3 4.62 3 7 C1.68 6.67 0.36 6.34 -1 6 C-1.042721 4.33388095 -1.04063832 2.66617115 -1 1 C-0.67 0.67 -0.34 0.34 0 0 Z " fill="#0A056A" transform="translate(92,63)"/>
<path d="M0 0 C0.33 0 0.66 0 1 0 C1.22126178 2.45779976 1.42750395 4.91527648 1.625 7.375 C1.68945312 8.07367188 1.75390625 8.77234375 1.8203125 9.4921875 C1.96119739 11.32369111 1.98761659 13.16312748 2 15 C1.34 15.66 0.68 16.32 0 17 C-0.66 16.34 -1.32 15.68 -2 15 C-1.67 14.34 -1.34 13.68 -1 13 C-0.77049681 10.795636 -0.58924067 8.58607827 -0.4375 6.375 C-0.35371094 5.18648438 -0.26992188 3.99796875 -0.18359375 2.7734375 C-0.12300781 1.85820313 -0.06242187 0.94296875 0 0 Z " fill="#0D0857" transform="translate(28,110)"/>
<path d="M0 0 C0.99 0 1.98 0 3 0 C3.625 2.875 3.625 2.875 4 6 C3.34 6.66 2.68 7.32 2 8 C0 6 0 6 -0.125 2.875 C-0.08375 1.92625 -0.0425 0.9775 0 0 Z " fill="#0B046C" transform="translate(30,56)"/>
</svg>
