<svg width="26" height="26" viewBox="0 0 26 26" fill="none" xmlns="http://www.w3.org/2000/svg">
<path d="M25.4664 23.1094C23.8598 20.2895 21.3509 18.0923 18.3438 16.8715C19.8392 15.75 20.9438 14.1863 21.5012 12.4021C22.0585 10.6178 22.0404 8.70346 21.4492 6.93012C20.8581 5.15678 19.724 3.61437 18.2076 2.5214C16.6912 1.42842 14.8693 0.840271 13 0.840271C11.1308 0.840271 9.30889 1.42842 7.79246 2.5214C6.27603 3.61437 5.14194 5.15678 4.55083 6.93012C3.95971 8.70346 3.94155 10.6178 4.4989 12.4021C5.05625 14.1863 6.16087 15.75 7.65629 16.8715C4.64916 18.0923 2.14032 20.2895 0.53363 23.1094C0.434074 23.2695 0.36772 23.448 0.338513 23.6342C0.309307 23.8204 0.317843 24.0106 0.363616 24.1935C0.409389 24.3764 0.491463 24.5482 0.60496 24.6987C0.718456 24.8492 0.861058 24.9754 1.02429 25.0697C1.18752 25.164 1.36804 25.2245 1.55513 25.2477C1.74222 25.2708 1.93205 25.2561 2.11334 25.2044C2.29463 25.1527 2.46368 25.0651 2.61043 24.9468C2.75719 24.8285 2.87866 24.6819 2.96761 24.5157C5.09105 20.8453 8.84105 18.6563 13 18.6563C17.159 18.6563 20.909 20.8465 23.0325 24.5157C23.2252 24.8257 23.531 25.0485 23.8852 25.1372C24.2393 25.2258 24.614 25.1733 24.9301 24.9906C25.2462 24.808 25.4789 24.5096 25.579 24.1586C25.6791 23.8075 25.6387 23.4313 25.4664 23.1094ZM6.90629 9.75004C6.90629 8.54481 7.26368 7.36664 7.93327 6.36453C8.60286 5.36242 9.55457 4.58137 10.6681 4.12015C11.7815 3.65892 13.0068 3.53825 14.1889 3.77338C15.3709 4.0085 16.4567 4.58888 17.309 5.4411C18.1612 6.29333 18.7416 7.37913 18.9767 8.5612C19.2118 9.74328 19.0911 10.9685 18.6299 12.082C18.1687 13.1955 17.3877 14.1472 16.3855 14.8168C15.3834 15.4864 14.2053 15.8438 13 15.8438C11.3844 15.8419 9.83556 15.1993 8.69316 14.0569C7.55076 12.9145 6.90815 11.3656 6.90629 9.75004Z" fill="#475569"/>
</svg>
