<?xml version="1.0" encoding="UTF-8"?>
<svg version="1.1" xmlns="http://www.w3.org/2000/svg" width="475" height="157">
<path d="M0 0 C10.85418114 5.63278205 17.3624349 13.58730471 21.1875 25.0625 C21.25779121 27.63515818 21.28120832 30.17891431 21.25 32.75 C21.24548828 33.45189453 21.24097656 34.15378906 21.23632812 34.87695312 C21.22456927 36.60550538 21.20663454 38.33401365 21.1875 40.0625 C21.96480469 40.19785156 22.74210937 40.33320312 23.54296875 40.47265625 C27.08323707 41.26228774 28.18021765 42.01440458 30.1875 45.0625 C30.87375781 48.5348472 30.93756882 51.59762986 30.1875 55.0625 C28.40708772 57.6527127 27.00982853 58.43423354 24.1875 60.0625 C22.8675 60.0625 21.5475 60.0625 20.1875 60.0625 C20.5175 60.3925 20.8475 60.7225 21.1875 61.0625 C23.10945747 60.89923975 23.10945747 60.89923975 25.37109375 60.46875 C26.21607422 60.32566406 27.06105469 60.18257812 27.93164062 60.03515625 C29.72342412 59.72071709 31.51509153 59.4056157 33.30664062 59.08984375 C34.15291016 58.94675781 34.99917969 58.80367187 35.87109375 58.65625 C36.65025146 58.51896484 37.42940918 58.38167969 38.23217773 58.24023438 C40.1875 58.0625 40.1875 58.0625 42.1875 59.0625 C42.56640625 61.09375 42.56640625 61.09375 42.75 63.5625 C42.7667263 66.61231525 42.7667263 66.61231525 44.1875 69.0625 C44.27463831 70.77022358 44.29450007 72.48148649 44.28515625 74.19140625 C44.28032227 75.74311523 44.28032227 75.74311523 44.27539062 77.32617188 C44.26282227 78.9590918 44.26282227 78.9590918 44.25 80.625 C44.24548828 81.71748047 44.24097656 82.80996094 44.23632812 83.93554688 C44.2244984 86.64455432 44.20656231 89.3535338 44.1875 92.0625 C38.7425 93.0525 38.7425 93.0525 33.1875 94.0625 C30.92109799 100.7200559 30.03826716 106.73577335 32.375 113.5 C35.05114239 117.28351166 37.62711772 117.71574838 42 118.6875 C43.0828125 118.873125 43.0828125 118.873125 44.1875 119.0625 C44.1875 121.7025 44.1875 124.3425 44.1875 127.0625 C32.93914713 129.43127078 21.65646069 131.56093237 10.32183838 133.47329712 C8.33759309 133.80826396 6.3540928 134.14763434 4.37060547 134.48706055 C3.13713379 134.69242432 1.90366211 134.89778809 0.6328125 135.109375 C-0.46530762 135.29338867 -1.56342773 135.47740234 -2.69482422 135.66699219 C-5.8125 136.0625 -5.8125 136.0625 -11.8125 136.0625 C-11.8125 115.2725 -11.8125 94.4825 -11.8125 73.0625 C-13.2975 73.5575 -13.2975 73.5575 -14.8125 74.0625 C-15.1425 94.5225 -15.4725 114.9825 -15.8125 136.0625 C-17.4625 136.0625 -19.1125 136.0625 -20.8125 136.0625 C-21.8125 135.0625 -21.8125 135.0625 -21.93275452 132.58848572 C-21.93053391 131.48928299 -21.92831329 130.39008026 -21.92602539 129.25756836 C-21.92594986 128.01635727 -21.92587433 126.77514618 -21.92579651 125.49632263 C-21.92068911 124.1316626 -21.9154731 122.76700298 -21.91015625 121.40234375 C-21.908292 120.01371817 -21.90686813 118.62509193 -21.90586853 117.23646545 C-21.90204387 113.57528885 -21.89221403 109.9141517 -21.88116455 106.25299072 C-21.87094932 102.51957737 -21.86637067 98.78615766 -21.86132812 95.05273438 C-21.85059171 87.72263823 -21.83351591 80.39257464 -21.8125 73.0625 C-22.8025 73.0625 -23.7925 73.0625 -24.8125 73.0625 C-24.8125 93.8525 -24.8125 114.6425 -24.8125 136.0625 C-31.60680325 135.44483607 -38.23992273 134.79152333 -44.953125 133.72265625 C-46.17005035 133.53212929 -46.17005035 133.53212929 -47.41156006 133.3377533 C-49.1057097 133.07143679 -50.79957792 132.80332402 -52.49316406 132.53344727 C-55.07006929 132.12379671 -57.64821357 131.72271697 -60.2265625 131.32226562 C-61.88549776 131.06040906 -63.54435483 130.79805657 -65.203125 130.53515625 C-65.96369202 130.4173732 -66.72425903 130.29959015 -67.50787354 130.17823792 C-72.06747946 129.44376286 -76.39589244 128.41638753 -80.8125 127.0625 C-81.1425 124.7525 -81.4725 122.4425 -81.8125 120.0625 C-80.2346875 119.6603125 -80.2346875 119.6603125 -78.625 119.25 C-75.21554258 118.18803785 -72.71086091 117.10840182 -69.8125 115.0625 C-68.3189527 112.0754054 -68.50618772 109.0251552 -68.4375 105.75 C-68.38851562 104.43386719 -68.33953125 103.11773437 -68.2890625 101.76171875 C-68.93442267 97.2008525 -70.19541168 95.82085512 -73.8125 93.0625 C-77.49691504 92.17722891 -77.49691504 92.17722891 -80.8125 92.0625 C-81.58047796 89.3295814 -81.94055332 86.89472214 -81.9453125 84.05859375 C-81.94660156 83.31802734 -81.94789062 82.57746094 -81.94921875 81.81445312 C-81.94535156 81.05068359 -81.94148438 80.28691406 -81.9375 79.5 C-81.94136719 78.73236328 -81.94523437 77.96472656 -81.94921875 77.17382812 C-81.943481 73.88322861 -81.85997031 71.20491093 -80.8125 68.0625 C-80.1525 68.0625 -79.4925 68.0625 -78.8125 68.0625 C-78.8125 65.0925 -78.8125 62.1225 -78.8125 59.0625 C-75.03294143 57.80264714 -71.96826548 58.42225421 -68.125 59 C-67.42310547 59.09990234 -66.72121094 59.19980469 -65.99804688 59.30273438 C-64.26863473 59.54979325 -62.5404373 59.80532852 -60.8125 60.0625 C-61.61042969 59.60488281 -62.40835938 59.14726563 -63.23046875 58.67578125 C-66.03661441 56.92247088 -66.8354829 56.17119076 -67.8125 53.0625 C-68.26774168 50.07091181 -68.38272222 48.04164652 -66.83203125 45.37890625 C-64.40911589 42.27011946 -62.64730924 40.75899313 -58.8125 40.0625 C-58.84730469 39.38445313 -58.88210937 38.70640625 -58.91796875 38.0078125 C-59.26430908 26.10030215 -56.17371716 16.85316642 -47.9609375 8.0859375 C-35.81299802 -3.28763133 -15.44731087 -5.8991699 0 0 Z M-27.8125 27.0625 C-28.14121094 27.52140625 -28.46992187 27.9803125 -28.80859375 28.453125 C-33.37066754 34.33807655 -38.22772222 37.30796195 -45.61328125 38.5234375 C-48.01573401 38.77489649 -50.39947108 38.96174723 -52.8125 39.0625 C-53.1425 41.0425 -53.4725 43.0225 -53.8125 45.0625 C-56.1225 45.7225 -58.4325 46.3825 -60.8125 47.0625 C-61.49208603 49.45969432 -61.49208603 49.45969432 -61.8125 52.0625 C-59.95165612 54.37335286 -59.95165612 54.37335286 -57 54.1875 C-53.8125 55.0625 -53.8125 55.0625 -52.76342773 56.81225586 C-52.42770752 57.52260986 -52.0919873 58.23296387 -51.74609375 58.96484375 C-50.22522123 61.52367257 -49.343306 62.81652106 -46.62084961 64.078125 C-43.97927983 64.71694441 -41.38199659 65.14696751 -38.6875 65.5 C-37.3571875 65.71946289 -37.3571875 65.71946289 -36 65.94335938 C-33.2757141 66.3756917 -30.55017661 66.72633265 -27.8125 67.0625 C-26.52110107 67.25307983 -26.52110107 67.25307983 -25.20361328 67.44750977 C-17.23687577 68.45421435 -9.82168928 67.43502535 -1.9375 66.125 C-0.64585938 65.94904297 0.64578125 65.77308594 1.9765625 65.59179688 C8.63671055 64.70565292 8.63671055 64.70565292 14.04663086 61.13818359 C15.36377487 59.02419995 15.36377487 59.02419995 16.21801758 56.85131836 C17.1875 55.0625 17.1875 55.0625 19.01049805 54.09985352 C21 53.5625 21 53.5625 24.1875 53.0625 C24.87909401 51.21524948 24.87909401 51.21524948 25.1875 49.0625 C23.47857501 45.74789295 23.47857501 45.74789295 20.0625 45.375 C19.11375 45.271875 18.165 45.16875 17.1875 45.0625 C16.6925 42.0925 16.6925 42.0925 16.1875 39.0625 C15.35089844 39.0531543 14.51429687 39.04380859 13.65234375 39.03417969 C10.51333985 38.9898582 7.37527132 38.92810805 4.23681641 38.85498047 C2.2245146 38.81326728 0.21183605 38.79121469 -1.80078125 38.76953125 C-10.91275204 38.54058726 -16.78870778 37.73639725 -23.6875 31.4375 C-24.38875 30.65375 -25.09 29.87 -25.8125 29.0625 C-26.4725 28.4025 -27.1325 27.7425 -27.8125 27.0625 Z M-73.8125 65.0625 C-73.4825 66.3825 -73.1525 67.7025 -72.8125 69.0625 C-68.66712295 69.40167131 -64.52113782 69.73276953 -60.375 70.0625 C-59.21033203 70.15789062 -58.04566406 70.25328125 -56.84570312 70.3515625 C-50.47698898 70.85388362 -44.20074697 71.1718176 -37.8125 71.0625 C-37.8125 70.7325 -37.8125 70.4025 -37.8125 70.0625 C-42.45684322 69.34757613 -47.10162104 68.63557165 -51.74682617 67.92626953 C-53.3270273 67.68455927 -54.90710665 67.44205153 -56.48706055 67.19873047 C-58.7579851 66.84913794 -61.02933204 66.50241508 -63.30078125 66.15625 C-64.00713211 66.0468811 -64.71348297 65.93751221 -65.4412384 65.8248291 C-68.26761087 65.39644393 -70.94862781 65.0625 -73.8125 65.0625 Z M25.796875 66.15625 C24.73995453 66.32272034 24.73995453 66.32272034 23.66168213 66.49255371 C21.41982283 66.84633188 19.17866553 67.20435579 16.9375 67.5625 C15.41410691 67.80366614 13.89066986 68.04455472 12.3671875 68.28515625 C8.64010787 68.8743892 4.91365192 69.46742987 1.1875 70.0625 C1.1875 70.3925 1.1875 70.7225 1.1875 71.0625 C8.37176675 71.19496053 15.41270368 70.81079679 22.5625 70.125 C23.53316406 70.03798828 24.50382812 69.95097656 25.50390625 69.86132812 C29.49540044 69.48970625 33.31320983 69.12779043 37.1875 68.0625 C37.1875 67.0725 37.1875 66.0825 37.1875 65.0625 C33.28006187 65.0625 29.63618988 65.53812565 25.796875 66.15625 Z M-37.8125 71.0625 C-37.8125 71.3925 -37.8125 71.7225 -37.8125 72.0625 C-35.8325 72.0625 -33.8525 72.0625 -31.8125 72.0625 C-31.8125 71.7325 -31.8125 71.4025 -31.8125 71.0625 C-33.7925 71.0625 -35.7725 71.0625 -37.8125 71.0625 Z M-4.8125 71.0625 C-4.8125 71.3925 -4.8125 71.7225 -4.8125 72.0625 C-2.8325 72.0625 -0.8525 72.0625 1.1875 72.0625 C1.1875 71.7325 1.1875 71.4025 1.1875 71.0625 C-0.7925 71.0625 -2.7725 71.0625 -4.8125 71.0625 Z M18.1875 92.0625 C19.1875 95.0625 19.1875 95.0625 19.1875 95.0625 Z M3.1875 95.0625 C4.1875 97.0625 4.1875 97.0625 4.1875 97.0625 Z M23.1875 101.0625 C22.878125 102.01125 22.56875 102.96 22.25 103.9375 C20.00634462 107.33697785 19.66088862 107.57484097 15.9375 108.4375 C10.87443318 109.25385768 6.10973542 109.70324514 1.1875 108.0625 C0.5 106 0.5 106 0.1875 104.0625 C-1.1325 104.3925 -2.4525 104.7225 -3.8125 105.0625 C-0.9329024 109.63998509 -0.9329024 109.63998509 3.1875 113.0625 C11.13581822 114.05122456 18.18495737 113.06440697 24.6875 108.1875 C26.50488494 105.61287133 26.5304354 104.14891861 26.1875 101.0625 C25.1975 101.0625 24.2075 101.0625 23.1875 101.0625 Z " fill="#0B046A" transform="translate(94.8125,9.9375)"/>
<path d="M0 0 C1.34090759 0.65129797 2.67592331 1.31513275 4 2 C5.3436933 1.71124889 6.67645813 1.37030503 8 1 C12.28213946 0.17268146 15.74477836 -0.49117369 19.875 1.125 C22.97473586 3.86006106 24.81165704 6.13117654 25.23925781 10.37402344 C25.29516133 13.19257698 25.26131176 15.99440501 25.1875 18.8125 C25.16719727 20.28106445 25.16719727 20.28106445 25.14648438 21.77929688 C25.11125796 24.18643541 25.05745463 26.59328943 25 29 C21.37 29 17.74 29 14 29 C13.67 22.73 13.34 16.46 13 10 C11.68 9.67 10.36 9.34 9 9 C7.45049732 10.54950268 7.78344807 12.09990594 7.68359375 14.25390625 C7.64169922 15.10791016 7.59980469 15.96191406 7.55664062 16.84179688 C7.51732422 17.73962891 7.47800781 18.63746094 7.4375 19.5625 C7.39431641 20.46419922 7.35113281 21.36589844 7.30664062 22.29492188 C7.20022016 24.52975156 7.09957519 26.76485486 7 29 C3.04 29 -0.92 29 -5 29 C-5.495 19.595 -5.495 19.595 -6 10 C-7.65 9.67 -9.3 9.34 -11 9 C-11.33 15.6 -11.66 22.2 -12 29 C-15.63 29 -19.26 29 -23 29 C-23 19.76 -23 10.52 -23 1 C-18.33333333 1 -13.66666667 1 -9 1 C-5.97562661 -0.5121867 -3.33758466 -0.17263369 0 0 Z " fill="#0C0667" transform="translate(305,68)"/>
<path d="M0 0 C1.34090759 0.65129797 2.67592331 1.31513275 4 2 C5.3436933 1.71124889 6.67645813 1.37030503 8 1 C12.28213946 0.17268146 15.74477836 -0.49117369 19.875 1.125 C22.97473586 3.86006106 24.81165704 6.13117654 25.23925781 10.37402344 C25.29516133 13.19257698 25.26131176 15.99440501 25.1875 18.8125 C25.16719727 20.28106445 25.16719727 20.28106445 25.14648438 21.77929688 C25.11125796 24.18643541 25.05745463 26.59328943 25 29 C21.37 29 17.74 29 14 29 C13.67 22.73 13.34 16.46 13 10 C11.68 9.67 10.36 9.34 9 9 C7.45049732 10.54950268 7.78344807 12.09990594 7.68359375 14.25390625 C7.64169922 15.10791016 7.59980469 15.96191406 7.55664062 16.84179688 C7.51732422 17.73962891 7.47800781 18.63746094 7.4375 19.5625 C7.39431641 20.46419922 7.35113281 21.36589844 7.30664062 22.29492188 C7.20022016 24.52975156 7.09957519 26.76485486 7 29 C3.04 29 -0.92 29 -5 29 C-5.495 19.595 -5.495 19.595 -6 10 C-7.32 9.67 -8.64 9.34 -10 9 C-10.86419223 11.59257669 -11.17580932 13.34037707 -11.31640625 16.01171875 C-11.35830078 16.76904297 -11.40019531 17.52636719 -11.44335938 18.30664062 C-11.48267578 19.09232422 -11.52199219 19.87800781 -11.5625 20.6875 C-11.60568359 21.48478516 -11.64886719 22.28207031 -11.69335938 23.10351562 C-11.79927368 25.06881447 -11.90012551 27.03438496 -12 29 C-15.63 29 -19.26 29 -23 29 C-23 19.76 -23 10.52 -23 1 C-18.33333333 1 -13.66666667 1 -9 1 C-5.97562661 -0.5121867 -3.33758466 -0.17263369 0 0 Z " fill="#0D0667" transform="translate(253,68)"/>
<path d="M0 0 C2 3 2 3 2 6 C3.65 5.67 5.3 5.34 7 5 C7 4.34 7 3.68 7 3 C7.99 2.67 8.98 2.34 10 2 C12.5835144 3.77616615 13.83893332 5.21711034 14.4765625 8.31640625 C14.84230151 14.77458716 14.84230151 14.77458716 12.7890625 17.76171875 C9.72800605 20.47316215 8.1195705 21 4 21 C4.33 21.33 4.66 21.66 5 22 C6.92195747 21.83673975 6.92195747 21.83673975 9.18359375 21.40625 C10.45106445 21.19162109 10.45106445 21.19162109 11.74414062 20.97265625 C13.53592412 20.65821709 15.32759153 20.3431157 17.11914062 20.02734375 C18.38854492 19.81271484 18.38854492 19.81271484 19.68359375 19.59375 C20.46275146 19.45646484 21.24190918 19.31917969 22.04467773 19.17773438 C24 19 24 19 26 20 C26.37890625 22.03125 26.37890625 22.03125 26.5625 24.5 C26.5792263 27.54981525 26.5792263 27.54981525 28 30 C28.08713831 31.70772358 28.10700007 33.41898649 28.09765625 35.12890625 C28.09282227 36.68061523 28.09282227 36.68061523 28.08789062 38.26367188 C28.07532227 39.8965918 28.07532227 39.8965918 28.0625 41.5625 C28.05798828 42.65498047 28.05347656 43.74746094 28.04882812 44.87304688 C28.0369984 47.58205432 28.01906231 50.2910338 28 53 C24.37 53.66 20.74 54.32 17 55 C17.66 54.01 18.32 53.02 19 52 C21.64 52 24.28 52 27 52 C27 45.07 27 38.14 27 31 C26.34 31 25.68 31 25 31 C24.67 27.7 24.34 24.4 24 21 C21.35323911 21.47444755 18.70766636 21.95431328 16.0625 22.4375 C15.30775391 22.57220703 14.55300781 22.70691406 13.77539062 22.84570312 C10.08046826 23.24272034 10.08046826 23.24272034 7 25 C10.3 25.33 13.6 25.66 17 26 C17 26.33 17 26.66 17 27 C12.57197934 27.71907047 8.14286952 28.43088791 3.71264648 29.13623047 C2.20810105 29.37678983 0.70386154 29.61927128 -0.80004883 29.86376953 C-2.97137614 30.2164213 -5.1437378 30.56196963 -7.31640625 30.90625 C-7.98023819 31.0156189 -8.64407013 31.12498779 -9.32801819 31.2376709 C-13.5892206 31.9040337 -17.69073797 32.09754979 -22 32 C-19.8614515 29.8614515 -18.86724686 29.57344937 -16 29 C-17.32 28.34 -18.64 27.68 -20 27 C-20 27.66 -20 28.32 -20 29 C-21.65 28.67 -23.3 28.34 -25 28 C-25.33 28.99 -25.66 29.98 -26 31 C-26.66 31 -27.32 31 -28 31 C-28 30.34 -28 29.68 -28 29 C-30.31 29.33 -32.62 29.66 -35 30 C-35 30.66 -35 31.32 -35 32 C-32.36 32.33 -29.72 32.66 -27 33 C-27 53.79 -27 74.58 -27 96 C-22.545 95.505 -22.545 95.505 -18 95 C-22 97 -22 97 -28 97 C-28 76.21 -28 55.42 -28 34 C-29.485 34.495 -29.485 34.495 -31 35 C-31.33 55.46 -31.66 75.92 -32 97 C-33.65 97 -35.3 97 -37 97 C-38 96 -38 96 -38.12025452 93.52598572 C-38.11803391 92.42678299 -38.11581329 91.32758026 -38.11352539 90.19506836 C-38.11344986 88.95385727 -38.11337433 87.71264618 -38.11329651 86.43382263 C-38.10818911 85.0691626 -38.1029731 83.70450298 -38.09765625 82.33984375 C-38.095792 80.95121817 -38.09436813 79.56259193 -38.09336853 78.17396545 C-38.08954387 74.51278885 -38.07971403 70.8516517 -38.06866455 67.19049072 C-38.05844932 63.45707737 -38.05387067 59.72365766 -38.04882812 55.99023438 C-38.03809171 48.66013823 -38.02101591 41.33007464 -38 34 C-38.99 34 -39.98 34 -41 34 C-41 54.79 -41 75.58 -41 97 C-44.3 96.67 -47.6 96.34 -51 96 C-51 95.67 -51 95.34 -51 95 C-48.03 95.33 -45.06 95.66 -42 96 C-42.33 73.56 -42.66 51.12 -43 28 C-39.7 28 -36.4 28 -33 28 C-28.02510075 27.55572507 -23.11953633 26.78175639 -18.1875 26 C-16.89134766 25.82855469 -15.59519531 25.65710938 -14.25976562 25.48046875 C-7.56693455 24.63144133 -7.56693455 24.63144133 -2.13647461 21.0625 C-0.8186044 18.93378266 -0.8186044 18.93378266 0.03271484 16.7421875 C0.35191895 16.16726562 0.67112305 15.59234375 1 15 C4.8125 14 4.8125 14 8 14 C7.505 11.03 7.505 11.03 7 8 C4.69 7.34 2.38 6.68 0 6 C0 4.02 0 2.04 0 0 Z " fill="#110C5C" transform="translate(111,49)"/>
<path d="M0 0 C3.60315214 1.69441913 6.55167513 3.63850651 8.3515625 7.23828125 C8.3515625 8.55828125 8.3515625 9.87828125 8.3515625 11.23828125 C4.0615625 11.23828125 -0.2284375 11.23828125 -4.6484375 11.23828125 C-4.9784375 10.57828125 -5.3084375 9.91828125 -5.6484375 9.23828125 C-9.20536427 8.3877118 -11.14114328 8.06918318 -14.6484375 9.23828125 C-14.6484375 9.89828125 -14.6484375 10.55828125 -14.6484375 11.23828125 C-13.35750617 11.67794627 -12.06562914 12.11483424 -10.7734375 12.55078125 C-9.95617187 12.82792969 -9.13890625 13.10507813 -8.296875 13.390625 C-6.54573339 13.95109363 -4.77902277 14.46525235 -3 14.9296875 C2.30746996 16.32429297 6.16375761 17.45657392 9.3515625 22.23828125 C10.03305031 27.00869593 9.83047914 29.18067366 7.8515625 33.55078125 C3.96935952 37.72414946 0.28128628 38.93123596 -5.33203125 39.51953125 C-12.92784326 39.77237381 -18.68330252 38.6987124 -24.5859375 33.80078125 C-26.46780203 31.46270714 -27.43671019 30.20246366 -27.6484375 27.23828125 C-25.83723931 25.42708306 -23.15062358 26.02309247 -20.7109375 25.98828125 C-19.62941406 25.9625 -18.54789063 25.93671875 -17.43359375 25.91015625 C-16.51449219 26.0184375 -15.59539062 26.12671875 -14.6484375 26.23828125 C-13.9884375 27.22828125 -13.3284375 28.21828125 -12.6484375 29.23828125 C-10.51590105 29.71515428 -10.51590105 29.71515428 -8.1484375 29.61328125 C-7.354375 29.62101562 -6.5603125 29.62875 -5.7421875 29.63671875 C-4.70578125 29.43949219 -4.70578125 29.43949219 -3.6484375 29.23828125 C-2.9884375 28.24828125 -2.3284375 27.25828125 -1.6484375 26.23828125 C-2.79441406 25.9959375 -3.94039062 25.75359375 -5.12109375 25.50390625 C-6.65117637 25.16597389 -8.18111691 24.82739781 -9.7109375 24.48828125 C-10.83918945 24.25238281 -10.83918945 24.25238281 -11.99023438 24.01171875 C-17.57902187 22.75363672 -23.452729 21.10224885 -27.0859375 16.36328125 C-28.26078 11.92498736 -28.1291107 9.18114022 -26.0234375 5.05078125 C-19.69000125 -2.44934063 -8.97439045 -2.58113 0 0 Z " fill="#0B0566" transform="translate(181.6484375,58.76171875)"/>
<path d="M0 0 C5.61 0 11.22 0 17 0 C20.12208114 7.54502942 22.77718999 15.15730701 25.25 22.9375 C25.61351562 24.05962891 25.97703125 25.18175781 26.3515625 26.33789062 C26.69445312 27.41103516 27.03734375 28.48417969 27.390625 29.58984375 C27.70032227 30.55784912 28.01001953 31.52585449 28.32910156 32.52319336 C29 35 29 35 29 38 C25.04 38 21.08 38 17 38 C16.34 36.02 15.68 34.04 15 32 C10.71 31.67 6.42 31.34 2 31 C1.67 32.98 1.34 34.96 1 37 C0 38 0 38 -2.72265625 38.09765625 C-3.82480469 38.08605469 -4.92695313 38.07445312 -6.0625 38.0625 C-7.16722656 38.05347656 -8.27195312 38.04445312 -9.41015625 38.03515625 C-10.69212891 38.01775391 -10.69212891 38.01775391 -12 38 C-8.24453283 25.24206542 -4.26665853 12.59680138 0 0 Z M8 10 C7.49440092 11.43554025 6.9957251 12.8735202 6.5 14.3125 C6.2215625 15.11300781 5.943125 15.91351563 5.65625 16.73828125 C4.86066893 19.08769422 4.86066893 19.08769422 5 22 C7.64 22 10.28 22 13 22 C12.55149342 20.18504338 12.09090429 18.37306866 11.625 16.5625 C11.24214844 15.04849609 11.24214844 15.04849609 10.8515625 13.50390625 C10.27426046 10.84429676 10.27426046 10.84429676 8 10 Z " fill="#0B0568" transform="translate(402,59)"/>
<path d="M0 0 C5.10158639 6.0413523 5.1510012 11.6945894 5.0625 19.3125 C5.05798828 20.05306641 5.05347656 20.79363281 5.04882812 21.55664062 C5.03712175 23.37112899 5.01918898 25.18557534 5 27 C4.09636719 26.98839844 3.19273437 26.97679688 2.26171875 26.96484375 C0.49248047 26.95130859 0.49248047 26.95130859 -1.3125 26.9375 C-2.48425781 26.92589844 -3.65601563 26.91429688 -4.86328125 26.90234375 C-8.03059195 26.85100102 -8.03059195 26.85100102 -11 28 C-16.35480837 28.34547151 -19.6384043 28.46362011 -24 25 C-26.48038907 21.2794164 -26.46337203 19.40203429 -26 15 C-23.49873313 11.14388025 -20.40363242 10.22399455 -16.10546875 9.3046875 C-13.02504457 8.85891183 -10.10823042 8.8704904 -7 9 C-7 8.34 -7 7.68 -7 7 C-8.99954746 6.95745644 -11.00041636 6.95919217 -13 7 C-13.33 7.33 -13.66 7.66 -14 8 C-15.85287502 8.07226502 -17.70833878 8.0838122 -19.5625 8.0625 C-20.57441406 8.05347656 -21.58632813 8.04445313 -22.62890625 8.03515625 C-23.41136719 8.02355469 -24.19382812 8.01195313 -25 8 C-23.42552722 3.6175965 -21.88713176 1.65462657 -18 -1 C-12.02274177 -2.99241941 -5.76103944 -2.43736284 0 0 Z M-15 18 C-14.67 18.66 -14.34 19.32 -14 20 C-10.535 19.505 -10.535 19.505 -7 19 C-7 18.01 -7 17.02 -7 16 C-10.76687864 16 -11.91190305 16.23537317 -15 18 Z " fill="#0B0666" transform="translate(359,70)"/>
<path d="M0 0 C3.96 0 7.92 0 12 0 C12.33 6.27 12.66 12.54 13 19 C16.63619656 20.08084521 16.63619656 20.08084521 19 20 C19.33 13.4 19.66 6.8 20 0 C23.96 0 27.92 0 32 0 C32 9.24 32 18.48 32 28 C27.71 28 23.42 28 19 28 C18.01 28.33 17.02 28.66 16 29 C10.788206 29.39334294 7.36103195 28.97343088 3 26 C-0.58800293 20.66442859 -0.35941402 15.8050885 -0.1875 9.625 C-0.17396484 8.69816406 -0.16042969 7.77132812 -0.14648438 6.81640625 C-0.11134435 4.54401792 -0.05754423 2.27193138 0 0 Z " fill="#0C0668" transform="translate(194,69)"/>
<path d="M0 0 C3.96 0 7.92 0 12 0 C12 12.54 12 25.08 12 38 C8.04 38 4.08 38 0 38 C0 25.46 0 12.92 0 0 Z " fill="#0B0566" transform="translate(433,59)"/>
<path d="M0 0 C1 1 1 1 1.09765625 2.84765625 C1.06510417 4.8984375 1.03255208 6.94921875 1 9 C-0.98567708 9.22786458 -2.97135417 9.45572917 -4.95703125 9.68359375 C-7.19396393 9.97170735 -7.19396393 9.97170735 -10 11 C-10 16.94 -10 22.88 -10 29 C-13.96 29 -17.92 29 -22 29 C-22 19.76 -22 10.52 -22 1 C-17.33333333 1 -12.66666667 1 -8 1 C-5.05549278 0.01849759 -3.06481021 -0.1613058 0 0 Z " fill="#0C0665" transform="translate(389,68)"/>
<path d="M0 0 C0.94746094 -0.02835937 1.89492188 -0.05671875 2.87109375 -0.0859375 C5.5625 0.375 5.5625 0.375 7.88671875 1.98828125 C10.09199956 5.12913574 10.03278455 7.1304493 9.9375 10.9375 C9.91816406 12.64099609 9.91816406 12.64099609 9.8984375 14.37890625 C9.5625 17.375 9.5625 17.375 7.5625 20.375 C4.95194406 20.62390658 2.60155078 20.7022977 0 20.625 C-1.04704102 20.61726563 -1.04704102 20.61726563 -2.11523438 20.609375 C-7.2833282 20.5291718 -7.2833282 20.5291718 -8.4375 19.375 C-8.59072744 16.54913249 -8.66912755 13.76456118 -8.6875 10.9375 C-8.708125 10.14794922 -8.72875 9.35839844 -8.75 8.54492188 C-8.765625 6.25390625 -8.765625 6.25390625 -8.4375 2.375 C-5.13363642 0.17242428 -3.86932123 0.05250097 0 0 Z " fill="#0C0566" transform="translate(14.4375,104.625)"/>
<path d="M0 0 C1.44246094 0.03673828 1.44246094 0.03673828 2.9140625 0.07421875 C5.375 0.3125 5.375 0.3125 7.375 1.3125 C7.375 7.5825 7.375 13.8525 7.375 20.3125 C4.94125 20.374375 2.5075 20.43625 0 20.5 C-1.14734619 20.54096802 -1.14734619 20.54096802 -2.31787109 20.58276367 C-4.08907019 20.6047324 -5.85992083 20.46124263 -7.625 20.3125 C-9.97990728 16.78013908 -9.95243705 15.06529632 -10 10.875 C-10.02835938 9.74191406 -10.05671875 8.60882813 -10.0859375 7.44140625 C-9.625 4.3125 -9.625 4.3125 -7.953125 1.921875 C-5.07125329 -0.07029135 -3.47157853 -0.13568164 0 0 Z " fill="#0D0665" transform="translate(138.625,104.6875)"/>
<path d="M0 0 C0.66 0 1.32 0 2 0 C2 20.79 2 41.58 2 63 C1.01 63 0.02 63 -1 63 C-1.02312737 54.93347826 -1.04091709 46.86697028 -1.05181217 38.80042362 C-1.05704014 35.05516963 -1.06413622 31.30993824 -1.07543945 27.56469727 C-1.08627141 23.95318313 -1.09227749 20.34169079 -1.09487724 16.73016167 C-1.09673094 15.34939671 -1.10035049 13.968633 -1.10573006 12.58787727 C-1.11294447 10.66024048 -1.11340809 8.73258193 -1.11352539 6.80493164 C-1.115746 5.70572891 -1.11796661 4.60652618 -1.12025452 3.47401428 C-1 1 -1 1 0 0 Z " fill="#0A0468" transform="translate(76,82)"/>
<path d="M0 0 C0.06058594 0.63808594 0.12117188 1.27617188 0.18359375 1.93359375 C0.26738281 2.75988281 0.35117188 3.58617188 0.4375 4.4375 C0.51871094 5.26121094 0.59992188 6.08492188 0.68359375 6.93359375 C0.78930815 8.98662025 0.78930815 8.98662025 2 10 C2.08713831 11.70772358 2.10700007 13.41898649 2.09765625 15.12890625 C2.09443359 16.16337891 2.09121094 17.19785156 2.08789062 18.26367188 C2.07532227 19.8965918 2.07532227 19.8965918 2.0625 21.5625 C2.05798828 22.65498047 2.05347656 23.74746094 2.04882812 24.87304688 C2.0369984 27.58205432 2.01906231 30.2910338 2 33 C-1.63 33.66 -5.26 34.32 -9 35 C-8.34 34.01 -7.68 33.02 -7 32 C-4.36 32 -1.72 32 1 32 C1 25.07 1 18.14 1 11 C0.34 11 -0.32 11 -1 11 C-1.33 7.7 -1.66 4.4 -2 1 C-4.64676089 1.47444755 -7.29233364 1.95431328 -9.9375 2.4375 C-11.06961914 2.63956055 -11.06961914 2.63956055 -12.22460938 2.84570312 C-15.91953174 3.24272034 -15.91953174 3.24272034 -19 5 C-15.7 5.33 -12.4 5.66 -9 6 C-9 6.33 -9 6.66 -9 7 C-17.58 8.32 -26.16 9.64 -35 11 C-35.33 10.34 -35.66 9.68 -36 9 C-34.02 8.67 -32.04 8.34 -30 8 C-30 7.34 -30 6.68 -30 6 C-28.02253397 5.26919734 -26.01927511 4.60578253 -24 4 C-23.34 4.33 -22.68 4.66 -22 5 C-21.67 4.01 -21.34 3.02 -21 2 C-18.0638549 1.47023682 -15.12651442 0.95087475 -12.1875 0.4375 C-10.93743164 0.21030273 -10.93743164 0.21030273 -9.66210938 -0.02148438 C-8.45844727 -0.2293457 -8.45844727 -0.2293457 -7.23046875 -0.44140625 C-6.49207764 -0.57232666 -5.75368652 -0.70324707 -4.99291992 -0.83813477 C-3 -1 -3 -1 0 0 Z " fill="#100B52" transform="translate(137,69)"/>
<path d="M0 0 C1.08152344 -0.02578125 2.16304687 -0.0515625 3.27734375 -0.078125 C4.19644531 0.03015625 5.11554688 0.1384375 6.0625 0.25 C6.7225 1.24 7.3825 2.23 8.0625 3.25 C10.19963301 3.65171173 10.19963301 3.65171173 12.5625 3.5 C13.3565625 3.48453125 14.150625 3.4690625 14.96875 3.453125 C17.11985328 3.37080522 17.11985328 3.37080522 19.0625 2.25 C18.7325 3.24 18.4025 4.23 18.0625 5.25 C16.59876953 5.19779297 16.59876953 5.19779297 15.10546875 5.14453125 C13.83316406 5.11746094 12.56085938 5.09039062 11.25 5.0625 C9.98542969 5.02769531 8.72085938 4.99289063 7.41796875 4.95703125 C4.09653555 4.94172579 4.09653555 4.94172579 2.11328125 6.76171875 C1.76652344 7.25285156 1.41976562 7.74398437 1.0625 8.25 C1.990625 8.683125 1.990625 8.683125 2.9375 9.125 C5.0625 10.25 5.0625 10.25 7.0625 12.25 C1.82041005 11.83885569 -1.27310611 11.12378783 -4.9375 7.25 C-6.25 4 -6.25 4 -6.9375 1.25 C-5.12630181 -0.56119819 -2.43968608 0.03481122 0 0 Z " fill="#0D075C" transform="translate(160.9375,84.75)"/>
<path d="M0 0 C1.875 -0.36328125 1.875 -0.36328125 4 -0.3125 C4.70125 -0.30863281 5.4025 -0.30476563 6.125 -0.30078125 C8 0 8 0 10 2 C10.265625 3.875 10.265625 3.875 10.25 6 C10.25515625 6.70125 10.2603125 7.4025 10.265625 8.125 C10 10 10 10 8 12 C6.125 12.30078125 6.125 12.30078125 4 12.3125 C3.29875 12.32925781 2.5975 12.34601563 1.875 12.36328125 C1.25625 12.24339844 0.6375 12.12351562 0 12 C-2.31332486 8.53001271 -2.33957563 7.07490752 -2 3 C-1.34 2.01 -0.68 1.02 0 0 Z M3 2 C1.64381501 3.12534105 1.64381501 3.12534105 1.9375 6.0625 C1.958125 7.031875 1.97875 8.00125 2 9 C3.32 9 4.64 9 6 9 C6.69159401 7.15274948 6.69159401 7.15274948 7 5 C6.34 4.01 5.68 3.02 5 2 C4.34 2 3.68 2 3 2 Z " fill="#140C56" transform="translate(347,114)"/>
<path d="M0 0 C6.15234375 -0.09765625 6.15234375 -0.09765625 8 0 C9 1 9 1 9.09765625 2.84765625 C9.06510417 4.8984375 9.03255208 6.94921875 9 9 C6.60530271 9.50604924 4.20948283 10.00499517 1.8125 10.5 C1.13896484 10.64308594 0.46542969 10.78617188 -0.22851562 10.93359375 C-3.87509793 11.68069842 -7.27648957 12.17352282 -11 12 C-8.60236815 9.60236815 -7.66726502 9.65719414 -4.375 9.375 C-2.209375 9.189375 -2.209375 9.189375 0 9 C0 6.03 0 3.06 0 0 Z " fill="#0B075C" transform="translate(130,128)"/>
<path d="M0 0 C2.97 0 5.94 0 9 0 C9.8441938 3.97977076 10.44687265 7.97007218 11 12 C9.68 12 8.36 12 7 12 C6.34 10.68 5.68 9.36 5 8 C4.67 9.32 4.34 10.64 4 12 C2.68 12 1.36 12 0 12 C0 8.04 0 4.08 0 0 Z M4 2 C4 2.99 4 3.98 4 5 C4.99 4.67 5.98 4.34 7 4 C6.67 3.34 6.34 2.68 6 2 C5.34 2 4.68 2 4 2 Z " fill="#141370" transform="translate(284,114)"/>
<path d="M0 0 C1.4840332 -0.01740234 1.4840332 -0.01740234 2.99804688 -0.03515625 C9.17585018 -0.01055982 13.79696843 0.83977891 19.4375 3.375 C18.4475 4.035 17.4575 4.695 16.4375 5.375 C15.4475 5.045 14.4575 4.715 13.4375 4.375 C13.4375 3.715 13.4375 3.055 13.4375 2.375 C3.5375 2.87 3.5375 2.87 -6.5625 3.375 C-6.8925 4.365 -7.2225 5.355 -7.5625 6.375 C-8.18125 6.045 -8.8 5.715 -9.4375 5.375 C-13.00958523 3.69401872 -15.49031264 4.84322678 -19.1875 5.875 C-20.19039062 6.1534375 -21.19328125 6.431875 -22.2265625 6.71875 C-22.99742188 6.9353125 -23.76828125 7.151875 -24.5625 7.375 C-18.53749602 -0.22174414 -8.9252874 -0.10507206 0 0 Z " fill="#110B65" transform="translate(76.5625,7.625)"/>
<path d="M0 0 C1.65 0 3.3 0 5 0 C5.6708712 1.6232687 6.33657029 3.24867578 7 4.875 C7.556875 6.23238281 7.556875 6.23238281 8.125 7.6171875 C9 10 9 10 9 12 C7.68 12 6.36 12 5 12 C5 11.01 5 10.02 5 9 C3.68 9 2.36 9 1 9 C1 9.99 1 10.98 1 12 C-0.32 12 -1.64 12 -3 12 C-2.68950274 10.56206608 -2.3765224 9.1246682 -2.0625 7.6875 C-1.88847656 6.88699219 -1.71445313 6.08648437 -1.53515625 5.26171875 C-1 3 -1 3 0 0 Z M2 5 C2 5.66 2 6.32 2 7 C2.66 6.67 3.32 6.34 4 6 C3.34 5.67 2.68 5.34 2 5 Z " fill="#0F0F69" transform="translate(241,114)"/>
<path d="M0 0 C1.65 0 3.3 0 5 0 C6.32 3.96 7.64 7.92 9 12 C7.68 12 6.36 12 5 12 C4.67 11.34 4.34 10.68 4 10 C3.01 10 2.02 10 1 10 C0.67 10.66 0.34 11.32 0 12 C-1.32 11.67 -2.64 11.34 -4 11 C-2.68 7.37 -1.36 3.74 0 0 Z M2 5 C3 7 3 7 3 7 Z " fill="#16136D" transform="translate(310,114)"/>
<path d="M0 0 C2.97 0 5.94 0 9 0 C9.625 2.875 9.625 2.875 10 6 C9.34 6.66 8.68 7.32 8 8 C6.68 8 5.36 8 4 8 C4 9.32 4 10.64 4 12 C2.68 12 1.36 12 0 12 C0 8.04 0 4.08 0 0 Z M4 2 C4.33 3.32 4.66 4.64 5 6 C5 4.68 5 3.36 5 2 C4.67 2 4.34 2 4 2 Z " fill="#120A62" transform="translate(224,114)"/>
<path d="M0 0 C6.0546875 -0.1953125 6.0546875 -0.1953125 8 0 C8.66 0.66 9.32 1.32 10 2 C9.625 4.625 9.625 4.625 9 7 C7.35 7.33 5.7 7.66 4 8 C4 9.32 4 10.64 4 12 C2.68 12 1.36 12 0 12 C0 8.04 0 4.08 0 0 Z M4 2 C4.33 3.32 4.66 4.64 5 6 C5 4.68 5 3.36 5 2 C4.67 2 4.34 2 4 2 Z " fill="#060562" transform="translate(255,114)"/>
<path d="M0 0 C3.63 0 7.26 0 11 0 C9.47426795 3.81433013 8.47253678 5.96552304 6 9 C7.65 9.33 9.3 9.66 11 10 C11 10.66 11 11.32 11 12 C7.37 12 3.74 12 0 12 C1.52573205 8.18566987 2.52746322 6.03447696 5 3 C3.35 2.67 1.7 2.34 0 2 C0 1.34 0 0.68 0 0 Z " fill="#130E5C" transform="translate(369,114)"/>
<path d="M0 0 C2.97 0 5.94 0 9 0 C9 0.66 9 1.32 9 2 C7.35 2 5.7 2 4 2 C4 2.99 4 3.98 4 5 C5.32 5 6.64 5 8 5 C8 5.66 8 6.32 8 7 C6.68 7 5.36 7 4 7 C4 7.99 4 8.98 4 10 C5.65 10 7.3 10 9 10 C9 10.66 9 11.32 9 12 C6.03 12 3.06 12 0 12 C0 8.04 0 4.08 0 0 Z " fill="#161067" transform="translate(270,114)"/>
<path d="M0 0 C1.65 1.32 3.3 2.64 5 4 C4.01 4 3.02 4 2 4 C1.87625 4.78375 1.7525 5.5675 1.625 6.375 C1 9 1 9 -1 11 C-6.28163124 12.7426156 -11.4758822 13.23506884 -17 13 C-17.33 12.34 -17.66 11.68 -18 11 C-16.02 10.67 -14.04 10.34 -12 10 C-12.66 9.01 -13.32 8.02 -14 7 C-13.01 6.34 -12.02 5.68 -11 5 C-8 7 -8 7 -6 10 C-4.35 9.34 -2.7 8.68 -1 8 C-1.0309375 6.2984375 -1.0309375 6.2984375 -1.0625 4.5625 C-1 1 -1 1 0 0 Z " fill="#0E075F" transform="translate(116,107)"/>
<path d="M0 0 C0.99 0 1.98 0 3 0 C2.67 0.99 2.34 1.98 2 3 C5.3 3.33 8.6 3.66 12 4 C12 4.33 12 4.66 12 5 C3.42 6.32 -5.16 7.64 -14 9 C-14.33 8.34 -14.66 7.68 -15 7 C-13.02 6.67 -11.04 6.34 -9 6 C-9 5.34 -9 4.68 -9 4 C-7.02253397 3.26919734 -5.01927511 2.60578253 -3 2 C-2.34 2.33 -1.68 2.66 -1 3 C-0.67 2.01 -0.34 1.02 0 0 Z " fill="#0B0659" transform="translate(116,71)"/>
<path d="M0 0 C2.625 0.375 2.625 0.375 5 1 C5.80967438 3.91482778 6.21845993 5.46113217 5.0625 8.3125 C4.5365625 9.1478125 4.5365625 9.1478125 4 10 C2.35 9.67 0.7 9.34 -1 9 C-1.625 5.625 -1.625 5.625 -2 2 C-1.34 1.34 -0.68 0.68 0 0 Z " fill="#110A52" transform="translate(59,62)"/>
<path d="M0 0 C1.65 0.33 3.3 0.66 5 1 C5.625 3.8125 5.625 3.8125 6 7 C5.01 8.485 5.01 8.485 4 10 C2.35 9.67 0.7 9.34 -1 9 C-1.625 6.1875 -1.625 6.1875 -2 3 C-1.34 2.01 -0.68 1.02 0 0 Z " fill="#100B5A" transform="translate(90,62)"/>
<path d="M0 0 C3.63 0 7.26 0 11 0 C11 0.66 11 1.32 11 2 C9.68 2 8.36 2 7 2 C7 5.3 7 8.6 7 12 C5.68 12 4.36 12 3 12 C3 9.03 3 6.06 3 3 C2.01 2.67 1.02 2.34 0 2 C0 1.34 0 0.68 0 0 Z " fill="#261B57" transform="translate(330,114)"/>
<path d="M0 0 C1.66611905 -0.042721 3.33382885 -0.04063832 5 0 C6 1 6 1 6.09765625 2.84765625 C6.04882812 5.92382812 6.04882812 5.92382812 6 9 C4.01432292 9.22786458 2.02864583 9.45572917 0.04296875 9.68359375 C-2.19396393 9.97170735 -2.19396393 9.97170735 -5 11 C-5.33 10.01 -5.66 9.02 -6 8 C-5.2575 7.71125 -4.515 7.4225 -3.75 7.125 C-1.43260203 6.17697356 0.77917115 5.15154089 3 4 C3 3.01 3 2.02 3 1 C2.01 0.67 1.02 0.34 0 0 Z " fill="#0D095B" transform="translate(384,68)"/>
<path d="M0 0 C0.33 0.66 0.66 1.32 1 2 C0.34 1.67 -0.32 1.34 -1 1 C-0.67 0.67 -0.34 0.34 0 0 Z M-1 2 C-1 2.66 -1 3.32 -1 4 C1.64 4 4.28 4 7 4 C7 4.66 7 5.32 7 6 C1.64189031 6.16898112 -3.19349172 5.56511422 -8.4375 4.5 C-9.16904297 4.35691406 -9.90058594 4.21382812 -10.65429688 4.06640625 C-12.43735486 3.71678704 -14.21885203 3.35922312 -16 3 C-16 2.67 -16 2.34 -16 2 C-13.87562788 1.80551523 -11.75046809 1.61961711 -9.625 1.4375 C-8.44164062 1.33308594 -7.25828125 1.22867188 -6.0390625 1.12109375 C-3 1 -3 1 -1 2 Z " fill="#0E0A59" transform="translate(46,137)"/>
<path d="M0 0 C0 3 0 3 -2 6 C-0.02 6 1.96 6 4 6 C3.67 4.68 3.34 3.36 3 2 C3.99 1.67 4.98 1.34 6 1 C6.33 1.66 6.66 2.32 7 3 C7.8971875 2.690625 7.8971875 2.690625 8.8125 2.375 C11 2 11 2 14 4 C14 4.66 14 5.32 14 6 C13.030625 5.979375 12.06125 5.95875 11.0625 5.9375 C8.12534105 5.64381501 8.12534105 5.64381501 7 7 C5.14712498 7.07226502 3.29166122 7.0838122 1.4375 7.0625 C0.42558594 7.05347656 -0.58632813 7.04445313 -1.62890625 7.03515625 C-2.41136719 7.02355469 -3.19382812 7.01195313 -4 7 C-2.92598892 4.08482708 -2.22189824 2.22189824 0 0 Z " fill="#0F0A5E" transform="translate(338,71)"/>
<path d="M0 0 C1.65 0.33 3.3 0.66 5 1 C5 1.66 5 2.32 5 3 C6.98 2.67 8.96 2.34 11 2 C11.33 2.66 11.66 3.32 12 4 C5.56971459 5.32388229 -0.4294834 6.24794402 -7 6 C-4.77810176 3.77810176 -2.91517292 3.07401108 0 2 C0 1.34 0 0.68 0 0 Z " fill="#0E095D" transform="translate(106,137)"/>
<path d="M0 0 C3.66651247 -0.08796382 7.33274918 -0.14071247 11 -0.1875 C12.54494141 -0.22520508 12.54494141 -0.22520508 14.12109375 -0.26367188 C20.50114621 -0.32462779 25.18541977 0.33731362 31 3 C30.01 3.66 29.02 4.32 28 5 C27.01 4.67 26.02 4.34 25 4 C25 3.34 25 2.68 25 2 C16.75 1.67 8.5 1.34 0 1 C0 0.67 0 0.34 0 0 Z " fill="#140E5A" transform="translate(65,8)"/>
<path d="M0 0 C0.66 0 1.32 0 2 0 C2.1953125 6.0546875 2.1953125 6.0546875 2 8 C1.34 8.66 0.68 9.32 0 10 C-2.625 9.625 -2.625 9.625 -5 9 C-4.319375 8.1646875 -4.319375 8.1646875 -3.625 7.3125 C-1.96266232 4.94686561 -0.97855457 2.70984342 0 0 Z " fill="#1B1568" transform="translate(355,116)"/>
<path d="M0 0 C2.62697064 -0.22137393 5.00893964 -0.28162025 7.625 -0.1875 C8.33140625 -0.17396484 9.0378125 -0.16042969 9.765625 -0.14648438 C11.51074128 -0.1111104 13.25546608 -0.05730221 15 0 C18 5.75 18 5.75 18 8 C17.34 8 16.68 8 16 8 C15.34 6.02 14.68 4.04 14 2 C9.71 1.67 5.42 1.34 1 1 C0.67 2.98 0.34 4.96 0 7 C-0.66 5.68 -1.32 4.36 -2 3 C-1.34 2.01 -0.68 1.02 0 0 Z " fill="#0E0C55" transform="translate(403,89)"/>
<path d="M0 0 C7.26 0.66 14.52 1.32 22 2 C22 2.33 22 2.66 22 3 C15.07 3 8.14 3 1 3 C0.67 2.01 0.34 1.02 0 0 Z " fill="#0F0A56" transform="translate(23,78)"/>
<path d="M0 0 C1.98 0 3.96 0 6 0 C6 0.66 6 1.32 6 2 C5.34 2 4.68 2 4 2 C2.85647084 4.28705831 2.89665561 5.59264762 2.9375 8.125 C2.958125 9.40375 2.97875 10.6825 3 12 C2.01 12 1.02 12 0 12 C0 8.04 0 4.08 0 0 Z " fill="#100459" transform="translate(284,114)"/>
<path d="M0 0 C2.97 0 5.94 0 9 0 C9 5.28 9 10.56 9 16 C8.67 16 8.34 16 8 16 C8 11.38 8 6.76 8 2 C5.69 2.33 3.38 2.66 1 3 C0.67 2.01 0.34 1.02 0 0 Z " fill="#080550" transform="translate(197,69)"/>
<path d="M0 0 C0.33 0.66 0.66 1.32 1 2 C1.66 2 2.32 2 3 2 C3.33 1.34 3.66 0.68 4 0 C3.8125 1.875 3.8125 1.875 3 4 C0.4375 5.25 0.4375 5.25 -2 6 C-2 6.99 -2 7.98 -2 9 C-1.34 9.33 -0.68 9.66 0 10 C-1.32 10 -2.64 10 -4 10 C-3.71872579 8.51882199 -3.42466268 7.04006751 -3.125 5.5625 C-2.96257812 4.73878906 -2.80015625 3.91507812 -2.6328125 3.06640625 C-2.42398438 2.38449219 -2.21515625 1.70257813 -2 1 C-1.34 0.67 -0.68 0.34 0 0 Z " fill="#190E54" transform="translate(242,116)"/>
<path d="M0 0 C0.94875 0.04125 1.8975 0.0825 2.875 0.125 C3.205 2.105 3.535 4.085 3.875 6.125 C1.235 6.125 -1.405 6.125 -4.125 6.125 C-3.135 5.465 -2.145 4.805 -1.125 4.125 C-2.2740712 2.8268576 -2.2740712 2.8268576 -5.125 2.125 C-3.125 0.125 -3.125 0.125 0 0 Z " fill="#0C0859" transform="translate(35.125,70.875)"/>
<path d="M0 0 C1.485 0.99 1.485 0.99 3 2 C3.29296875 4.3828125 3.29296875 4.3828125 3.1875 7.125 C3.16042969 8.03507812 3.13335937 8.94515625 3.10546875 9.8828125 C3.07066406 10.58148438 3.03585937 11.28015625 3 12 C2.01 12 1.02 12 0 12 C0 8.04 0 4.08 0 0 Z " fill="#211B6F" transform="translate(255,114)"/>
<path d="M0 0 C1.74949772 2.62424658 2.65389981 4.55727216 3.625 7.5 C3.88539063 8.2734375 4.14578125 9.046875 4.4140625 9.84375 C5 12 5 12 5 15 C3.68 15 2.36 15 1 15 C1.020625 13.824375 1.04125 12.64875 1.0625 11.4375 C1.06947261 7.52586533 0.64250343 3.85502056 0 0 Z " fill="#100C5A" transform="translate(426,82)"/>
<path d="M0 0 C0.66 0.33 1.32 0.66 2 1 C2 4 2 4 1 6 C-0.66321482 6.35015049 -2.33034549 6.68197057 -4 7 C-4.99 7.66 -5.98 8.32 -7 9 C-5.44499019 5.18315774 -2.96404505 2.80804268 0 0 Z " fill="#120C5E" transform="translate(50,15)"/>
<path d="M0 0 C2.31 0.66 4.62 1.32 7 2 C7 2.66 7 3.32 7 4 C2.545 4.495 2.545 4.495 -2 5 C-2 4.01 -2 3.02 -2 2 C-1.34 2 -0.68 2 0 2 C0 1.34 0 0.68 0 0 Z " fill="#0A036B" transform="translate(53,75)"/>
<path d="M0 0 C0.99 0 1.98 0 3 0 C2.67 4.29 2.34 8.58 2 13 C0 11 0 11 -0.1953125 8.3984375 C-0.17210937 7.40070313 -0.14890625 6.40296875 -0.125 5.375 C-0.10695313 4.37210938 -0.08890625 3.36921875 -0.0703125 2.3359375 C-0.04710937 1.56507812 -0.02390625 0.79421875 0 0 Z " fill="#07045E" transform="translate(433,59)"/>
<path d="M0 0 C1.98 0 3.96 0 6 0 C6 1.98 6 3.96 6 6 C5.01 6 4.02 6 3 6 C3 5.34 3 4.68 3 4 C2.34 4 1.68 4 1 4 C0.67 2.68 0.34 1.36 0 0 Z " fill="#0C046E" transform="translate(57,64)"/>
<path d="M0 0 C3.63 0 7.26 0 11 0 C11 0.66 11 1.32 11 2 C9.35 2 7.7 2 6 2 C5.67 2.66 5.34 3.32 5 4 C2.525 3.01 2.525 3.01 0 2 C0 1.34 0 0.68 0 0 Z " fill="#120B5D" transform="translate(330,114)"/>
<path d="M0 0 C0.495 0.639375 0.99 1.27875 1.5 1.9375 C4.98806387 4.81515269 7.53461041 4.70230736 12 5 C9.24075815 6.80411967 8.11027897 7.0127245 4.75 6.625 C3.8425 6.41875 2.935 6.2125 2 6 C2 5.01 2 4.02 2 3 C0.35 3 -1.3 3 -3 3 C-2.01 2.01 -1.02 1.02 0 0 Z " fill="#08035E" transform="translate(51,138)"/>
<path d="M0 0 C0 0.99 0 1.98 0 3 C1.65 3.33 3.3 3.66 5 4 C5 4.66 5 5.32 5 6 C2.36 6 -0.28 6 -3 6 C-3 4.68 -3 3.36 -3 2 C-2.01 1.34 -1.02 0.68 0 0 Z " fill="#131375" transform="translate(375,120)"/>
<path d="M0 0 C1.32 0.66 2.64 1.32 4 2 C3.67 3.65 3.34 5.3 3 7 C1.68 6.34 0.36 5.68 -1 5 C-0.67 3.35 -0.34 1.7 0 0 Z " fill="#141270" transform="translate(261,114)"/>
<path d="M0 0 C1.5625 1.0625 1.5625 1.0625 3 3 C2.6875 6.6875 2.6875 6.6875 2 10 C0.4375 8.9375 0.4375 8.9375 -1 7 C-0.6875 3.3125 -0.6875 3.3125 0 0 Z " fill="#0C0475" transform="translate(186,79)"/>
<path d="M0 0 C0.66 0 1.32 0 2 0 C1.33501617 4.38889325 -0.18757677 7.9811485 -2 12 C-3.15957207 8.52128379 -2.77456651 7.65780355 -1.5625 4.3125 C-1.13130859 3.10013672 -1.13130859 3.10013672 -0.69140625 1.86328125 C-0.46324219 1.24839844 -0.23507812 0.63351563 0 0 Z " fill="#0D0A53" transform="translate(402,59)"/>
<path d="M0 0 C0 0.66 0 1.32 0 2 C-4.34263862 2.16702456 -7.20960634 2.12999997 -11 0 C-9.54263913 -0.19491452 -8.08405407 -0.38069358 -6.625 -0.5625 C-5.81289063 -0.66691406 -5.00078125 -0.77132812 -4.1640625 -0.87890625 C-2 -1 -2 -1 0 0 Z " fill="#0E0B52" transform="translate(28,137)"/>
<path d="M0 0 C1.65 0 3.3 0 5 0 C5.33 1.32 5.66 2.64 6 4 C4.02 4 2.04 4 0 4 C0 2.68 0 1.36 0 0 Z " fill="#291E6E" transform="translate(241,114)"/>
<path d="M0 0 C9.17286652 -0.63019694 9.17286652 -0.63019694 12.625 2 C13.07875 2.66 13.5325 3.32 14 4 C13.40832031 3.86722656 12.81664062 3.73445313 12.20703125 3.59765625 C8.14553475 2.68994822 4.08625829 1.7908887 0 1 C0 0.67 0 0.34 0 0 Z " fill="#0B0858" transform="translate(167,81)"/>
<path d="M0 0 C0 1.32 0 2.64 0 4 C-0.99 4.33 -1.98 4.66 -3 5 C-3.66 4.67 -4.32 4.34 -5 4 C-5 3.01 -5 2.02 -5 1 C-3 0 -3 0 0 0 Z " fill="#0A0466" transform="translate(93,64)"/>
<path d="M0 0 C0.66 0 1.32 0 2 0 C2.125 2.875 2.125 2.875 2 6 C1.34 6.66 0.68 7.32 0 8 C-1.125 2.25 -1.125 2.25 0 0 Z " fill="#0B0665" transform="translate(347,116)"/>
<path d="M0 0 C0.99 0.33 1.98 0.66 3 1 C2.67 2.65 2.34 4.3 2 6 C1.01 5.67 0.02 5.34 -1 5 C-0.67 3.35 -0.34 1.7 0 0 Z " fill="#13166E" transform="translate(231,115)"/>
<path d="M0 0 C2.475 0.495 2.475 0.495 5 1 C5 1.99 5 2.98 5 4 C3.35 4 1.7 4 0 4 C0 2.68 0 1.36 0 0 Z " fill="#0C036B" transform="translate(29,63)"/>
<path d="M0 0 C0.33 0.66 0.66 1.32 1 2 C1.66 2.33 2.32 2.66 3 3 C1.02 4.32 -0.96 5.64 -3 7 C-3.66 6.67 -4.32 6.34 -5 6 C-4.360625 5.566875 -3.72125 5.13375 -3.0625 4.6875 C-0.73253997 3.08760823 -0.73253997 3.08760823 0 0 Z " fill="#0E0A5F" transform="translate(60,40)"/>
</svg>
