<?xml version="1.0" encoding="UTF-8"?>
<svg version="1.1" xmlns="http://www.w3.org/2000/svg" width="314" height="83">
<path d="M0 0 C1.16015625 0.11794922 1.16015625 0.11794922 2.34375 0.23828125 C4.5 0.6875 4.5 0.6875 7.5 2.6875 C8.16 2.0275 8.82 1.3675 9.5 0.6875 C14.17542918 -0.64032189 17.54342968 -0.78208907 21.9375 1.375 C24.96475532 4.10691333 26.33725268 5.9802281 26.72705078 10.06933594 C26.71657715 10.92817383 26.70610352 11.78701172 26.6953125 12.671875 C26.68886719 13.60644531 26.68242187 14.54101562 26.67578125 15.50390625 C26.65902344 16.47199219 26.64226562 17.44007812 26.625 18.4375 C26.61597656 19.42105469 26.60695312 20.40460937 26.59765625 21.41796875 C26.57412925 23.84125026 26.53825937 26.26440631 26.5 28.6875 C22.87 28.6875 19.24 28.6875 15.5 28.6875 C15.17 22.4175 14.84 16.1475 14.5 9.6875 C13.18 9.3575 11.86 9.0275 10.5 8.6875 C8.95049732 10.23700268 9.28344807 11.78740594 9.18359375 13.94140625 C9.14169922 14.79541016 9.09980469 15.64941406 9.05664062 16.52929688 C9.01732422 17.42712891 8.97800781 18.32496094 8.9375 19.25 C8.89431641 20.15169922 8.85113281 21.05339844 8.80664062 21.98242188 C8.70022016 24.21725156 8.59957519 26.45235486 8.5 28.6875 C4.54 28.6875 0.58 28.6875 -3.5 28.6875 C-3.5 22.0875 -3.5 15.4875 -3.5 8.6875 C-5.15 8.6875 -6.8 8.6875 -8.5 8.6875 C-9.61823815 10.92397631 -9.69396061 12.33641529 -9.81640625 14.8203125 C-9.85830078 15.62597656 -9.90019531 16.43164062 -9.94335938 17.26171875 C-10.00233398 18.52435547 -10.00233398 18.52435547 -10.0625 19.8125 C-10.10568359 20.66199219 -10.14886719 21.51148437 -10.19335938 22.38671875 C-10.29954236 24.48678223 -10.40028497 26.58711948 -10.5 28.6875 C-14.13 28.6875 -17.76 28.6875 -21.5 28.6875 C-21.5 19.4475 -21.5 10.2075 -21.5 0.6875 C-16.83333333 0.6875 -12.16666667 0.6875 -7.5 0.6875 C-4.49032056 -0.31572648 -3.0759723 -0.34348357 0 0 Z " fill="#0D0665" transform="translate(102.5,17.3125)"/>
<path d="M0 0 C1.16015625 0.11794922 1.16015625 0.11794922 2.34375 0.23828125 C4.5 0.6875 4.5 0.6875 7.5 2.6875 C8.20125 2.1925 8.9025 1.6975 9.625 1.1875 C13.01524386 -0.58132288 14.72446543 -0.85186208 18.5 -0.3125 C22.47563941 1.82822891 24.8671454 3.46921322 26.5 7.6875 C26.72705078 10.06933594 26.72705078 10.06933594 26.6953125 12.671875 C26.68886719 13.60644531 26.68242187 14.54101562 26.67578125 15.50390625 C26.65902344 16.47199219 26.64226562 17.44007812 26.625 18.4375 C26.61597656 19.42105469 26.60695312 20.40460937 26.59765625 21.41796875 C26.57412925 23.84125026 26.53825937 26.26440631 26.5 28.6875 C22.87 28.6875 19.24 28.6875 15.5 28.6875 C15.17 22.4175 14.84 16.1475 14.5 9.6875 C13.18 9.3575 11.86 9.0275 10.5 8.6875 C8.95049732 10.23700268 9.28344807 11.78740594 9.18359375 13.94140625 C9.14169922 14.79541016 9.09980469 15.64941406 9.05664062 16.52929688 C9.01732422 17.42712891 8.97800781 18.32496094 8.9375 19.25 C8.89431641 20.15169922 8.85113281 21.05339844 8.80664062 21.98242188 C8.70022016 24.21725156 8.59957519 26.45235486 8.5 28.6875 C4.54 28.6875 0.58 28.6875 -3.5 28.6875 C-3.995 18.7875 -3.995 18.7875 -4.5 8.6875 C-5.82 8.6875 -7.14 8.6875 -8.5 8.6875 C-9.61823815 10.92397631 -9.69396061 12.33641529 -9.81640625 14.8203125 C-9.85830078 15.62597656 -9.90019531 16.43164062 -9.94335938 17.26171875 C-10.00233398 18.52435547 -10.00233398 18.52435547 -10.0625 19.8125 C-10.10568359 20.66199219 -10.14886719 21.51148437 -10.19335938 22.38671875 C-10.29954236 24.48678223 -10.40028497 26.58711948 -10.5 28.6875 C-14.13 28.6875 -17.76 28.6875 -21.5 28.6875 C-21.5 19.4475 -21.5 10.2075 -21.5 0.6875 C-16.83333333 0.6875 -12.16666667 0.6875 -7.5 0.6875 C-4.49032056 -0.31572648 -3.0759723 -0.34348357 0 0 Z " fill="#0D0665" transform="translate(154.5,17.3125)"/>
<path d="M0 0 C2.21139918 1.79930117 3.41153805 3.58637595 4.48828125 6.2109375 C4.48828125 7.2009375 4.48828125 8.1909375 4.48828125 9.2109375 C2.3847463 9.2919581 0.28032173 9.35013657 -1.82421875 9.3984375 C-3.58185547 9.45064453 -3.58185547 9.45064453 -5.375 9.50390625 C-8.87684076 9.1768352 -9.28973866 8.69743903 -11.51171875 6.2109375 C-15.1571372 6.44570949 -15.1571372 6.44570949 -18.51171875 7.2109375 C-18.51171875 7.8709375 -18.51171875 8.5309375 -18.51171875 9.2109375 C-17.22078742 9.65060252 -15.92891039 10.08749049 -14.63671875 10.5234375 C-13.81945312 10.80058594 -13.0021875 11.07773437 -12.16015625 11.36328125 C-10.40901464 11.92374988 -8.64230402 12.4379086 -6.86328125 12.90234375 C-1.5473592 14.29917011 2.24774201 15.45814661 5.48828125 20.2109375 C6.24038457 25.38164782 5.35356999 28.86360285 2.48828125 33.2109375 C-3.57540617 37.71983327 -10.18757886 37.88820275 -17.51171875 37.2109375 C-21.95505192 36.18221601 -25.9764157 34.95172303 -29.05859375 31.45703125 C-30.19921875 29.5859375 -30.19921875 29.5859375 -31.51171875 26.2109375 C-31.18171875 25.5509375 -30.85171875 24.8909375 -30.51171875 24.2109375 C-28.55405594 24.13011656 -26.59545147 24.07182972 -24.63671875 24.0234375 C-23.00089844 23.97123047 -23.00089844 23.97123047 -21.33203125 23.91796875 C-20.40132812 24.01464844 -19.470625 24.11132812 -18.51171875 24.2109375 C-17.85171875 25.2009375 -17.19171875 26.1909375 -16.51171875 27.2109375 C-14.30446802 27.57456568 -14.30446802 27.57456568 -11.88671875 27.3984375 C-11.06945312 27.37136719 -10.2521875 27.34429687 -9.41015625 27.31640625 C-8.47042969 27.26419922 -8.47042969 27.26419922 -7.51171875 27.2109375 C-7.18171875 26.2209375 -6.85171875 25.2309375 -6.51171875 24.2109375 C-7.75308594 23.88480469 -8.99445312 23.55867188 -10.2734375 23.22265625 C-11.91547274 22.7816525 -13.55739389 22.34022383 -15.19921875 21.8984375 C-16.01583984 21.68509766 -16.83246094 21.47175781 -17.67382812 21.25195312 C-22.00552474 20.0769585 -25.88368215 18.97078635 -29.51171875 16.2109375 C-31.71464881 11.4219591 -31.94913037 7.19508733 -30.5703125 2.16796875 C-29.2531169 -0.26714193 -28.32418278 -0.84470978 -25.76171875 -1.8515625 C-17.41143025 -3.82109743 -7.57418404 -4.57370428 0 0 Z " fill="#0C0663" transform="translate(36.51171875,9.7890625)"/>
<path d="M0 0 C5.61 0 11.22 0 17 0 C19.77117288 7.2014622 22.23828178 14.49609534 24.6875 21.8125 C25.10322266 23.03904297 25.51894531 24.26558594 25.94726562 25.52929688 C26.33978516 26.70169922 26.73230469 27.87410156 27.13671875 29.08203125 C27.49467529 30.14655518 27.85263184 31.2110791 28.22143555 32.30786133 C29 35 29 35 29 38 C25.04 38 21.08 38 17 38 C16.34 36.02 15.68 34.04 15 32 C10.71 31.67 6.42 31.34 2 31 C1.67 32.98 1.34 34.96 1 37 C0.505 37.495 0.505 37.495 0 38 C-3.96 38 -7.92 38 -12 38 C-8.04 25.46 -4.08 12.92 0 0 Z M8 10 C7.49440092 11.43554025 6.9957251 12.8735202 6.5 14.3125 C6.2215625 15.11300781 5.943125 15.91351563 5.65625 16.73828125 C4.86066893 19.08769422 4.86066893 19.08769422 5 22 C7.64 22 10.28 22 13 22 C12.55149342 20.18504338 12.09090429 18.37306866 11.625 16.5625 C11.24214844 15.04849609 11.24214844 15.04849609 10.8515625 13.50390625 C10.27426046 10.84429676 10.27426046 10.84429676 8 10 Z " fill="#0B056A" transform="translate(253,8)"/>
<path d="M0 0 C4.00021547 4.58223296 3.55179359 10.03916176 3.6875 15.8125 C3.73874023 17.28106445 3.73874023 17.28106445 3.79101562 18.77929688 C3.87319858 21.18608345 3.94244433 23.59251945 4 26 C2.53626953 25.98259766 2.53626953 25.98259766 1.04296875 25.96484375 C-0.22933594 25.95582031 -1.50164062 25.94679688 -2.8125 25.9375 C-4.07707031 25.92589844 -5.34164062 25.91429688 -6.64453125 25.90234375 C-9.99605237 25.83840884 -9.99605237 25.83840884 -13 27 C-18.00401435 27.37066773 -20.98301324 27.09881835 -25 24 C-27.34549674 20.48175489 -27.57991403 19.14224306 -27 15 C-23.62683563 10.50244751 -20.45881132 9.0352918 -15 8 C-12.66784156 7.92596322 -10.33139212 7.90484114 -8 8 C-8.33 7.34 -8.66 6.68 -9 6 C-9.94875 6.165 -10.8975 6.33 -11.875 6.5 C-16.5763877 7.18541792 -21.26003286 7.08583441 -26 7 C-24.64908476 2.57882285 -22.8349855 0.556657 -19 -2 C-13.01123969 -4.39550413 -5.41218699 -3.4473278 0 0 Z M-16 17 C-15.67 17.66 -15.34 18.32 -15 19 C-11.535 18.505 -11.535 18.505 -8 18 C-8 17.01 -8 16.02 -8 15 C-11.76687864 15 -12.91190305 15.23537317 -16 17 Z " fill="#0C0665" transform="translate(211,20)"/>
<path d="M0 0 C3.63 0 7.26 0 11 0 C11.33 6.6 11.66 13.2 12 20 C14.31 20 16.62 20 19 20 C19.33 13.4 19.66 6.8 20 0 C23.63 0 27.26 0 31 0 C31.33 9.24 31.66 18.48 32 28 C27.38 28 22.76 28 18 28 C16.35 28.226875 14.7 28.45375 13 28.6875 C8.86116223 29.21062448 6.43614513 28.53620236 3 26 C-0.5757524 20.64905138 -0.35966001 15.81393178 -0.1875 9.625 C-0.17396484 8.69816406 -0.16042969 7.77132813 -0.14648438 6.81640625 C-0.11134435 4.54401792 -0.05754423 2.27193138 0 0 Z " fill="#0C0569" transform="translate(45,18)"/>
<path d="M0 0 C3.96 0 7.92 0 12 0 C12 12.54 12 25.08 12 38 C8.04 38 4.08 38 0 38 C0 25.46 0 12.92 0 0 Z " fill="#0C056C" transform="translate(284,8)"/>
<path d="M0 0 C0 2.64 0 5.28 0 8 C-3.3 8.66 -6.6 9.32 -10 10 C-11.2062252 13.61867559 -11.10816918 16.92506251 -11.0625 20.6875 C-11.05798828 21.38939453 -11.05347656 22.09128906 -11.04882812 22.81445312 C-11.03706927 24.54300538 -11.01913454 26.27151365 -11 28 C-14.96 28 -18.92 28 -23 28 C-23 18.76 -23 9.52 -23 0 C-19.37 0 -15.74 0 -12 0 C-11.67 0.66 -11.34 1.32 -11 2 C-10.113125 1.484375 -9.22625 0.96875 -8.3125 0.4375 C-4.79976669 -1.0868937 -3.55293493 -1.14947895 0 0 Z " fill="#0D0668" transform="translate(241,18)"/>
<path d="M0 0 C3.63 0 7.26 0 11 0 C11.33 6.6 11.66 13.2 12 20 C13.65 20.33 15.3 20.66 17 21 C15.68 22.32 14.36 23.64 13 25 C13.99 25.66 14.98 26.32 16 27 C16 26.01 16 25.02 16 24 C19.465 23.505 19.465 23.505 23 23 C23 24.32 23 25.64 23 27 C24.98 27 26.96 27 29 27 C29 27.33 29 27.66 29 28 C28.31035156 27.98839844 27.62070313 27.97679688 26.91015625 27.96484375 C22.25229121 27.92011802 17.79486845 27.96415888 13.1875 28.6875 C8.96893666 29.2006705 6.50601186 28.58777066 3 26 C-0.5757524 20.64905138 -0.35966001 15.81393178 -0.1875 9.625 C-0.17396484 8.69816406 -0.16042969 7.77132813 -0.14648438 6.81640625 C-0.11134435 4.54401792 -0.05754423 2.27193138 0 0 Z M1 1 C0.94595551 3.75026417 0.90630694 6.49946203 0.875 9.25 C0.85824219 10.02730469 0.84148438 10.80460937 0.82421875 11.60546875 C0.74031699 17.08306936 0.74031699 17.08306936 3 22 C3 21.34 3 20.68 3 20 C3.66 20 4.32 20 5 20 C5 21.98 5 23.96 5 26 C7.31448841 24.8427558 9.09195106 23.7635372 11 22 C11.45908782 19.68144765 11.45908782 19.68144765 11.171875 17.11328125 C11.11386719 16.17548828 11.05585937 15.23769531 10.99609375 14.27148438 C10.91488281 13.29501953 10.83367188 12.31855469 10.75 11.3125 C10.68425781 10.32443359 10.61851563 9.33636719 10.55078125 8.31835938 C10.38566427 5.87698692 10.20139619 3.43860383 10 1 C7.03 1 4.06 1 1 1 Z " fill="#100B5D" transform="translate(45,18)"/>
<path d="M0 0 C1.00000429 4.00001715 0.80688405 6.05523353 0 10 C1.32 10.33 2.64 10.66 4 11 C4.061875 10.21625 4.12375 9.4325 4.1875 8.625 C5 6 5 6 7.0625 4.8125 C10.74938845 3.79272234 14.05828269 4.01574476 17.8125 4.375 C18.85180664 4.46007813 18.85180664 4.46007813 19.91210938 4.546875 C21.60898446 4.68730604 23.30465248 4.84219407 25 5 C25.33 6.65 25.66 8.3 26 10 C26.66 10 27.32 10 28 10 C28 10.66 28 11.32 28 12 C31.465 11.505 31.465 11.505 35 11 C34.34 8.36 33.68 5.72 33 3 C33.66 3.33 34.32 3.66 35 4 C35.90591398 6.95820059 36.40058396 9.96010437 37 13 C33.04 13 29.08 13 25 13 C24.34 11.02 23.68 9.04 23 7 C18.71 6.67 14.42 6.34 10 6 C9.67 7.98 9.34 9.96 9 12 C8 13 8 13 5.27734375 13.09765625 C2.18489583 13.06510417 -0.90755208 13.03255208 -4 13 C-2.68 8.71 -1.36 4.42 0 0 Z " fill="#110A5D" transform="translate(245,33)"/>
<path d="M0 0 C2.97 0 5.94 0 9 0 C9.8441938 3.97977076 10.44687265 7.97007218 11 12 C9.68 12 8.36 12 7 12 C6.34 10.68 5.68 9.36 5 8 C4.67 9.32 4.34 10.64 4 12 C2.68 12 1.36 12 0 12 C0 8.04 0 4.08 0 0 Z M4 2 C4 2.99 4 3.98 4 5 C4.99 4.67 5.98 4.34 7 4 C6.67 3.34 6.34 2.68 6 2 C5.34 2 4.68 2 4 2 Z " fill="#160D59" transform="translate(135,63)"/>
<path d="M0 0 C2.0625 0.4375 2.0625 0.4375 4 1 C3.01 1.495 3.01 1.495 2 2 C1.27306096 3.97888961 0.60183749 5.97954558 0 8 C0.66 7.01 1.32 6.02 2 5 C4.31831966 2.24009564 6.61883953 1.1879753 10 0 C9.34 1.32 8.68 2.64 8 4 C8.99 5.485 8.99 5.485 10 7 C9.34 7 8.68 7 8 7 C8 7.99 8 8.98 8 10 C6.68 9.67 5.36 9.34 4 9 C2.79371992 11.33214148 1.8345262 13.49642139 1 16 C0.01 15.67 -0.98 15.34 -2 15 C-3.57530966 10.11654007 -2.44240704 5.78167814 -1 1 C-0.67 0.67 -0.34 0.34 0 0 Z " fill="#0C056C" transform="translate(8,9)"/>
<path d="M0 0 C3.10495519 -0.43469373 5.90881307 -0.58807946 9 0 C11.55839382 1.96918797 13.38844907 4.20664506 15 7 C15 7.66 15 8.32 15 9 C6.37757848 9.76681614 6.37757848 9.76681614 3 7.88671875 C1.375 6.5 1.375 6.5 -1 4 C-0.67 2.68 -0.34 1.36 0 0 Z " fill="#0B046B" transform="translate(24,8)"/>
<path d="M0 0 C2 2 2 2 2.265625 3.875 C2.26046875 4.57625 2.2553125 5.2775 2.25 6 C2.25515625 6.70125 2.2603125 7.4025 2.265625 8.125 C2 10 2 10 0 12 C-6.05240175 12.55021834 -6.05240175 12.55021834 -8.9375 10.875 C-10.50422245 8.11019567 -10.38976435 6.11811483 -10 3 C-7.71933282 -1.02470679 -4.21240995 -0.38294636 0 0 Z M-5 2 C-6.35618499 3.12534105 -6.35618499 3.12534105 -6.0625 6.0625 C-6.041875 7.031875 -6.02125 8.00125 -6 9 C-4.68 9 -3.36 9 -2 9 C-1.67 7.35 -1.34 5.7 -1 4 C-2.32 3.34 -3.64 2.68 -5 2 Z " fill="#150E5D" transform="translate(206,63)"/>
<path d="M0 0 C3.96 0 7.92 0 12 0 C12 12.54 12 25.08 12 38 C8.04 38 4.08 38 0 38 C0 35.36 0 32.72 0 30 C1 32 2 34 3 36 C5.64 36.33 8.28 36.66 11 37 C11 25.12 11 13.24 11 1 C8.03 1 5.06 1 2 1 C2 7.27 2 13.54 2 20 C1.67 20 1.34 20 1 20 C0.67 13.4 0.34 6.8 0 0 Z " fill="#0F0A51" transform="translate(284,8)"/>
<path d="M0 0 C1.65 0 3.3 0 5 0 C6.32 3.96 7.64 7.92 9 12 C7.68 12 6.36 12 5 12 C4.67 11.34 4.34 10.68 4 10 C3.01 10 2.02 10 1 10 C0.67 10.66 0.34 11.32 0 12 C-1.32 11.67 -2.64 11.34 -4 11 C-2.68 7.37 -1.36 3.74 0 0 Z M2 4 C3 7 3 7 3 7 Z " fill="#191669" transform="translate(161,63)"/>
<path d="M0 0 C2.97 0 5.94 0 9 0 C9.625 2.875 9.625 2.875 10 6 C9.34 6.66 8.68 7.32 8 8 C6.68 8 5.36 8 4 8 C4 9.32 4 10.64 4 12 C2.68 12 1.36 12 0 12 C0 8.04 0 4.08 0 0 Z M4 2 C4.33 3.32 4.66 4.64 5 6 C5.33 4.68 5.66 3.36 6 2 C5.34 2 4.68 2 4 2 Z " fill="#151060" transform="translate(75,63)"/>
<path d="M0 0 C1.65 0.33 3.3 0.66 5 1 C5.99 4.63 6.98 8.26 8 12 C6.68 12 5.36 12 4 12 C4 11.01 4 10.02 4 9 C2.68 9 1.36 9 0 9 C-0.33 9.99 -0.66 10.98 -1 12 C-1.99 12 -2.98 12 -4 12 C-3.52494322 10.18641846 -3.04483958 8.37415821 -2.5625 6.5625 C-2.29566406 5.55316406 -2.02882813 4.54382813 -1.75390625 3.50390625 C-1 1 -1 1 0 0 Z M1 5 C1 5.66 1 6.32 1 7 C1.66 7 2.32 7 3 7 C3 6.34 3 5.68 3 5 C2.34 5 1.68 5 1 5 Z " fill="#211969" transform="translate(93,63)"/>
<path d="M0 0 C2.97 0 5.94 0 9 0 C9.625 2.875 9.625 2.875 10 6 C8 8 8 8 5.9375 9 C3.83134399 9.84589942 3.83134399 9.84589942 3 12 C2.01 12 1.02 12 0 12 C0 8.04 0 4.08 0 0 Z M4 2 C4.33 3.32 4.66 4.64 5 6 C5 4.68 5 3.36 5 2 C4.67 2 4.34 2 4 2 Z " fill="#19105B" transform="translate(106,63)"/>
<path d="M0 0 C3.63 0 7.26 0 11 0 C9.47426795 3.81433013 8.47253678 5.96552304 6 9 C7.65 9.33 9.3 9.66 11 10 C11 10.66 11 11.32 11 12 C7.37 12 3.74 12 0 12 C1.52573205 8.18566987 2.52746322 6.03447696 5 3 C3.35 2.67 1.7 2.34 0 2 C0 1.34 0 0.68 0 0 Z " fill="#17175C" transform="translate(220,63)"/>
<path d="M0 0 C2.97 0 5.94 0 9 0 C9 0.66 9 1.32 9 2 C7.35 2 5.7 2 4 2 C4 2.99 4 3.98 4 5 C5.32 5 6.64 5 8 5 C8 5.66 8 6.32 8 7 C6.68 7 5.36 7 4 7 C4 7.99 4 8.98 4 10 C5.65 10 7.3 10 9 10 C9 10.66 9 11.32 9 12 C6.03 12 3.06 12 0 12 C0 8.04 0 4.08 0 0 Z " fill="#191C69" transform="translate(121,63)"/>
<path d="M0 0 C5.61 0 11.22 0 17 0 C19.44140625 6.0546875 19.44140625 6.0546875 20 8 C19.67 8.66 19.34 9.32 19 10 C16.70620251 6.55930376 16 5.27709699 16 1 C11.05 1 6.1 1 1 1 C1 2.65 1 4.3 1 6 C0.35447231 7.34369499 -0.31473187 8.67613074 -1 10 C-1.78978519 13.3865658 -2.45667714 16.78601569 -3.12109375 20.19921875 C-3.41113281 21.12347656 -3.70117188 22.04773438 -4 23 C-4.99 23.33 -5.98 23.66 -7 24 C-5.08724385 15.82731462 -2.73932639 7.93460059 0 0 Z " fill="#0F0B55" transform="translate(253,8)"/>
<path d="M0 0 C1.08152344 -0.02578125 2.16304687 -0.0515625 3.27734375 -0.078125 C4.19644531 0.03015625 5.11554687 0.1384375 6.0625 0.25 C6.7225 1.24 7.3825 2.23 8.0625 3.25 C10.25704681 3.82993699 10.25704681 3.82993699 12.6875 3.9375 C13.50476563 4.00324219 14.32203125 4.06898437 15.1640625 4.13671875 C15.79054688 4.17410156 16.41703125 4.21148437 17.0625 4.25 C17.0625 4.58 17.0625 4.91 17.0625 5.25 C13.4325 5.25 9.8025 5.25 6.0625 5.25 C6.0625 5.91 6.0625 6.57 6.0625 7.25 C4.7425 7.58 3.4225 7.91 2.0625 8.25 C0.0625 5.25 0.0625 5.25 0.0625 1.25 C-1.5875 1.25 -3.2375 1.25 -4.9375 1.25 C-5.2675 2.57 -5.5975 3.89 -5.9375 5.25 C-6.5 3.3125 -6.5 3.3125 -6.9375 1.25 C-5.12630181 -0.56119819 -2.43968608 0.03481122 0 0 Z " fill="#100962" transform="translate(11.9375,33.75)"/>
<path d="M0 0 C3.63 0 7.26 0 11 0 C11 0.66 11 1.32 11 2 C9.68 2 8.36 2 7 2 C7 5.3 7 8.6 7 12 C6.01 12 5.02 12 4 12 C4 8.7 4 5.4 4 2 C2.68 2 1.36 2 0 2 C0 1.34 0 0.68 0 0 Z " fill="#1D1C63" transform="translate(181,63)"/>
<path d="M0 0 C-0.99 0.495 -0.99 0.495 -2 1 C-1.21625 1.144375 -0.4325 1.28875 0.375 1.4375 C3 2 3 2 5 3 C2.22957891 5.77042109 0.23466195 5.39796106 -3.625 5.625 C-4.81351563 5.69976563 -6.00203125 5.77453125 -7.2265625 5.8515625 C-8.14179688 5.90054687 -9.05703125 5.94953125 -10 6 C-8.09258661 0.27775983 -5.91019817 -0.39401321 0 0 Z " fill="#0B046E" transform="translate(198,19)"/>
<path d="M0 0 C2.64 0 5.28 0 8 0 C8 0.33 8 0.66 8 1 C6.35 1.33 4.7 1.66 3 2 C3 4.64 3 7.28 3 10 C4.65 10.33 6.3 10.66 8 11 C8 11.33 8 11.66 8 12 C5.36 12 2.72 12 0 12 C0 8.04 0 4.08 0 0 Z " fill="#191251" transform="translate(121,63)"/>
<path d="M0 0 C2.375 -0.125 2.375 -0.125 5 0 C7 2 7 2 7.1953125 3.9453125 C7.13020833 5.96354167 7.06510417 7.98177083 7 10 C6.01 10.495 6.01 10.495 5 11 C4.80664062 10.43410156 4.61328125 9.86820313 4.4140625 9.28515625 C4.15367187 8.55167969 3.89328125 7.81820312 3.625 7.0625 C3.24214844 5.96615234 3.24214844 5.96615234 2.8515625 4.84765625 C2.14728587 2.81317884 2.14728587 2.81317884 0 2 C0 1.34 0 0.68 0 0 Z " fill="#181B64" transform="translate(201,63)"/>
<path d="M0 0 C0.66 0.33 1.32 0.66 2 1 C-3.92780914 4.16149821 -9.31371425 4.78842879 -16 4 C-18.33203125 2.98046875 -18.33203125 2.98046875 -20 2 C-14.72701769 1.06258092 -9.7091614 0.94434954 -4.35546875 1.0625 C-1.97870926 1.16574291 -1.97870926 1.16574291 0 0 Z " fill="#100A53" transform="translate(35,43)"/>
<path d="M0 0 C0 2.64 0 5.28 0 8 C-2.64 8 -5.28 8 -8 8 C-8 7.67 -8 7.34 -8 7 C-6.02 7 -4.04 7 -2 7 C-2 5.02 -2 3.04 -2 1 C-4.64 1.66 -7.28 2.32 -10 3 C-10 2.34 -10 1.68 -10 1 C-6.21812119 -0.83691257 -4.05431692 -1.15837626 0 0 Z " fill="#120E57" transform="translate(241,18)"/>
<path d="M0 0 C0.66 0 1.32 0 2 0 C2.66 2.64 3.32 5.28 4 8 C2.68 8 1.36 8 0 8 C0 7.01 0 6.02 0 5 C-1.98 5.33 -3.96 5.66 -6 6 C-6 5.34 -6 4.68 -6 4 C-4.35 3.67 -2.7 3.34 -1 3 C-0.67 2.01 -0.34 1.02 0 0 Z " fill="#121060" transform="translate(97,67)"/>
<path d="M0 0 C3.37991574 0.3557806 6.04288438 1.35715799 9 3 C8.67 3.99 8.34 4.98 8 6 C7.01 6 6.02 6 5 6 C4.67 5.34 4.34 4.68 4 4 C2.68 4.33 1.36 4.66 0 5 C0 4.34 0 3.68 0 3 C-0.66 2.67 -1.32 2.34 -2 2 C-1.34 1.34 -0.68 0.68 0 0 Z " fill="#0C0570" transform="translate(169,18)"/>
<path d="M0 0 C0.99 0.33 1.98 0.66 3 1 C2.34 3.64 1.68 6.28 1 9 C-0.32 8.67 -1.64 8.34 -3 8 C-2.45276317 4.62537285 -1.9451 2.91765 0 0 Z " fill="#0A036E" transform="translate(12,18)"/>
<path d="M0 0 C2.0625 0.4375 2.0625 0.4375 4 1 C3.01 1.495 3.01 1.495 2 2 C1.08514427 4.80478195 1.08514427 4.80478195 0.375 8.0625 C0.11460938 9.16722656 -0.14578125 10.27195312 -0.4140625 11.41015625 C-0.60742188 12.26480469 -0.80078125 13.11945312 -1 14 C-2.42425426 11.68624865 -3.03742624 10.42016246 -2.79296875 7.67578125 C-2.59316406 6.89589844 -2.39335938 6.11601562 -2.1875 5.3125 C-1.99542969 4.52488281 -1.80335937 3.73726562 -1.60546875 2.92578125 C-1 1 -1 1 0 0 Z " fill="#38336B" transform="translate(8,9)"/>
<path d="M0 0 C0.33 0.66 0.66 1.32 1 2 C3.31 2 5.62 2 8 2 C8 2.66 8 3.32 8 4 C4.37 4 0.74 4 -3 4 C-2.67 3.01 -2.34 2.02 -2 1 C-1.34 0.67 -0.68 0.34 0 0 Z " fill="#161055" transform="translate(223,71)"/>
<path d="M0 0 C-1.11179163 3.33537489 -2.47411298 4.63707344 -5 7 C-2.36 7 0.28 7 3 7 C3 7.33 3 7.66 3 8 C-0.3 8 -3.6 8 -7 8 C-4.18918919 0 -4.18918919 0 0 0 Z " fill="#110C4E" transform="translate(192,19)"/>
<path d="M0 0 C2.00993705 3.01490557 2.72623341 5.2149927 3.625 8.6875 C3.88539063 9.68136719 4.14578125 10.67523438 4.4140625 11.69921875 C4.60742188 12.45847656 4.80078125 13.21773437 5 14 C4.34 13.67 3.68 13.34 3 13 C3 12.01 3 11.02 3 10 C2.34 9.67 1.68 9.34 1 9 C0.15014743 5.85554549 0 3.29227921 0 0 Z " fill="#150F5F" transform="translate(273,19)"/>
<path d="M0 0 C0.33 0.99 0.66 1.98 1 3 C3.00016466 4.20882096 3.00016466 4.20882096 5 5 C4.34 5.66 3.68 6.32 3 7 C2.67 6.67 2.34 6.34 2 6 C1.34 7.32 0.68 8.64 0 10 C0 6.7 0 3.4 0 0 Z " fill="#1B1D73" transform="translate(138,65)"/>
<path d="M0 0 C0.66 0.33 1.32 0.66 2 1 C1.67 2.65 1.34 4.3 1 6 C0.01 5.67 -0.98 5.34 -2 5 C-2 3.68 -2 2.36 -2 1 C-1.34 0.67 -0.68 0.34 0 0 Z " fill="#15136B" transform="translate(114,64)"/>
<path d="M0 0 C2.31 0.33 4.62 0.66 7 1 C7.33 2.32 7.66 3.64 8 5 C6.68 5 5.36 5 4 5 C3.67 4.34 3.34 3.68 3 3 C2.01 2.67 1.02 2.34 0 2 C0 1.34 0 0.68 0 0 Z " fill="#101158" transform="translate(162,70)"/>
<path d="M0 0 C0.33 1.32 0.66 2.64 1 4 C0.01 4.66 -0.98 5.32 -2 6 C-2.66 5.67 -3.32 5.34 -4 5 C-2.25 1.125 -2.25 1.125 0 0 Z " fill="#1D176F" transform="translate(226,67)"/>
<path d="M0 0 C1.98 0 3.96 0 6 0 C6.33 1.65 6.66 3.3 7 5 C6.01 5.66 5.02 6.32 4 7 C3.67 6.01 3.34 5.02 3 4 C3.66 4 4.32 4 5 4 C5 3.01 5 2.02 5 1 C3.35 1.33 1.7 1.66 0 2 C0 1.34 0 0.68 0 0 Z " fill="#0E0958" transform="translate(198,34)"/>
</svg>
