<svg width="18" height="11" viewBox="0 0 18 11" fill="none" xmlns="http://www.w3.org/2000/svg">
<path d="M17.2959 9.79597C17.1914 9.90086 17.0672 9.98407 16.9304 10.0409C16.7937 10.0976 16.6471 10.1269 16.499 10.1269C16.351 10.1269 16.2043 10.0976 16.0676 10.0409C15.9309 9.98407 15.8067 9.90086 15.7021 9.79597L8.99996 3.09379L2.2959 9.79597C2.08455 10.0073 1.79791 10.1261 1.49902 10.1261C1.20014 10.1261 0.913491 10.0073 0.702147 9.79597C0.490802 9.58463 0.37207 9.29799 0.37207 8.9991C0.37207 8.70021 0.490803 8.41357 0.702147 8.20223L8.20215 0.702224C8.30666 0.597345 8.43085 0.514128 8.5676 0.457347C8.70435 0.400566 8.85096 0.371338 8.99902 0.371338C9.14709 0.371338 9.2937 0.400566 9.43044 0.457347C9.56719 0.514128 9.69138 0.597345 9.7959 0.702224L17.2959 8.20223C17.4008 8.30674 17.484 8.43093 17.5408 8.56768C17.5976 8.70442 17.6268 8.85103 17.6268 8.9991C17.6268 9.14717 17.5976 9.29378 17.5408 9.43052C17.484 9.56727 17.4008 9.69146 17.2959 9.79597Z" fill="#94A3B8"/>
</svg>
